<svg width="13" height="26" viewBox="0 0 13 26" fill="none" xmlns="http://www.w3.org/2000/svg">
<path d="M12.0348 0.583808C12.1989 0.596148 12.3434 0.608474 12.4652 0.6197L12.3834 3.76841C12.27 3.76759 12.1398 3.76671 11.9959 3.76583C11.4623 3.76256 10.7402 3.75929 9.98632 3.75929C9.11524 3.75929 8.45159 3.95229 8.04115 4.4619C7.65306 4.94375 7.59646 5.59177 7.59646 6.20009V9.40748V9.90748H8.09646H12.4751L12.3103 13.3H8.09646H7.59646V13.8V25.5H3.8186V13.8V13.3H3.3186H0.5V9.90748H3.3186H3.8186V9.40748V5.65565C3.8186 4.29147 4.27084 3.01354 5.21536 2.07736C6.15718 1.14385 7.63942 0.5 9.79588 0.5C10.6952 0.5 11.4777 0.541924 12.0348 0.583808Z" stroke="#BCBEC0"/>
</svg>
