<svg width="27" height="27" viewBox="0 0 27 27" fill="none" xmlns="http://www.w3.org/2000/svg">
<g clip-path="url(#clip0_396_1311)">
<path d="M8.196 19.7355C6.27361 19.7004 4.60936 18.5858 3.7853 16.9731C3.87179 16.9768 3.95874 16.9786 4.04617 16.9786C4.59686 16.9786 5.13258 16.9052 5.63953 16.7669L5.60697 15.7944C3.53372 15.3757 1.91736 13.6876 1.60848 11.5752C2.21649 11.8057 2.87177 11.9422 3.55537 11.9644L5.30234 12.021L3.84959 11.049C2.49146 10.1404 1.60148 8.59332 1.60148 6.84087C1.60148 6.17219 1.73054 5.53445 1.96613 4.95001C4.77795 8.08515 8.78444 10.1247 13.2728 10.3503L13.9355 10.3836L13.7848 9.73741C13.6984 9.36683 13.6523 8.98093 13.6523 8.58532C13.6523 5.79468 15.9152 3.53345 18.7063 3.53345C20.1599 3.53345 21.4722 4.14544 22.3937 5.12831L22.5832 5.33047L22.8551 5.27691C23.6681 5.11674 24.4528 4.87212 25.1973 4.55281C24.7809 5.17311 24.2295 5.69711 23.5856 6.08292L23.9023 7.00824C24.4737 6.93963 25.0318 6.83079 25.5745 6.6837C25.089 7.20995 24.5518 7.68751 23.9719 8.10607L23.7553 8.2624L23.7649 8.52934C23.7732 8.76267 23.7793 8.99868 23.7793 9.23079C23.7793 16.3521 18.3602 24.5279 8.48008 24.5279C6.16409 24.5279 3.97114 24.0115 2.00624 23.0891C4.44758 22.9421 6.68698 22.0475 8.49548 20.6288L9.60158 19.7611L8.196 19.7355Z" stroke="#BCBEC0"/>
</g>
<defs>
<clipPath id="clip0_396_1311">
<rect width="27" height="27" fill="white"/>
</clipPath>
</defs>
</svg>
