<svg width="27" height="15" viewBox="0 0 27 15" fill="none" xmlns="http://www.w3.org/2000/svg">
<mask id="path-1-inside-1_396_1309" fill="white">
<path fill-rule="evenodd" clip-rule="evenodd" d="M26.3807 1.01571C26.5674 0.430714 26.3807 0 25.4863 0H22.5333C21.7818 0 21.4353 0.371786 21.2474 0.782143C21.2474 0.782143 19.7456 4.20643 17.6183 6.43071C16.9298 7.07571 16.617 7.28036 16.2413 7.28036C16.0534 7.28036 15.771 7.07571 15.771 6.48964V1.01571C15.771 0.312857 15.564 0 14.9386 0H10.2947C9.82554 0 9.54317 0.325714 9.54317 0.635357C9.54317 1.30071 10.6074 1.455 10.7165 3.32786V7.39714C10.7165 8.28964 10.5444 8.45143 10.1687 8.45143C9.16743 8.45143 6.73186 5.01107 5.28626 1.07464C5.00615 0.308571 4.72265 0 3.96779 0H1.01248C0.168746 0 0 0.371786 0 0.782143C0 1.51286 1.00123 5.14286 4.66303 9.94393C7.10423 13.2225 10.541 15 13.6718 15C15.5494 15 15.7812 14.6057 15.7812 13.9254V11.4471C15.7812 10.6575 15.9589 10.5 16.554 10.5C16.9928 10.5 17.7431 10.7057 19.4958 12.2861C21.4983 14.16 21.8279 15 22.9551 15H25.9082C26.7519 15 27.1749 14.6057 26.9319 13.8257C26.6642 13.05 25.708 11.9239 24.4401 10.5879C23.7516 9.82714 22.7189 9.0075 22.405 8.59714C21.9674 8.07107 22.0923 7.83643 22.405 7.36821C22.405 7.36821 26.005 2.62607 26.3796 1.01571H26.3807Z"/>
</mask>
<path d="M26.3807 1.01571V2.01571H27.1112L27.3333 1.31982L26.3807 1.01571ZM21.2474 0.782143L20.3382 0.365871L20.3349 0.373154L20.3316 0.38049L21.2474 0.782143ZM17.6183 6.43071L18.3019 7.16049L18.322 7.14173L18.3409 7.12189L17.6183 6.43071ZM10.7165 3.32786H11.7165V3.29875L11.7148 3.26969L10.7165 3.32786ZM5.28626 1.07464L4.34708 1.41806L4.34756 1.41937L5.28626 1.07464ZM4.66303 9.94393L5.46516 9.34667L5.45815 9.33748L4.66303 9.94393ZM19.4958 12.2861L20.1791 11.5559L20.1724 11.5496L20.1655 11.5434L19.4958 12.2861ZM26.9319 13.8257L27.8867 13.5283L27.8822 13.5138L27.8772 13.4994L26.9319 13.8257ZM24.4401 10.5879L23.6987 11.2589L23.7066 11.2676L23.7147 11.2762L24.4401 10.5879ZM22.405 8.59714L23.1993 7.98961L23.1869 7.97336L23.1738 7.95763L22.405 8.59714ZM22.405 7.36821L21.6085 6.76357L21.5903 6.78764L21.5735 6.81278L22.405 7.36821ZM26.3796 1.01571V0.0157142H25.5855L25.4056 0.789134L26.3796 1.01571ZM27.3333 1.31982C27.4618 0.917364 27.566 0.25992 27.1399 -0.310199C26.7184 -0.874171 26.0392 -1 25.4863 -1V1C25.5588 1 25.6115 1.00441 25.6476 1.00958C25.6839 1.01476 25.6985 1.02001 25.6969 1.01947C25.6901 1.01704 25.6118 0.98591 25.5379 0.887163C25.4635 0.787516 25.4481 0.691953 25.4464 0.65274C25.4452 0.62315 25.4514 0.638358 25.4281 0.711609L27.3333 1.31982ZM25.4863 -1H22.5333V1H25.4863V-1ZM22.5333 -1C21.9843 -1 21.5001 -0.860976 21.1018 -0.579382C20.7115 -0.30349 20.4805 0.0549462 20.3382 0.365871L22.1567 1.19841C22.2022 1.09898 22.2384 1.06635 22.2562 1.05376C22.266 1.04687 22.3307 1 22.5333 1V-1ZM21.2474 0.782143C20.3316 0.38049 20.3317 0.380376 20.3317 0.380276C20.3317 0.38026 20.3318 0.380173 20.3318 0.38014C20.3318 0.380076 20.3318 0.380062 20.3318 0.380101C20.3318 0.380177 20.3316 0.380459 20.3314 0.380943C20.331 0.381912 20.3302 0.383694 20.3291 0.386269C20.3268 0.391421 20.3231 0.399748 20.318 0.411111C20.3078 0.43384 20.292 0.468697 20.2708 0.514561C20.2284 0.606317 20.1647 0.741952 20.0812 0.912528C19.9142 1.25408 19.6692 1.73355 19.3601 2.28005C18.7356 3.38439 17.8759 4.71449 16.8956 5.73953L18.3409 7.12189C19.4879 5.92265 20.4428 4.42846 21.101 3.26459C21.4333 2.67698 21.6968 2.16137 21.8778 1.79136C21.9684 1.60615 22.0386 1.45689 22.0867 1.35269C22.1108 1.30058 22.1293 1.25969 22.1421 1.23117C22.1485 1.21691 22.1535 1.20574 22.157 1.1978C22.1588 1.19383 22.1602 1.19066 22.1612 1.18832C22.1617 1.18715 22.1622 1.18619 22.1625 1.18543C22.1627 1.18506 22.1628 1.18473 22.1629 1.18446C22.163 1.18432 22.1631 1.18416 22.1631 1.18409C22.1632 1.18394 22.1632 1.1838 21.2474 0.782143ZM16.9346 5.70094C16.5922 6.02166 16.4038 6.17374 16.2831 6.24901C16.2314 6.28128 16.2125 6.28615 16.2177 6.28449C16.2204 6.28366 16.2256 6.28228 16.2322 6.2813C16.2387 6.28032 16.2423 6.28036 16.2413 6.28036V8.28036C17.0701 8.28036 17.6604 7.76152 18.3019 7.16049L16.9346 5.70094ZM16.2413 6.28036C16.5044 6.28036 16.6664 6.4131 16.7334 6.50166C16.8039 6.59501 16.771 6.62766 16.771 6.48964H14.771C14.771 7.3507 15.2597 8.28036 16.2413 8.28036V6.28036ZM16.771 6.48964V1.01571H14.771V6.48964H16.771ZM16.771 1.01571C16.771 0.616993 16.7236 0.0711061 16.3769 -0.371922C15.9798 -0.87954 15.4058 -1 14.9386 -1V1C15.0177 1 15.0201 1.01073 14.981 0.99605C14.9592 0.987855 14.9278 0.972975 14.893 0.947914C14.8577 0.922516 14.8267 0.892368 14.8018 0.860493C14.7524 0.797365 14.7477 0.755189 14.7539 0.782471C14.7607 0.812474 14.771 0.883237 14.771 1.01571H16.771ZM14.9386 -1H10.2947V1H14.9386V-1ZM10.2947 -1C9.34326 -1 8.54317 -0.294065 8.54317 0.635357H10.5432C10.5432 0.782855 10.4795 0.88223 10.4239 0.93398C10.3936 0.962092 10.3628 0.979705 10.3367 0.989686C10.3102 0.999846 10.2942 1 10.2947 1V-1ZM8.54317 0.635357C8.54317 1.10404 8.74346 1.44652 8.90699 1.66777C8.98382 1.77172 9.06806 1.86907 9.12872 1.93935C9.19636 2.01769 9.24965 2.07924 9.30272 2.14676C9.47203 2.36216 9.67694 2.67761 9.71822 3.38602L11.7148 3.26969C11.647 2.10525 11.2652 1.40713 10.8751 0.910833C10.7884 0.800422 10.7035 0.702915 10.6426 0.632364C10.5747 0.553736 10.54 0.512347 10.5153 0.479002C10.4759 0.425663 10.5432 0.499349 10.5432 0.635357H8.54317ZM9.71653 3.32786V7.39714H11.7165V3.32786H9.71653ZM9.71653 7.39714C9.71653 7.59391 9.70664 7.71441 9.69578 7.78384C9.68408 7.85861 9.67854 7.8246 9.723 7.74951C9.74803 7.70724 9.78709 7.65504 9.84431 7.60439C9.90215 7.55319 9.96458 7.51595 10.0239 7.4909C10.1321 7.44523 10.204 7.45143 10.1687 7.45143V9.45143C10.3211 9.45143 10.5555 9.43741 10.8016 9.3335C11.0765 9.21748 11.2948 9.02041 11.444 8.76844C11.688 8.35638 11.7165 7.83632 11.7165 7.39714H9.71653ZM10.1687 7.45143C10.3108 7.45143 10.3514 7.50373 10.2551 7.44442C10.1749 7.39504 10.0511 7.29943 9.88675 7.13829C9.5596 6.81755 9.15826 6.32318 8.72237 5.67886C7.85403 4.39533 6.92045 2.62375 6.22497 0.729918L4.34756 1.41937C5.09767 3.46197 6.10467 5.37878 7.06583 6.79953C7.54469 7.50735 8.03032 8.1191 8.48661 8.56644C8.71396 8.78934 8.95603 8.99326 9.20633 9.1474C9.4405 9.29161 9.77625 9.45143 10.1687 9.45143V7.45143ZM6.22545 0.731224C6.07505 0.31991 5.86324 -0.157454 5.45859 -0.506849C5.01181 -0.892624 4.48264 -1 3.96779 -1V1C4.09194 1 4.14919 1.01314 4.16702 1.01846C4.17633 1.02124 4.16421 1.0179 4.15152 1.00694C4.14389 1.00036 4.16175 1.01249 4.19909 1.07812C4.23831 1.14703 4.28655 1.25251 4.34708 1.41806L6.22545 0.731224ZM3.96779 -1H1.01248V1H3.96779V-1ZM1.01248 -1C0.471562 -1 -0.0928736 -0.884601 -0.508954 -0.478136C-0.936219 -0.0607445 -1 0.460229 -1 0.782143H1C1 0.743184 1.00466 0.751169 0.993801 0.78582C0.980402 0.828583 0.948807 0.893728 0.888633 0.952511C0.830107 1.00968 0.783087 1.02315 0.79171 1.0205C0.805838 1.01616 0.870539 1 1.01248 1V-1ZM-1 0.782143C-1 1.11434 -0.902252 1.59215 -0.746356 2.12674C-0.581454 2.69223 -0.325878 3.40629 0.043972 4.24154C0.78423 5.91329 1.99027 8.08856 3.8679 10.5504L5.45815 9.33748C3.67399 6.99822 2.54851 4.95796 1.87271 3.43177C1.53452 2.66804 1.31093 2.03753 1.17367 1.56684C1.10496 1.33122 1.05953 1.14126 1.03199 0.998837C1.00234 0.845542 1 0.780575 1 0.782143H-1ZM3.86095 10.5411C6.45692 14.0276 10.1722 16 13.6718 16V14C10.9098 14 7.75153 12.4174 5.4651 9.34671L3.86095 10.5411ZM13.6718 16C14.6073 16 15.4022 15.9162 15.9621 15.5649C16.2891 15.3597 16.5191 15.0767 16.6489 14.7396C16.7661 14.4351 16.7812 14.1367 16.7812 13.9254H14.7812C14.7812 14.0541 14.7673 14.0602 14.7824 14.021C14.81 13.9492 14.8648 13.8923 14.8991 13.8708C14.9073 13.8656 14.8454 13.9053 14.6292 13.9413C14.4184 13.9765 14.1121 14 13.6718 14V16ZM16.7812 13.9254V11.4471H14.7812V13.9254H16.7812ZM16.7812 11.4471C16.7812 11.3662 16.7835 11.3034 16.7871 11.2549C16.7908 11.206 16.7954 11.179 16.7976 11.1681C16.8029 11.1425 16.7909 11.2269 16.7024 11.3297C16.6577 11.3816 16.6059 11.4236 16.5532 11.4545C16.5027 11.484 16.4621 11.4972 16.443 11.5024C16.425 11.5072 16.4227 11.5059 16.4442 11.5039C16.4654 11.5019 16.5002 11.5 16.554 11.5V9.5C16.2522 9.5 15.6249 9.51571 15.1865 10.0252C14.8 10.4743 14.7812 11.072 14.7812 11.4471H16.7812ZM16.554 11.5C16.5936 11.5 17.0994 11.4718 18.8262 13.0287L20.1655 11.5434C18.3869 9.93966 17.3919 9.5 16.554 9.5V11.5ZM18.8126 13.0162C19.2954 13.4681 19.6782 13.8583 20.0028 14.1949C20.3175 14.5211 20.6088 14.8305 20.8696 15.0751C21.1355 15.3245 21.4296 15.5656 21.781 15.7376C22.1514 15.9189 22.5358 16 22.9551 16V14C22.8108 14 22.7314 13.9761 22.6603 13.9413C22.5703 13.8972 22.4455 13.8112 22.2378 13.6164C22.025 13.4168 21.788 13.1648 21.4424 12.8065C21.1069 12.4586 20.6975 12.041 20.1791 11.5559L18.8126 13.0162ZM22.9551 16H25.9082V14H22.9551V16ZM25.9082 16C26.4386 16 27.1016 15.8833 27.5627 15.3833C28.0765 14.8263 28.0675 14.1086 27.8867 13.5283L25.9772 14.1231C26.008 14.222 25.997 14.2446 26.0011 14.212C26.0035 14.1938 26.01 14.1635 26.0266 14.127C26.0433 14.09 26.0662 14.0559 26.0925 14.0274C26.1454 13.97 26.1845 13.9639 26.1551 13.9733C26.1236 13.9833 26.0462 14 25.9082 14V16ZM27.8772 13.4994C27.6855 12.9441 27.2897 12.3589 26.8457 11.797C26.3864 11.2157 25.8058 10.5743 25.1655 9.89951L23.7147 11.2762C24.3423 11.9375 24.8737 12.5272 25.2764 13.0369C25.6944 13.5659 25.9106 13.9316 25.9867 14.152L27.8772 13.4994ZM25.1815 9.91683C24.8002 9.49549 24.3338 9.06839 23.9576 8.72375C23.5347 8.3364 23.2878 8.10534 23.1993 7.98961L21.6107 9.20467C21.8361 9.4993 22.2625 9.88325 22.6066 10.1985C22.9973 10.5564 23.3915 10.9195 23.6987 11.2589L25.1815 9.91683ZM23.1738 7.95763C23.1377 7.91418 23.1155 7.88346 23.1026 7.86379C23.0897 7.8442 23.0891 7.84015 23.0934 7.85003C23.0981 7.86087 23.1078 7.88625 23.1145 7.92394C23.1215 7.96274 23.1236 8.00452 23.12 8.04599C23.1131 8.12742 23.0881 8.16628 23.1029 8.13706C23.1101 8.12299 23.1231 8.09951 23.1465 8.06191C23.17 8.02409 23.1987 7.98033 23.2366 7.92365L21.5735 6.81278C21.4515 6.9954 21.1688 7.38969 21.1273 7.87597C21.078 8.45331 21.3594 8.90389 21.6363 9.23666L23.1738 7.95763ZM22.405 7.36821C23.2015 7.97286 23.2016 7.9728 23.2016 7.97272C23.2017 7.97267 23.2017 7.97257 23.2018 7.97247C23.202 7.97226 23.2022 7.97199 23.2025 7.97164C23.203 7.97095 23.2037 7.96996 23.2047 7.9687C23.2066 7.96617 23.2094 7.96251 23.213 7.95776C23.2202 7.94824 23.2307 7.93431 23.2443 7.91622C23.2716 7.88004 23.3113 7.82719 23.3617 7.75959C23.4627 7.62443 23.6068 7.43015 23.7807 7.19219C24.1282 6.71683 24.5965 6.06459 25.0777 5.35969C25.5575 4.65694 26.0576 3.89094 26.465 3.19032C26.8523 2.52427 27.2219 1.8082 27.3536 1.24229L25.4056 0.789134C25.3499 1.0284 25.1291 1.50899 24.736 2.185C24.3631 2.82645 23.893 3.54792 23.4259 4.23201C22.9604 4.91394 22.5053 5.54788 22.166 6.01199C21.9966 6.24377 21.8566 6.43256 21.7592 6.56302C21.7105 6.62823 21.6725 6.67884 21.6468 6.71291C21.634 6.72994 21.6242 6.74284 21.6178 6.75137C21.6146 6.75563 21.6122 6.7588 21.6106 6.76084C21.6098 6.76186 21.6093 6.7626 21.6089 6.76306C21.6087 6.76329 21.6086 6.76344 21.6086 6.76353C21.6085 6.76357 21.6085 6.76358 21.6085 6.7636C21.6085 6.76359 21.6085 6.76357 22.405 7.36821ZM26.3796 2.01571H26.3807V0.0157142H26.3796V2.01571Z" fill="#BCBEC0" mask="url(#path-1-inside-1_396_1309)"/>
</svg>
