<svg width="165" height="28" viewBox="0 0 165 28" fill="none" xmlns="http://www.w3.org/2000/svg">
<path d="M13.9996 0.666607C12.8023 0.669925 11.6109 0.835315 10.4579 1.15827L11.0996 2.70827C13.5918 2.04839 16.232 2.22832 18.6117 3.2202C20.9914 4.21209 22.9778 5.96063 24.2635 8.19524C25.5492 10.4298 26.0626 13.0259 25.7242 15.5817C25.3858 18.1375 24.2145 20.5105 22.3915 22.3335C20.5685 24.1565 18.1955 25.3278 15.6397 25.6662C13.0839 26.0047 10.4878 25.4913 8.25323 24.2055C6.01862 22.9198 4.27007 20.9334 3.27819 18.5537C2.2863 16.1741 2.10638 13.5338 2.76626 11.0416L1.21626 10.3916C0.459851 13.0824 0.56821 15.9429 1.52602 18.5688C2.48383 21.1947 4.24266 23.4532 6.55391 25.025C8.86517 26.5969 11.612 27.4027 14.4061 27.3285C17.2002 27.2543 19.9004 26.3038 22.1249 24.6115C24.3495 22.9191 25.986 20.5705 26.803 17.8974C27.6201 15.2244 27.5765 12.3622 26.6783 9.71531C25.7801 7.06844 24.0728 4.77076 21.7977 3.14702C19.5226 1.52329 16.7947 0.655603 13.9996 0.666607Z" fill="white"/>
<path d="M5.20829 12.0834C4.79236 13.9839 5.00286 15.9679 5.8083 17.7388C6.61373 19.5097 7.97082 20.9723 9.6766 21.9078C11.3824 22.8433 13.3452 23.2014 15.2714 22.9287C17.1976 22.6559 18.9838 21.7669 20.3628 20.3945C21.7418 19.0222 22.6394 17.2404 22.9215 15.3155C23.2036 13.3905 22.8549 11.4261 21.9277 9.71578C21.0004 8.00551 19.5444 6.64137 17.7774 5.82738C16.0104 5.0134 14.0274 4.79332 12.125 5.20006L12.6416 6.50006C14.2602 6.19702 15.9334 6.42087 17.4154 7.13876C18.8974 7.85665 20.1103 9.03076 20.8759 10.4887C21.6415 11.9467 21.9195 13.6117 21.6691 15.2393C21.4187 16.8669 20.6532 18.3713 19.4848 19.5318C18.3164 20.6922 16.8068 21.4475 15.1775 21.6868C13.5482 21.9261 11.8852 21.6368 10.4325 20.8613C8.97975 20.0858 7.81393 18.865 7.10614 17.3781C6.39836 15.8912 6.1859 14.2166 6.49996 12.6001L5.20829 12.0834Z" fill="white"/>
<path d="M13.9993 17.4083C13.164 17.396 12.3624 17.0765 11.7476 16.5109C11.1328 15.9452 10.7478 15.1731 10.666 14.3417L9.30762 13.775V14C9.30767 14.9399 9.58707 15.8586 10.1103 16.6394C10.6336 17.4202 11.3771 18.0279 12.2465 18.3853C13.1158 18.7427 14.0718 18.8336 14.9929 18.6466C15.914 18.4595 16.7588 18.0029 17.4199 17.3348C18.081 16.6666 18.5286 15.8171 18.7059 14.894C18.8831 13.9709 18.7821 13.016 18.4155 12.1505C18.0489 11.285 17.4334 10.548 16.6471 10.033C15.8608 9.51806 14.9392 9.24841 13.9993 9.25832H13.7993L14.3576 10.6667C15.1905 10.793 15.9466 11.2247 16.4787 11.8779C17.0107 12.531 17.2807 13.3588 17.236 14.2C17.1913 15.0412 16.8351 15.8357 16.2368 16.4288C15.6385 17.0218 14.8409 17.371 13.9993 17.4083Z" fill="#63F38B"/>
<path d="M5.83301 10.1166C5.90994 10.1951 6.01478 10.24 6.12468 10.2416H9.16635L13.6413 14.7166C13.7983 14.8746 14.0115 14.9638 14.2342 14.9646C14.4569 14.9654 14.6708 14.8777 14.8288 14.7208C14.9869 14.5639 15.0761 14.3506 15.0769 14.1279C15.0777 13.9052 14.9899 13.6913 14.833 13.5333L10.2747 8.99994V6.09161C10.2731 5.9817 10.2282 5.87687 10.1497 5.79994L5.49135 1.14161C5.43311 1.08451 5.35939 1.04576 5.27934 1.03015C5.19928 1.01455 5.11641 1.02279 5.04099 1.05385C4.96558 1.0849 4.90093 1.1374 4.85507 1.20485C4.80922 1.2723 4.78416 1.35172 4.78301 1.43328V4.76661H1.49968C1.41813 4.76775 1.33871 4.79281 1.27126 4.83867C1.20381 4.88453 1.15131 4.94917 1.12025 5.02459C1.0892 5.10001 1.08096 5.18288 1.09656 5.26293C1.11216 5.34299 1.15091 5.4167 1.20801 5.47494L5.83301 10.1166Z" fill="#63F38B"/>
<path d="M45.2497 20.0001H43.6117L37.0237 10.0101V20.0001H35.3857V7.43605H37.0237L43.6117 17.4081V7.43605H45.2497V20.0001Z" fill="white"/>
<path d="M53.244 20.1621C52.32 20.1621 51.48 19.9521 50.724 19.5321C49.98 19.1121 49.392 18.5181 48.96 17.7501C48.54 16.9701 48.33 16.0701 48.33 15.0501C48.33 14.0421 48.546 13.1541 48.978 12.3861C49.422 11.6061 50.022 11.0121 50.778 10.6041C51.534 10.1841 52.38 9.97405 53.316 9.97405C54.252 9.97405 55.098 10.1841 55.854 10.6041C56.61 11.0121 57.204 11.6001 57.636 12.3681C58.08 13.1361 58.302 14.0301 58.302 15.0501C58.302 16.0701 58.074 16.9701 57.618 17.7501C57.174 18.5181 56.568 19.1121 55.8 19.5321C55.032 19.9521 54.18 20.1621 53.244 20.1621ZM53.244 18.7221C53.832 18.7221 54.384 18.5841 54.9 18.3081C55.416 18.0321 55.83 17.6181 56.142 17.0661C56.466 16.5141 56.628 15.8421 56.628 15.0501C56.628 14.2581 56.472 13.5861 56.16 13.0341C55.848 12.4821 55.44 12.0741 54.936 11.8101C54.432 11.5341 53.886 11.3961 53.298 11.3961C52.698 11.3961 52.146 11.5341 51.642 11.8101C51.15 12.0741 50.754 12.4821 50.454 13.0341C50.154 13.5861 50.004 14.2581 50.004 15.0501C50.004 15.8541 50.148 16.5321 50.436 17.0841C50.736 17.6361 51.132 18.0501 51.624 18.3261C52.116 18.5901 52.656 18.7221 53.244 18.7221Z" fill="white"/>
<path d="M64.8477 20.1621C64.0917 20.1621 63.4137 20.0361 62.8137 19.7841C62.2137 19.5201 61.7397 19.1601 61.3917 18.7041C61.0437 18.2361 60.8517 17.7021 60.8157 17.1021H62.5077C62.5557 17.5941 62.7837 17.9961 63.1917 18.3081C63.6117 18.6201 64.1577 18.7761 64.8297 18.7761C65.4537 18.7761 65.9457 18.6381 66.3057 18.3621C66.6657 18.0861 66.8457 17.7381 66.8457 17.3181C66.8457 16.8861 66.6537 16.5681 66.2697 16.3641C65.8857 16.1481 65.2917 15.9381 64.4877 15.7341C63.7557 15.5421 63.1557 15.3501 62.6877 15.1581C62.2317 14.9541 61.8357 14.6601 61.4997 14.2761C61.1757 13.8801 61.0137 13.3641 61.0137 12.7281C61.0137 12.2241 61.1637 11.7621 61.4637 11.3421C61.7637 10.9221 62.1897 10.5921 62.7417 10.3521C63.2937 10.1001 63.9237 9.97405 64.6317 9.97405C65.7237 9.97405 66.6057 10.2501 67.2777 10.8021C67.9497 11.3541 68.3097 12.1101 68.3577 13.0701H66.7197C66.6837 12.5541 66.4737 12.1401 66.0897 11.8281C65.7177 11.5161 65.2137 11.3601 64.5777 11.3601C63.9897 11.3601 63.5217 11.4861 63.1737 11.7381C62.8257 11.9901 62.6517 12.3201 62.6517 12.7281C62.6517 13.0521 62.7537 13.3221 62.9577 13.5381C63.1737 13.7421 63.4377 13.9101 63.7497 14.0421C64.0737 14.1621 64.5177 14.3001 65.0817 14.4561C65.7897 14.6481 66.3657 14.8401 66.8097 15.0321C67.2537 15.2121 67.6317 15.4881 67.9437 15.8601C68.2677 16.2321 68.4357 16.7181 68.4477 17.3181C68.4477 17.8581 68.2977 18.3441 67.9977 18.7761C67.6977 19.2081 67.2717 19.5501 66.7197 19.8021C66.1797 20.0421 65.5557 20.1621 64.8477 20.1621Z" fill="white"/>
<path d="M73.658 11.4861V17.3001C73.658 17.7801 73.76 18.1221 73.964 18.3261C74.168 18.5181 74.522 18.6141 75.026 18.6141H76.232V20.0001H74.756C73.844 20.0001 73.16 19.7901 72.704 19.3701C72.248 18.9501 72.02 18.2601 72.02 17.3001V11.4861H70.742V10.1361H72.02V7.65205H73.658V10.1361H76.232V11.4861H73.658Z" fill="white"/>
<path d="M80.7546 11.7381C81.0426 11.1741 81.4506 10.7361 81.9786 10.4241C82.5186 10.1121 83.1726 9.95605 83.9406 9.95605V11.6481H83.5086C81.6726 11.6481 80.7546 12.6441 80.7546 14.6361V20.0001H79.1166V10.1361H80.7546V11.7381Z" fill="white"/>
<path d="M86.1194 15.0321C86.1194 14.0241 86.3234 13.1421 86.7314 12.3861C87.1394 11.6181 87.6974 11.0241 88.4054 10.6041C89.1254 10.1841 89.9234 9.97405 90.7994 9.97405C91.6634 9.97405 92.4134 10.1601 93.0494 10.5321C93.6854 10.9041 94.1594 11.3721 94.4714 11.9361V10.1361H96.1274V20.0001H94.4714V18.1641C94.1474 18.7401 93.6614 19.2201 93.0134 19.6041C92.3774 19.9761 91.6334 20.1621 90.7814 20.1621C89.9054 20.1621 89.1134 19.9461 88.4054 19.5141C87.6974 19.0821 87.1394 18.4761 86.7314 17.6961C86.3234 16.9161 86.1194 16.0281 86.1194 15.0321ZM94.4714 15.0501C94.4714 14.3061 94.3214 13.6581 94.0214 13.1061C93.7214 12.5541 93.3134 12.1341 92.7974 11.8461C92.2934 11.5461 91.7354 11.3961 91.1234 11.3961C90.5114 11.3961 89.9534 11.5401 89.4494 11.8281C88.9454 12.1161 88.5434 12.5361 88.2434 13.0881C87.9434 13.6401 87.7934 14.2881 87.7934 15.0321C87.7934 15.7881 87.9434 16.4481 88.2434 17.0121C88.5434 17.5641 88.9454 17.9901 89.4494 18.2901C89.9534 18.5781 90.5114 18.7221 91.1234 18.7221C91.7354 18.7221 92.2934 18.5781 92.7974 18.2901C93.3134 17.9901 93.7214 17.5641 94.0214 17.0121C94.3214 16.4481 94.4714 15.7941 94.4714 15.0501Z" fill="white"/>
<path d="M99.1835 15.0321C99.1835 14.0241 99.3875 13.1421 99.7955 12.3861C100.204 11.6181 100.762 11.0241 101.47 10.6041C102.19 10.1841 102.994 9.97405 103.882 9.97405C104.65 9.97405 105.364 10.1541 106.024 10.5141C106.684 10.8621 107.188 11.3241 107.536 11.9001V6.68005H109.192V20.0001H107.536V18.1461C107.212 18.7341 106.732 19.2201 106.096 19.6041C105.46 19.9761 104.716 20.1621 103.864 20.1621C102.988 20.1621 102.19 19.9461 101.47 19.5141C100.762 19.0821 100.204 18.4761 99.7955 17.6961C99.3875 16.9161 99.1835 16.0281 99.1835 15.0321ZM107.536 15.0501C107.536 14.3061 107.386 13.6581 107.086 13.1061C106.786 12.5541 106.378 12.1341 105.862 11.8461C105.358 11.5461 104.8 11.3961 104.188 11.3961C103.576 11.3961 103.018 11.5401 102.514 11.8281C102.01 12.1161 101.608 12.5361 101.308 13.0881C101.008 13.6401 100.858 14.2881 100.858 15.0321C100.858 15.7881 101.008 16.4481 101.308 17.0121C101.608 17.5641 102.01 17.9901 102.514 18.2901C103.018 18.5781 103.576 18.7221 104.188 18.7221C104.8 18.7221 105.358 18.5781 105.862 18.2901C106.378 17.9901 106.786 17.5641 107.086 17.0121C107.386 16.4481 107.536 15.7941 107.536 15.0501Z" fill="white"/>
<path d="M112.248 15.0321C112.248 14.0241 112.452 13.1421 112.86 12.3861C113.268 11.6181 113.826 11.0241 114.534 10.6041C115.254 10.1841 116.052 9.97405 116.928 9.97405C117.792 9.97405 118.542 10.1601 119.178 10.5321C119.814 10.9041 120.288 11.3721 120.6 11.9361V10.1361H122.256V20.0001H120.6V18.1641C120.276 18.7401 119.79 19.2201 119.142 19.6041C118.506 19.9761 117.762 20.1621 116.91 20.1621C116.034 20.1621 115.242 19.9461 114.534 19.5141C113.826 19.0821 113.268 18.4761 112.86 17.6961C112.452 16.9161 112.248 16.0281 112.248 15.0321ZM120.6 15.0501C120.6 14.3061 120.45 13.6581 120.15 13.1061C119.85 12.5541 119.442 12.1341 118.926 11.8461C118.422 11.5461 117.864 11.3961 117.252 11.3961C116.64 11.3961 116.082 11.5401 115.578 11.8281C115.074 12.1161 114.672 12.5361 114.372 13.0881C114.072 13.6401 113.922 14.2881 113.922 15.0321C113.922 15.7881 114.072 16.4481 114.372 17.0121C114.672 17.5641 115.074 17.9901 115.578 18.2901C116.082 18.5781 116.64 18.7221 117.252 18.7221C117.864 18.7221 118.422 18.5781 118.926 18.2901C119.442 17.9901 119.85 17.5641 120.15 17.0121C120.45 16.4481 120.6 15.7941 120.6 15.0501Z" fill="white"/>
<path d="M137.786 9.95605C138.554 9.95605 139.238 10.1181 139.838 10.4421C140.438 10.7541 140.912 11.2281 141.26 11.8641C141.608 12.5001 141.782 13.2741 141.782 14.1861V20.0001H140.162V14.4201C140.162 13.4361 139.916 12.6861 139.424 12.1701C138.944 11.6421 138.29 11.3781 137.462 11.3781C136.61 11.3781 135.932 11.6541 135.428 12.2061C134.924 12.7461 134.672 13.5321 134.672 14.5641V20.0001H133.052V14.4201C133.052 13.4361 132.806 12.6861 132.314 12.1701C131.834 11.6421 131.18 11.3781 130.352 11.3781C129.5 11.3781 128.822 11.6541 128.318 12.2061C127.814 12.7461 127.562 13.5321 127.562 14.5641V20.0001H125.924V10.1361H127.562V11.5581C127.886 11.0421 128.318 10.6461 128.858 10.3701C129.41 10.0941 130.016 9.95605 130.676 9.95605C131.504 9.95605 132.236 10.1421 132.872 10.5141C133.508 10.8861 133.982 11.4321 134.294 12.1521C134.57 11.4561 135.026 10.9161 135.662 10.5321C136.298 10.1481 137.006 9.95605 137.786 9.95605Z" fill="white"/>
<path d="M154.117 10.1361V20.0001H152.479V18.5421C152.167 19.0461 151.729 19.4421 151.165 19.7301C150.613 20.0061 150.001 20.1441 149.329 20.1441C148.561 20.1441 147.871 19.9881 147.259 19.6761C146.647 19.3521 146.161 18.8721 145.801 18.2361C145.453 17.6001 145.279 16.8261 145.279 15.9141V10.1361H146.899V15.6981C146.899 16.6701 147.145 17.4201 147.637 17.9481C148.129 18.4641 148.801 18.7221 149.653 18.7221C150.529 18.7221 151.219 18.4521 151.723 17.9121C152.227 17.3721 152.479 16.5861 152.479 15.5541V10.1361H154.117Z" fill="white"/>
<path d="M161.274 20.1621C160.518 20.1621 159.84 20.0361 159.24 19.7841C158.64 19.5201 158.166 19.1601 157.818 18.7041C157.47 18.2361 157.278 17.7021 157.242 17.1021H158.934C158.982 17.5941 159.21 17.9961 159.618 18.3081C160.038 18.6201 160.584 18.7761 161.256 18.7761C161.88 18.7761 162.372 18.6381 162.732 18.3621C163.092 18.0861 163.272 17.7381 163.272 17.3181C163.272 16.8861 163.08 16.5681 162.696 16.3641C162.312 16.1481 161.718 15.9381 160.914 15.7341C160.182 15.5421 159.582 15.3501 159.114 15.1581C158.658 14.9541 158.262 14.6601 157.926 14.2761C157.602 13.8801 157.44 13.3641 157.44 12.7281C157.44 12.2241 157.59 11.7621 157.89 11.3421C158.19 10.9221 158.616 10.5921 159.168 10.3521C159.72 10.1001 160.35 9.97405 161.058 9.97405C162.15 9.97405 163.032 10.2501 163.704 10.8021C164.376 11.3541 164.736 12.1101 164.784 13.0701H163.146C163.11 12.5541 162.9 12.1401 162.516 11.8281C162.144 11.5161 161.64 11.3601 161.004 11.3601C160.416 11.3601 159.948 11.4861 159.6 11.7381C159.252 11.9901 159.078 12.3201 159.078 12.7281C159.078 13.0521 159.18 13.3221 159.384 13.5381C159.6 13.7421 159.864 13.9101 160.176 14.0421C160.5 14.1621 160.944 14.3001 161.508 14.4561C162.216 14.6481 162.792 14.8401 163.236 15.0321C163.68 15.2121 164.058 15.4881 164.37 15.8601C164.694 16.2321 164.862 16.7181 164.874 17.3181C164.874 17.8581 164.724 18.3441 164.424 18.7761C164.124 19.2081 163.698 19.5501 163.146 19.8021C162.606 20.0421 161.982 20.1621 161.274 20.1621Z" fill="white"/>
</svg>
