<svg width="728" height="243" viewBox="0 0 728 243" fill="none" xmlns="http://www.w3.org/2000/svg">
<g clip-path="url(#clip0_409_4310)">
<path d="M39.732 14.1412C39.732 14.7393 39.5226 15.2001 39.1038 15.5234C38.6876 15.8441 38.0911 16.0044 37.314 16.0044H36.6031V18.3284H35.9004V12.4194H37.4669C38.977 12.4194 39.732 12.9934 39.732 14.1412ZM36.6031 15.4143H37.2355C37.8583 15.4143 38.3088 15.3159 38.5871 15.1193C38.8654 14.9226 39.0045 14.6073 39.0045 14.1735C39.0045 13.7828 38.8736 13.4918 38.6119 13.3005C38.3501 13.1092 37.9423 13.0135 37.3884 13.0135H36.6031V15.4143ZM43.2346 18.4092C42.565 18.4092 42.036 18.2098 41.6474 17.811C41.2616 17.4122 41.0688 16.8585 41.0688 16.1499C41.0688 15.4358 41.2479 14.8686 41.6061 14.4483C41.9671 14.028 42.4507 13.8178 43.0569 13.8178C43.6246 13.8178 44.0737 14.0011 44.4044 14.3675C44.7351 14.7312 44.9004 15.2122 44.9004 15.8104V16.2348H41.7797C41.7934 16.7548 41.9271 17.1495 42.1806 17.419C42.4369 17.6884 42.7965 17.8231 43.2594 17.8231C43.7472 17.8231 44.2294 17.7235 44.7061 17.524V18.1222C44.4636 18.2246 44.2335 18.2974 44.0158 18.3405C43.8009 18.3863 43.5405 18.4092 43.2346 18.4092ZM43.0486 14.3796C42.6849 14.3796 42.3942 14.4955 42.1765 14.7272C41.9615 14.9589 41.8348 15.2796 41.7962 15.6891H44.1646C44.1646 15.2661 44.0682 14.9428 43.8753 14.7191C43.6824 14.4928 43.4068 14.3796 43.0486 14.3796ZM49.2255 14.4726H47.1837V18.3284H46.4975V13.8987H49.2255V14.4726ZM51.1947 13.8987V16.7076L51.1657 17.4432L51.1533 17.6736L53.6044 13.8987H54.46V18.3284H53.8193V15.6204L53.8317 15.0869L53.8524 14.5615L51.4055 18.3284H50.5499V13.8987H51.1947ZM58.1486 18.4092C57.4928 18.4092 56.9844 18.2125 56.6234 17.8191C56.2652 17.423 56.0861 16.8639 56.0861 16.1418C56.0861 15.4008 56.2679 14.8283 56.6317 14.4241C56.9982 14.0199 57.519 13.8178 58.1941 13.8178C58.4118 13.8178 58.6295 13.8407 58.8471 13.8865C59.0648 13.9324 59.2357 13.9862 59.3597 14.0482L59.1489 14.6181C58.9973 14.5588 58.832 14.5103 58.6529 14.4726C58.4738 14.4322 58.3153 14.412 58.1775 14.412C57.2572 14.412 56.797 14.9859 56.797 16.1337C56.797 16.678 56.9086 17.0956 57.1318 17.3866C57.3578 17.6776 57.6912 17.8231 58.1321 17.8231C58.5096 17.8231 58.8967 17.7437 59.2936 17.5847V18.1788C58.9904 18.3324 58.6088 18.4092 58.1486 18.4092ZM63.8504 14.4726H62.3787V18.3284H61.6924V14.4726H60.2376V13.8987H63.8504V14.4726ZM67.2782 18.4092C66.9837 18.4092 66.7134 18.3567 66.4685 18.2516C66.2255 18.1438 66.0217 17.9794 65.8566 17.7585H65.807C65.8397 18.0171 65.8566 18.2623 65.8566 18.4941V20.3169H65.1703V13.8987H65.7284L65.8234 14.5049H65.8566C66.0326 14.2624 66.2381 14.0873 66.4721 13.9795C66.7068 13.8717 66.9752 13.8178 67.2782 13.8178C67.8792 13.8178 68.3417 14.0186 68.667 14.42C68.9954 14.8215 69.1592 15.3847 69.1592 16.1095C69.1592 16.8369 68.9923 17.4028 68.6592 17.807C68.3284 18.2084 67.8683 18.4092 67.2782 18.4092ZM67.179 14.3877C66.7164 14.3877 66.3815 14.513 66.1747 14.7636C65.9679 15.0142 65.8621 15.4129 65.8566 15.9599V16.1095C65.8566 16.7319 65.9624 17.1778 66.1747 17.4473C66.3869 17.714 66.7273 17.8474 67.1959 17.8474C67.5871 17.8474 67.8931 17.6925 68.1132 17.3826C68.3363 17.0727 68.4482 16.6457 68.4482 16.1014C68.4482 15.549 68.3363 15.126 68.1132 14.8323C67.8931 14.5359 67.5817 14.3877 67.179 14.3877ZM73.5708 18.3284L73.4347 17.6979H73.4015C73.1753 17.9754 72.9498 18.164 72.7236 18.2637C72.5005 18.3607 72.2206 18.4092 71.8844 18.4092C71.4351 18.4092 71.0826 18.296 70.8262 18.0697C70.5729 17.8434 70.4459 17.5214 70.4459 17.1037C70.4459 16.2092 71.1775 15.7403 72.6408 15.6972L73.4099 15.673V15.3981C73.4099 15.0506 73.3325 14.7946 73.1783 14.6302C73.0266 14.4632 72.7829 14.3796 72.4467 14.3796C72.0694 14.3796 71.6419 14.4928 71.1655 14.7191L70.9544 14.2058C71.1775 14.0873 71.4218 13.9943 71.6861 13.927C71.9533 13.8596 72.2206 13.8259 72.4878 13.8259C73.0284 13.8259 73.4274 13.9431 73.6868 14.1775C73.9487 14.412 74.0793 14.7878 74.0793 15.3052V18.3284H73.5708ZM72.021 17.8555C72.4479 17.8555 72.7829 17.741 73.0254 17.5119C73.2708 17.2829 73.393 16.9623 73.393 16.55V16.1499L72.7073 16.1782C72.1613 16.197 71.7677 16.2806 71.5252 16.4288C71.2852 16.5743 71.1655 16.8019 71.1655 17.1118C71.1655 17.3543 71.2398 17.5389 71.3886 17.6655C71.5403 17.7922 71.7508 17.8555 72.021 17.8555ZM80.3392 19.8601H79.6529V18.3284H75.9204V13.8987H76.6067V17.7504H79.012V13.8987H79.6983V17.7504H80.3392V19.8601ZM82.2874 13.8987V16.7076L82.2584 17.4432L82.2463 17.6736L84.6969 13.8987H85.5525V18.3284H84.9122V15.6204L84.9243 15.0869L84.9454 14.5615L82.4984 18.3284H81.6428V13.8987H82.2874ZM87.6585 18.3284H86.8561L88.1586 16.4571C87.8085 16.3816 87.54 16.2361 87.3526 16.0206C87.1675 15.8023 87.0756 15.5288 87.0756 15.2001C87.0756 14.7959 87.2147 14.478 87.4928 14.2462C87.771 14.0145 88.1598 13.8987 88.6586 13.8987H90.6757V18.3284H89.9894V16.5581H88.8448L87.6585 18.3284ZM87.745 15.2082C87.745 15.7201 88.1253 15.9761 88.886 15.9761H89.9894V14.4807H88.7451C88.0788 14.4807 87.745 14.7231 87.745 15.2082Z" fill="white"/>
<path d="M63.1862 93.1205C80.885 93.1205 95.2327 79.091 95.2327 61.7847C95.2327 44.4785 80.885 30.449 63.1862 30.449C45.4874 30.449 31.1396 44.4785 31.1396 61.7847C31.1396 79.091 45.4874 93.1205 63.1862 93.1205Z" stroke="#53BA70" stroke-width="3"/>
<g filter="url(#filter0_f_409_4310)">
<path d="M63.1862 93.1205C80.885 93.1205 95.2327 79.091 95.2327 61.7847C95.2327 44.4785 80.885 30.449 63.1862 30.449C45.4874 30.449 31.1396 44.4785 31.1396 61.7847C31.1396 79.091 45.4874 93.1205 63.1862 93.1205Z" stroke="#53BA70" stroke-width="3"/>
</g>
<g filter="url(#filter1_f_409_4310)">
<path d="M63.1862 93.1205C80.885 93.1205 95.2327 79.091 95.2327 61.7847C95.2327 44.4785 80.885 30.449 63.1862 30.449C45.4874 30.449 31.1396 44.4785 31.1396 61.7847C31.1396 79.091 45.4874 93.1205 63.1862 93.1205Z" stroke="#53BA70" stroke-width="3"/>
</g>
<g filter="url(#filter2_f_409_4310)">
<path d="M63.1862 93.1205C80.885 93.1205 95.2327 79.091 95.2327 61.7847C95.2327 44.4785 80.885 30.449 63.1862 30.449C45.4874 30.449 31.1396 44.4785 31.1396 61.7847C31.1396 79.091 45.4874 93.1205 63.1862 93.1205Z" stroke="#53BA70" stroke-width="3"/>
</g>
<g filter="url(#filter3_f_409_4310)">
<path d="M63.1862 93.1205C80.885 93.1205 95.2327 79.091 95.2327 61.7847C95.2327 44.4785 80.885 30.449 63.1862 30.449C45.4874 30.449 31.1396 44.4785 31.1396 61.7847C31.1396 79.091 45.4874 93.1205 63.1862 93.1205Z" stroke="#53BA70" stroke-width="3"/>
</g>
<path d="M63.4888 81.5913C74.8428 81.5913 84.047 72.5913 84.047 61.4892C84.047 50.387 74.8428 41.387 63.4888 41.387C52.1349 41.387 42.9307 50.387 42.9307 61.4892C42.9307 72.5913 52.1349 81.5913 63.4888 81.5913Z" fill="#292929" fill-opacity="0.3"/>
<path d="M54.7139 60.983C54.7139 59.3559 54.9848 58.0883 55.5265 57.1801C56.0683 56.2625 57.0164 55.8037 58.3708 55.8037C59.7155 55.8037 60.6588 56.2625 61.2006 57.1801C61.7423 58.0883 62.0132 59.3559 62.0132 60.983C62.0132 62.6385 61.7423 63.925 61.2006 64.8426C60.6588 65.7602 59.7155 66.219 58.3708 66.219C57.0164 66.219 56.0683 65.7602 55.5265 64.8426C54.9848 63.925 54.7139 62.6385 54.7139 60.983ZM60.7072 60.983C60.7072 60.16 60.6491 59.4647 60.533 58.8971C60.4266 58.32 60.1993 57.8565 59.851 57.5065C59.5124 57.1565 59.019 56.9815 58.3708 56.9815C57.7129 56.9815 57.2099 57.1565 56.8616 57.5065C56.523 57.8565 56.2956 58.32 56.1795 58.8971C56.0731 59.4647 56.0199 60.16 56.0199 60.983C56.0199 61.8344 56.0731 62.5486 56.1795 63.1256C56.2956 63.7027 56.523 64.1662 56.8616 64.5162C57.2099 64.8663 57.7129 65.0413 58.3708 65.0413C59.019 65.0413 59.5124 64.8663 59.851 64.5162C60.1993 64.1662 60.4266 63.7027 60.533 63.1256C60.6491 62.5486 60.7072 61.8344 60.7072 60.983ZM64.9289 57.1375V55.9598H67.657V66.219H66.322V57.1375H64.9289ZM72.0154 66.3041C71.7638 66.3041 71.551 66.219 71.3769 66.0487C71.2027 65.8785 71.1156 65.6703 71.1156 65.4244C71.1156 65.1784 71.2027 64.9703 71.3769 64.8C71.551 64.6298 71.7638 64.5446 72.0154 64.5446C72.2572 64.5446 72.4604 64.6298 72.6249 64.8C72.799 64.9703 72.8861 65.1784 72.8861 65.4244C72.8861 65.6703 72.799 65.8785 72.6249 66.0487C72.4604 66.219 72.2572 66.3041 72.0154 66.3041Z" fill="white"/>
<path d="M33.4824 223.493H35.1895C35.9914 223.493 36.5714 223.61 36.9297 223.844C37.2879 224.079 37.467 224.449 37.467 224.955C37.467 225.306 37.3664 225.596 37.1652 225.824C36.9668 226.051 36.6761 226.198 36.2931 226.265V226.306C37.2107 226.459 37.6695 226.931 37.6695 227.72C37.6695 228.248 37.4863 228.661 37.1198 228.957C36.7561 229.253 36.2463 229.401 35.5905 229.401H33.4824V223.493ZM34.1851 226.023H35.3424C35.8384 226.023 36.1953 225.947 36.413 225.796C36.6307 225.643 36.7395 225.385 36.7395 225.025C36.7395 224.693 36.6183 224.455 36.3758 224.309C36.1333 224.161 35.7475 224.087 35.2184 224.087H34.1851V226.023ZM34.1851 226.605V228.816H35.4458C35.9335 228.816 36.3 228.724 36.5453 228.541C36.7932 228.354 36.9173 228.065 36.9173 227.672C36.9173 227.305 36.7905 227.036 36.537 226.863C36.2863 226.691 35.9032 226.605 35.3879 226.605H34.1851ZM39.9776 226.802H41.2135C41.7894 226.802 42.2151 226.908 42.4907 227.118C42.769 227.326 42.9081 227.637 42.9081 228.052C42.9081 228.496 42.7607 228.833 42.4658 229.062C42.1738 229.289 41.7426 229.401 41.1721 229.401H39.2914V224.972H39.9776V226.802ZM44.3548 229.401H43.6687V224.972H44.3548V229.401ZM39.9776 227.381V228.84H41.1391C41.8665 228.84 42.2303 228.59 42.2303 228.092C42.2303 227.844 42.1462 227.664 41.9781 227.55C41.81 227.437 41.5235 227.381 41.1184 227.381H39.9776ZM46.0015 226.746C46.0015 225.776 46.1476 225.02 46.4397 224.479C46.7318 223.934 47.1947 223.595 47.8285 223.46C48.6166 223.296 49.311 223.163 49.9117 223.06L50.0398 223.65C49.0836 223.807 48.4003 223.93 47.9897 224.022C47.5901 224.111 47.2898 224.321 47.0886 224.653C46.8902 224.984 46.7814 225.435 46.7621 226.007H46.8117C46.9825 225.78 47.203 225.602 47.473 225.473C47.7431 225.344 48.0255 225.279 48.3204 225.279C48.877 225.279 49.311 225.456 49.6224 225.809C49.9338 226.161 50.0895 226.65 50.0895 227.275C50.0895 227.968 49.909 228.51 49.5479 228.9C49.187 229.289 48.6841 229.482 48.0393 229.482C47.4028 229.482 46.904 229.244 46.543 228.767C46.182 228.29 46.0015 227.617 46.0015 226.746ZM48.1013 228.921C48.9417 228.921 49.362 228.396 49.362 227.348C49.362 226.349 48.9803 225.849 48.217 225.849C48.0076 225.849 47.8051 225.892 47.6094 225.978C47.4165 226.062 47.2388 226.173 47.0763 226.313C46.9164 226.454 46.7924 226.598 46.7042 226.746C46.7042 227.455 46.8185 227.995 47.0473 228.367C47.276 228.736 47.6273 228.921 48.1013 228.921ZM55.6215 227.183C55.6215 227.904 55.4356 228.469 55.0635 228.876C54.6915 229.28 54.1776 229.482 53.5218 229.482C53.1167 229.482 52.7571 229.389 52.443 229.203C52.1288 229.018 51.8864 228.751 51.7155 228.403C51.5447 228.056 51.4592 227.648 51.4592 227.183C51.4592 226.461 51.6438 225.899 52.0131 225.497C52.3824 225.093 52.8949 224.891 53.5507 224.891C54.1845 224.891 54.6874 225.097 55.0594 225.509C55.4342 225.921 55.6215 226.48 55.6215 227.183ZM52.1702 227.183C52.1702 227.748 52.2859 228.179 52.5174 228.476C52.7488 228.772 53.0891 228.921 53.5383 228.921C53.9875 228.921 54.3278 228.774 54.5592 228.48C54.7935 228.184 54.9106 227.751 54.9106 227.183C54.9106 226.62 54.7935 226.192 54.5592 225.901C54.3278 225.607 53.9847 225.461 53.5301 225.461C53.0809 225.461 52.742 225.605 52.5132 225.893C52.2845 226.182 52.1702 226.611 52.1702 227.183ZM59.3597 229.482C59.0649 229.482 58.7948 229.43 58.5496 229.325C58.3071 229.217 58.1032 229.053 57.9378 228.832H57.8883C57.9213 229.09 57.9378 229.335 57.9378 229.567V231.39H57.2517V224.972H57.8097L57.9048 225.578H57.9378C58.1142 225.336 58.3195 225.16 58.5537 225.053C58.788 224.945 59.0566 224.891 59.3597 224.891C59.9605 224.891 60.4234 225.092 60.7486 225.493C61.0763 225.895 61.2401 226.458 61.2401 227.183C61.2401 227.91 61.0739 228.476 60.7401 228.88C60.4096 229.281 59.9495 229.482 59.3597 229.482ZM59.2605 225.461C58.7976 225.461 58.4628 225.586 58.2561 225.837C58.0495 226.088 57.9433 226.486 57.9378 227.033V227.183C57.9378 227.805 58.044 228.251 58.2561 228.521C58.4683 228.787 58.8086 228.921 59.2771 228.921C59.6684 228.921 59.9743 228.765 60.1947 228.455C60.4179 228.146 60.5297 227.719 60.5297 227.174C60.5297 226.622 60.4179 226.199 60.1947 225.905C59.9743 225.609 59.6629 225.461 59.2605 225.461ZM67.2994 229.482C66.6433 229.482 66.1348 229.286 65.7738 228.892C65.4159 228.496 65.2363 227.937 65.2363 227.215C65.2363 226.474 65.4183 225.901 65.7823 225.497C66.1487 225.093 66.6693 224.891 67.3447 224.891C67.5624 224.891 67.7801 224.914 67.9977 224.959C68.2154 225.006 68.3859 225.059 68.5099 225.121L68.2995 225.691C68.1477 225.632 67.9826 225.583 67.8036 225.546C67.6241 225.505 67.4656 225.485 67.3278 225.485C66.4075 225.485 65.9474 226.059 65.9474 227.207C65.9474 227.751 66.0592 228.169 66.2823 228.46C66.5085 228.751 66.8416 228.897 67.2824 228.897C67.6603 228.897 68.0473 228.817 68.444 228.658V229.252C68.141 229.406 67.7595 229.482 67.2994 229.482ZM73.0006 225.546H71.5289V229.401H70.8432V225.546H69.3878V224.972H73.0006V225.546ZM77.1068 229.401L76.9701 228.771H76.9375C76.7114 229.049 76.4852 229.237 76.2597 229.337C76.036 229.434 75.7566 229.482 75.4204 229.482C74.9712 229.482 74.6187 229.369 74.3623 229.143C74.1089 228.917 73.982 228.594 73.982 228.177C73.982 227.282 74.7136 226.814 76.1768 226.77L76.9454 226.746V226.471C76.9454 226.124 76.8686 225.868 76.7138 225.703C76.5626 225.537 76.3183 225.453 75.9822 225.453C75.6049 225.453 75.178 225.566 74.7009 225.793L74.4905 225.279C74.7136 225.161 74.9573 225.068 75.2221 225C75.4894 224.933 75.7566 224.899 76.0239 224.899C76.5638 224.899 76.9635 225.016 77.2223 225.25C77.4841 225.485 77.6153 225.861 77.6153 226.378V229.401H77.1068ZM75.5565 228.928C75.984 228.928 76.3183 228.814 76.5614 228.585C76.8063 228.356 76.929 228.035 76.929 227.623V227.223L76.2428 227.251C75.6974 227.27 75.3031 227.353 75.0607 227.502C74.8212 227.647 74.7009 227.875 74.7009 228.185C74.7009 228.428 74.7753 228.612 74.924 228.739C75.0758 228.865 75.2868 228.928 75.5565 228.928ZM83.1309 226.083C83.1309 226.371 83.0451 226.591 82.8746 226.742C82.7065 226.89 82.4695 226.99 82.1635 227.041V227.077C82.5493 227.129 82.8304 227.239 83.0064 227.409C83.186 227.579 83.2755 227.813 83.2755 228.112C83.2755 228.525 83.1195 228.842 82.8081 229.066C82.4997 229.29 82.048 229.401 81.4524 229.401H79.4559V224.972H81.4446C82.5686 224.972 83.1309 225.342 83.1309 226.083ZM82.5892 228.068C82.5892 227.828 82.4954 227.654 82.308 227.546C82.1236 227.436 81.8164 227.381 81.3865 227.381H80.1422V228.84H81.4028C82.1937 228.84 82.5892 228.583 82.5892 228.068ZM82.461 226.148C82.461 225.932 82.3757 225.78 82.2046 225.691C82.0365 225.6 81.7808 225.554 81.4361 225.554H80.1422V226.802H81.3037C81.7281 226.802 82.0268 226.752 82.2004 226.649C82.3745 226.547 82.461 226.38 82.461 226.148ZM87.3399 224.972H88.0921L86.1373 227.11L88.2535 229.401H87.4518L85.3851 227.158V229.401H84.6988V224.972H85.3851V227.126L87.3399 224.972ZM90.1648 224.972V227.781L90.1358 228.516L90.1237 228.747L92.5744 224.972H93.43V229.401H92.7896V226.694L92.8017 226.16L92.8223 225.635L90.3759 229.401H89.5203V224.972H90.1648Z" fill="white"/>
<path d="M63.1862 210.777C80.885 210.777 95.2327 196.748 95.2327 179.442C95.2327 162.135 80.885 148.106 63.1862 148.106C45.4874 148.106 31.1396 162.135 31.1396 179.442C31.1396 196.748 45.4874 210.777 63.1862 210.777Z" stroke="#53BA70" stroke-width="3"/>
<g filter="url(#filter4_f_409_4310)">
<path d="M63.1862 210.777C80.885 210.777 95.2327 196.748 95.2327 179.442C95.2327 162.135 80.885 148.106 63.1862 148.106C45.4874 148.106 31.1396 162.135 31.1396 179.442C31.1396 196.748 45.4874 210.777 63.1862 210.777Z" stroke="#53BA70" stroke-width="3"/>
</g>
<g filter="url(#filter5_f_409_4310)">
<path d="M63.1862 210.777C80.885 210.777 95.2327 196.748 95.2327 179.442C95.2327 162.135 80.885 148.106 63.1862 148.106C45.4874 148.106 31.1396 162.135 31.1396 179.442C31.1396 196.748 45.4874 210.777 63.1862 210.777Z" stroke="#53BA70" stroke-width="3"/>
</g>
<g filter="url(#filter6_f_409_4310)">
<path d="M63.1862 210.777C80.885 210.777 95.2327 196.748 95.2327 179.442C95.2327 162.135 80.885 148.106 63.1862 148.106C45.4874 148.106 31.1396 162.135 31.1396 179.442C31.1396 196.748 45.4874 210.777 63.1862 210.777Z" stroke="#53BA70" stroke-width="3"/>
</g>
<g filter="url(#filter7_f_409_4310)">
<path d="M63.1862 210.777C80.885 210.777 95.2327 196.748 95.2327 179.442C95.2327 162.135 80.885 148.106 63.1862 148.106C45.4874 148.106 31.1396 162.135 31.1396 179.442C31.1396 196.748 45.4874 210.777 63.1862 210.777Z" stroke="#53BA70" stroke-width="3"/>
</g>
<path d="M63.4888 199.248C74.8428 199.248 84.047 190.248 84.047 179.146C84.047 168.044 74.8428 159.044 63.4888 159.044C52.1349 159.044 42.9307 168.044 42.9307 179.146C42.9307 190.248 52.1349 199.248 63.4888 199.248Z" fill="#292929" fill-opacity="0.3"/>
<path d="M52.8994 178.64C52.8994 177.013 53.1703 175.745 53.7121 174.837C54.2538 173.919 55.2019 173.461 56.5563 173.461C57.9011 173.461 58.8443 173.919 59.3861 174.837C59.9279 175.745 60.1988 177.013 60.1988 178.64C60.1988 180.295 59.9279 181.582 59.3861 182.499C58.8443 183.417 57.9011 183.876 56.5563 183.876C55.2019 183.876 54.2538 183.417 53.7121 182.499C53.1703 181.582 52.8994 180.295 52.8994 178.64ZM58.8927 178.64C58.8927 177.817 58.8347 177.121 58.7186 176.554C58.6122 175.977 58.3848 175.513 58.0365 175.163C57.6979 174.813 57.2045 174.638 56.5563 174.638C55.8985 174.638 55.3954 174.813 55.0471 175.163C54.7085 175.513 54.4812 175.977 54.3651 176.554C54.2587 177.121 54.2055 177.817 54.2055 178.64C54.2055 179.491 54.2587 180.205 54.3651 180.782C54.4812 181.36 54.7085 181.823 55.0471 182.173C55.3954 182.523 55.8985 182.698 56.5563 182.698C57.2045 182.698 57.6979 182.523 58.0365 182.173C58.3848 181.823 58.6122 181.36 58.7186 180.782C58.8347 180.205 58.8927 179.491 58.8927 178.64ZM63.303 182.84C64.5317 181.875 65.4943 181.085 66.1909 180.47C66.8874 179.846 67.4727 179.198 67.9468 178.526C68.4305 177.845 68.6723 177.178 68.6723 176.526C68.6723 175.911 68.5176 175.428 68.208 175.078C67.9081 174.719 67.4195 174.539 66.7423 174.539C66.0844 174.539 65.5717 174.742 65.2041 175.149C64.8461 175.546 64.6526 176.081 64.6236 176.753H63.3466C63.3853 175.693 63.7142 174.875 64.3334 174.298C64.9525 173.721 65.7507 173.432 66.7278 173.432C67.7243 173.432 68.5127 173.702 69.0932 174.241C69.6833 174.78 69.9784 175.523 69.9784 176.469C69.9784 177.254 69.7365 178.02 69.2528 178.767C68.7788 179.505 68.237 180.158 67.6275 180.726C67.018 181.284 66.2392 181.937 65.2911 182.684H70.2831V183.762H63.303V182.84ZM73.8996 183.961C73.648 183.961 73.4352 183.876 73.261 183.706C73.0869 183.535 72.9998 183.327 72.9998 183.081C72.9998 182.835 73.0869 182.627 73.261 182.457C73.4352 182.287 73.648 182.201 73.8996 182.201C74.1414 182.201 74.3446 182.287 74.509 182.457C74.6832 182.627 74.7703 182.835 74.7703 183.081C74.7703 183.327 74.6832 183.535 74.509 183.706C74.3446 183.876 74.1414 183.961 73.8996 183.961Z" fill="white"/>
<path d="M160.736 229.402H160.033V224.103H156.929V229.402H156.227V223.493H160.736V229.402ZM166.632 227.183C166.632 227.905 166.446 228.469 166.074 228.876C165.702 229.28 165.188 229.483 164.532 229.483C164.127 229.483 163.768 229.389 163.453 229.203C163.139 229.018 162.896 228.751 162.726 228.404C162.555 228.056 162.47 227.649 162.47 227.183C162.47 226.461 162.654 225.899 163.023 225.497C163.393 225.093 163.905 224.891 164.561 224.891C165.195 224.891 165.698 225.097 166.07 225.509C166.445 225.921 166.632 226.48 166.632 227.183ZM163.181 227.183C163.181 227.748 163.296 228.179 163.528 228.476C163.759 228.772 164.1 228.921 164.548 228.921C164.998 228.921 165.338 228.774 165.57 228.48C165.804 228.184 165.921 227.751 165.921 227.183C165.921 226.62 165.804 226.192 165.57 225.901C165.338 225.608 164.995 225.461 164.541 225.461C164.091 225.461 163.752 225.605 163.523 225.893C163.295 226.182 163.181 226.611 163.181 227.183ZM168.948 229.402H168.262V224.972H172.065V229.402H171.371V225.554H168.948V229.402ZM177.853 227.183C177.853 227.905 177.667 228.469 177.295 228.876C176.923 229.28 176.409 229.483 175.753 229.483C175.348 229.483 174.989 229.389 174.674 229.203C174.361 229.018 174.118 228.751 173.947 228.404C173.777 228.056 173.691 227.649 173.691 227.183C173.691 226.461 173.876 225.899 174.245 225.497C174.614 225.093 175.127 224.891 175.782 224.891C176.416 224.891 176.919 225.097 177.291 225.509C177.666 225.921 177.853 226.48 177.853 227.183ZM174.402 227.183C174.402 227.748 174.517 228.179 174.749 228.476C174.98 228.772 175.321 228.921 175.77 228.921C176.219 228.921 176.559 228.774 176.791 228.48C177.025 228.184 177.142 227.751 177.142 227.183C177.142 226.62 177.025 226.192 176.791 225.901C176.559 225.608 176.216 225.461 175.762 225.461C175.312 225.461 174.974 225.605 174.745 225.893C174.516 226.182 174.402 226.611 174.402 227.183ZM182.86 229.402H182.166V225.546H180.806C180.732 226.505 180.628 227.266 180.496 227.829C180.364 228.392 180.191 228.805 179.979 229.066C179.77 229.328 179.503 229.458 179.177 229.458C179.029 229.458 178.91 229.442 178.822 229.41V228.913C178.883 228.929 178.952 228.937 179.029 228.937C179.345 228.937 179.598 228.609 179.785 227.955C179.972 227.3 180.115 226.306 180.211 224.972H182.86V229.402ZM185.429 224.972V226.827H187.967V224.972H188.653V229.402H187.967V227.405H185.429V229.402H184.743V224.972H185.429ZM192.445 229.483C191.775 229.483 191.246 229.283 190.857 228.884C190.472 228.486 190.279 227.932 190.279 227.223C190.279 226.509 190.458 225.942 190.816 225.522C191.177 225.101 191.661 224.891 192.267 224.891C192.835 224.891 193.284 225.074 193.615 225.441C193.945 225.804 194.11 226.285 194.11 226.883V227.308H190.99C191.004 227.828 191.137 228.223 191.391 228.492C191.647 228.762 192.007 228.897 192.469 228.897C192.957 228.897 193.439 228.797 193.916 228.597V229.195C193.674 229.298 193.443 229.371 193.226 229.414C193.011 229.459 192.751 229.483 192.445 229.483ZM192.259 225.453C191.895 225.453 191.604 225.569 191.386 225.8C191.172 226.032 191.045 226.353 191.006 226.762H193.375C193.375 226.34 193.278 226.016 193.085 225.793C192.893 225.566 192.617 225.453 192.259 225.453ZM196.394 224.972V226.827H198.932V224.972H199.618V229.402H198.932V227.405H196.394V229.402H195.708V224.972H196.394ZM202.141 224.972V227.781L202.112 228.516L202.1 228.747L204.55 224.972H205.406V229.402H204.766V226.694L204.778 226.16L204.798 225.635L202.352 229.402H201.496V224.972H202.141ZM209.198 229.483C208.528 229.483 207.999 229.283 207.611 228.884C207.225 228.486 207.032 227.932 207.032 227.223C207.032 226.509 207.211 225.942 207.569 225.522C207.93 225.101 208.414 224.891 209.02 224.891C209.588 224.891 210.037 225.074 210.368 225.441C210.698 225.804 210.864 226.285 210.864 226.883V227.308H207.743C207.757 227.828 207.89 228.223 208.144 228.492C208.4 228.762 208.76 228.897 209.223 228.897C209.71 228.897 210.193 228.797 210.669 228.597V229.195C210.427 229.298 210.197 229.371 209.979 229.414C209.764 229.459 209.504 229.483 209.198 229.483ZM209.012 225.453C208.648 225.453 208.358 225.569 208.14 225.8C207.925 226.032 207.798 226.353 207.76 226.762H210.128C210.128 226.34 210.031 226.016 209.839 225.793C209.646 225.566 209.37 225.453 209.012 225.453ZM164.009 236.206H164.761L162.806 238.343L164.922 240.635H164.12L162.054 238.392V240.635H161.368V236.206H162.054V238.359L164.009 236.206ZM170.099 238.416C170.099 239.138 169.913 239.703 169.541 240.109C169.169 240.514 168.655 240.716 167.999 240.716C167.594 240.716 167.234 240.623 166.92 240.437C166.606 240.251 166.364 239.984 166.193 239.637C166.022 239.289 165.937 238.882 165.937 238.416C165.937 237.694 166.121 237.133 166.491 236.731C166.86 236.327 167.372 236.125 168.028 236.125C168.662 236.125 169.165 236.331 169.537 236.743C169.912 237.155 170.099 237.713 170.099 238.416ZM166.648 238.416C166.648 238.982 166.763 239.413 166.995 239.71C167.226 240.006 167.567 240.154 168.015 240.154C168.465 240.154 168.805 240.007 169.037 239.713C169.271 239.417 169.388 238.985 169.388 238.416C169.388 237.853 169.271 237.426 169.037 237.135C168.805 236.841 168.462 236.694 168.008 236.694C167.558 236.694 167.219 236.839 166.991 237.127C166.762 237.415 166.648 237.845 166.648 238.416ZM175.106 240.057H177.115V236.206H177.81V240.635H171.729V236.206H172.415V240.057H174.42V236.206H175.106V240.057ZM181.606 240.716C180.936 240.716 180.407 240.516 180.018 240.118C179.633 239.719 179.44 239.165 179.44 238.456C179.44 237.743 179.619 237.175 179.977 236.755C180.338 236.335 180.821 236.125 181.428 236.125C181.996 236.125 182.444 236.308 182.775 236.674C183.106 237.038 183.271 237.519 183.271 238.117V238.542H180.15C180.164 239.062 180.298 239.456 180.552 239.726C180.807 239.995 181.167 240.13 181.63 240.13C182.118 240.13 182.6 240.03 183.077 239.831V240.429C182.834 240.532 182.604 240.604 182.387 240.648C182.172 240.693 181.912 240.716 181.606 240.716ZM181.419 236.686C181.056 236.686 180.765 236.802 180.547 237.034C180.332 237.266 180.206 237.586 180.167 237.996H182.536C182.536 237.573 182.439 237.25 182.246 237.026C182.053 236.8 181.778 236.686 181.419 236.686ZM188.245 240.635H187.55V236.78H186.191C186.116 237.739 186.013 238.5 185.881 239.063C185.749 239.626 185.576 240.039 185.364 240.3C185.155 240.561 184.888 240.692 184.562 240.692C184.414 240.692 184.295 240.675 184.207 240.643V240.146C184.267 240.162 184.336 240.17 184.414 240.17C184.73 240.17 184.983 239.843 185.17 239.188C185.357 238.533 185.5 237.539 185.596 236.206H188.245V240.635ZM190.814 238.036H192.211C193.368 238.036 193.946 238.453 193.946 239.285C193.946 239.722 193.795 240.056 193.492 240.287C193.192 240.519 192.751 240.635 192.169 240.635H190.128V236.206H190.814V238.036ZM190.814 238.614V240.073H192.136C192.5 240.073 192.778 240.011 192.971 239.887C193.164 239.764 193.261 239.576 193.261 239.326C193.261 239.08 193.171 238.901 192.992 238.788C192.816 238.672 192.524 238.614 192.116 238.614H190.814ZM198.201 236.206H198.954L196.999 238.343L199.115 240.635H198.313L196.247 238.392V240.635H195.56V236.206H196.247V238.359L198.201 236.206ZM203.167 240.635L203.031 240.005H202.998C202.772 240.282 202.546 240.471 202.32 240.571C202.097 240.668 201.817 240.716 201.481 240.716C201.032 240.716 200.679 240.603 200.423 240.376C200.17 240.15 200.043 239.828 200.043 239.411C200.043 238.516 200.774 238.047 202.237 238.004L203.006 237.98V237.705C203.006 237.357 202.929 237.101 202.775 236.937C202.623 236.77 202.38 236.686 202.043 236.686C201.665 236.686 201.239 236.8 200.762 237.026L200.551 236.512C200.774 236.394 201.018 236.301 201.283 236.234C201.55 236.167 201.817 236.133 202.085 236.133C202.624 236.133 203.024 236.25 203.283 236.484C203.545 236.719 203.676 237.095 203.676 237.612V240.635H203.167ZM201.618 240.162C202.045 240.162 202.38 240.048 202.622 239.819C202.867 239.59 202.99 239.269 202.99 238.857V238.456L202.303 238.485C201.758 238.504 201.364 238.587 201.121 238.735C200.882 238.881 200.762 239.109 200.762 239.418C200.762 239.661 200.837 239.846 200.985 239.972C201.136 240.099 201.347 240.162 201.618 240.162Z" fill="white"/>
<path d="M183.511 210.777C201.21 210.777 215.558 196.748 215.558 179.442C215.558 162.135 201.21 148.106 183.511 148.106C165.813 148.106 151.465 162.135 151.465 179.442C151.465 196.748 165.813 210.777 183.511 210.777Z" stroke="#53BA70" stroke-width="3"/>
<g filter="url(#filter8_f_409_4310)">
<path d="M183.511 210.777C201.21 210.777 215.558 196.748 215.558 179.442C215.558 162.135 201.21 148.106 183.511 148.106C165.813 148.106 151.465 162.135 151.465 179.442C151.465 196.748 165.813 210.777 183.511 210.777Z" stroke="#53BA70" stroke-width="3"/>
</g>
<g filter="url(#filter9_f_409_4310)">
<path d="M183.511 210.777C201.21 210.777 215.558 196.748 215.558 179.442C215.558 162.135 201.21 148.106 183.511 148.106C165.813 148.106 151.465 162.135 151.465 179.442C151.465 196.748 165.813 210.777 183.511 210.777Z" stroke="#53BA70" stroke-width="3"/>
</g>
<g filter="url(#filter10_f_409_4310)">
<path d="M183.511 210.777C201.21 210.777 215.558 196.748 215.558 179.442C215.558 162.135 201.21 148.106 183.511 148.106C165.813 148.106 151.465 162.135 151.465 179.442C151.465 196.748 165.813 210.777 183.511 210.777Z" stroke="#53BA70" stroke-width="3"/>
</g>
<g filter="url(#filter11_f_409_4310)">
<path d="M183.511 210.777C201.21 210.777 215.558 196.748 215.558 179.442C215.558 162.135 201.21 148.106 183.511 148.106C165.813 148.106 151.465 162.135 151.465 179.442C151.465 196.748 165.813 210.777 183.511 210.777Z" stroke="#53BA70" stroke-width="3"/>
</g>
<path d="M183.814 199.248C195.168 199.248 204.372 190.248 204.372 179.146C204.372 168.044 195.168 159.044 183.814 159.044C172.46 159.044 163.256 168.044 163.256 179.146C163.256 190.248 172.46 199.248 183.814 199.248Z" fill="#292929" fill-opacity="0.3"/>
<path d="M173.226 178.64C173.226 177.013 173.496 175.745 174.038 174.837C174.58 173.919 175.528 173.461 176.883 173.461C178.227 173.461 179.171 173.919 179.712 174.837C180.254 175.745 180.525 177.013 180.525 178.64C180.525 180.295 180.254 181.582 179.712 182.499C179.171 183.417 178.227 183.876 176.883 183.876C175.528 183.876 174.58 183.417 174.038 182.499C173.496 181.582 173.226 180.295 173.226 178.64ZM179.219 178.64C179.219 177.817 179.161 177.121 179.045 176.554C178.938 175.977 178.711 175.513 178.363 175.163C178.024 174.813 177.531 174.638 176.883 174.638C176.225 174.638 175.722 174.813 175.373 175.163C175.035 175.513 174.807 175.977 174.691 176.554C174.585 177.121 174.532 177.817 174.532 178.64C174.532 179.491 174.585 180.205 174.691 180.782C174.807 181.36 175.035 181.823 175.373 182.173C175.722 182.523 176.225 182.698 176.883 182.698C177.531 182.698 178.024 182.523 178.363 182.173C178.711 181.823 178.938 181.36 179.045 180.782C179.161 180.205 179.219 179.491 179.219 178.64ZM183.76 176.199C183.828 175.329 184.171 174.648 184.79 174.156C185.409 173.664 186.212 173.418 187.199 173.418C187.857 173.418 188.423 173.536 188.897 173.773C189.381 174 189.743 174.312 189.985 174.709C190.237 175.107 190.363 175.556 190.363 176.057C190.363 176.644 190.188 177.15 189.84 177.576C189.502 178.001 189.057 178.276 188.505 178.399V178.47C189.134 178.621 189.632 178.919 190 179.363C190.367 179.808 190.551 180.39 190.551 181.109C190.551 181.648 190.425 182.135 190.174 182.57C189.922 182.996 189.545 183.332 189.042 183.578C188.539 183.824 187.934 183.947 187.228 183.947C186.203 183.947 185.361 183.687 184.703 183.166C184.045 182.637 183.678 181.889 183.6 180.924H184.877C184.945 181.492 185.182 181.955 185.588 182.315C185.995 182.674 186.536 182.854 187.214 182.854C187.891 182.854 188.403 182.684 188.752 182.343C189.11 181.993 189.289 181.544 189.289 180.995C189.289 180.286 189.047 179.775 188.563 179.463C188.079 179.151 187.349 178.995 186.372 178.995H186.038V177.916H186.386C187.276 177.907 187.949 177.765 188.403 177.49C188.858 177.207 189.086 176.771 189.086 176.185C189.086 175.684 188.916 175.282 188.578 174.979C188.249 174.676 187.775 174.525 187.156 174.525C186.556 174.525 186.072 174.676 185.704 174.979C185.337 175.282 185.119 175.688 185.051 176.199H183.76ZM194.424 183.961C194.172 183.961 193.96 183.876 193.785 183.706C193.611 183.535 193.524 183.327 193.524 183.081C193.524 182.835 193.611 182.627 193.785 182.457C193.96 182.287 194.172 182.201 194.424 182.201C194.666 182.201 194.869 182.287 195.033 182.457C195.208 182.627 195.295 182.835 195.295 183.081C195.295 183.327 195.208 183.535 195.033 183.706C194.869 183.876 194.666 183.961 194.424 183.961Z" fill="white"/>
<path d="M276.116 224.022C275.452 224.022 274.927 224.239 274.541 224.673C274.158 225.104 273.967 225.695 273.967 226.447C273.967 227.22 274.151 227.819 274.521 228.241C274.892 228.662 275.421 228.872 276.108 228.872C276.529 228.872 277.01 228.798 277.55 228.65V229.252C277.131 229.406 276.614 229.482 276 229.482C275.11 229.482 274.423 229.218 273.938 228.69C273.455 228.162 273.214 227.411 273.214 226.439C273.214 225.83 273.33 225.296 273.562 224.838C273.796 224.38 274.132 224.027 274.57 223.779C275.011 223.532 275.529 223.407 276.124 223.407C276.758 223.407 277.312 223.521 277.786 223.747L277.488 224.337C277.03 224.127 276.573 224.022 276.116 224.022ZM278.469 224.972H279.205L280.197 227.498C280.415 228.075 280.549 228.491 280.602 228.747H280.635C280.671 228.609 280.745 228.375 280.858 228.043C280.974 227.709 281.349 226.685 281.983 224.972H282.718L280.771 230.016C280.579 230.514 280.353 230.867 280.094 231.075C279.837 231.285 279.522 231.39 279.147 231.39C278.937 231.39 278.731 231.367 278.527 231.321V230.784C278.679 230.816 278.848 230.832 279.035 230.832C279.507 230.832 279.843 230.573 280.044 230.056L280.296 229.426L278.469 224.972ZM286.229 228.755L286.357 228.379L286.535 227.902L287.763 224.98H288.635V229.401H288.027V225.743L287.944 225.978L287.705 226.597L286.535 229.401H285.961L284.791 226.588C284.645 226.228 284.544 225.946 284.489 225.743V229.401H283.877V224.98H284.717L285.902 227.789C286.021 228.085 286.13 228.407 286.229 228.755ZM292.877 228.755L293.005 228.379L293.183 227.902L294.411 224.98H295.283V229.401H294.675V225.743L294.593 225.978L294.353 226.597L293.183 229.401H292.609L291.439 226.588C291.293 226.228 291.193 225.946 291.137 225.743V229.401H290.526V224.98H291.364L292.551 227.789C292.669 228.085 292.778 228.407 292.877 228.755ZM299.959 229.401L299.823 228.771H299.79C299.564 229.049 299.338 229.237 299.112 229.337C298.889 229.434 298.609 229.482 298.273 229.482C297.824 229.482 297.471 229.369 297.215 229.143C296.962 228.917 296.835 228.594 296.835 228.177C296.835 227.282 297.566 226.814 299.029 226.77L299.799 226.746V226.471C299.799 226.124 299.721 225.868 299.567 225.703C299.415 225.537 299.172 225.453 298.835 225.453C298.457 225.453 298.031 225.566 297.554 225.793L297.343 225.279C297.566 225.161 297.81 225.068 298.075 225C298.342 224.933 298.609 224.899 298.876 224.899C299.416 224.899 299.816 225.016 300.075 225.25C300.337 225.485 300.468 225.861 300.468 226.378V229.401H299.959ZM298.41 228.928C298.837 228.928 299.172 228.814 299.414 228.585C299.659 228.356 299.782 228.035 299.782 227.623V227.223L299.095 227.251C298.55 227.27 298.156 227.353 297.913 227.502C297.674 227.647 297.554 227.875 297.554 228.185C297.554 228.428 297.628 228.612 297.777 228.739C297.928 228.865 298.139 228.928 298.41 228.928ZM306.742 229.482C306.086 229.482 305.577 229.286 305.216 228.892C304.858 228.496 304.679 227.937 304.679 227.215C304.679 226.474 304.861 225.901 305.225 225.497C305.591 225.093 306.112 224.891 306.787 224.891C307.005 224.891 307.222 224.914 307.44 224.959C307.658 225.006 307.828 225.059 307.952 225.121L307.742 225.691C307.59 225.632 307.425 225.583 307.246 225.546C307.066 225.505 306.908 225.485 306.77 225.485C305.85 225.485 305.39 226.059 305.39 227.207C305.39 227.751 305.502 228.169 305.725 228.46C305.951 228.751 306.284 228.897 306.725 228.897C307.103 228.897 307.49 228.817 307.886 228.658V229.252C307.583 229.406 307.202 229.482 306.742 229.482ZM312.443 225.546H310.971V229.401H310.286V225.546H308.83V224.972H312.443V225.546ZM316.549 229.401L316.413 228.771H316.38C316.154 229.049 315.928 229.237 315.702 229.337C315.478 229.434 315.199 229.482 314.863 229.482C314.414 229.482 314.061 229.369 313.805 229.143C313.551 228.917 313.424 228.594 313.424 228.177C313.424 227.282 314.156 226.814 315.619 226.77L316.388 226.746V226.471C316.388 226.124 316.311 225.868 316.156 225.703C316.005 225.537 315.761 225.453 315.425 225.453C315.047 225.453 314.62 225.566 314.143 225.793L313.933 225.279C314.156 225.161 314.4 225.068 314.665 225C314.932 224.933 315.199 224.899 315.466 224.899C316.006 224.899 316.406 225.016 316.665 225.25C316.927 225.485 317.058 225.861 317.058 226.378V229.401H316.549ZM314.999 228.928C315.426 228.928 315.761 228.814 316.003 228.585C316.249 228.356 316.371 228.035 316.371 227.623V227.223L315.685 227.251C315.14 227.27 314.746 227.353 314.503 227.502C314.264 227.647 314.143 227.875 314.143 228.185C314.143 228.428 314.218 228.612 314.366 228.739C314.518 228.865 314.729 228.928 314.999 228.928ZM322.573 226.083C322.573 226.371 322.487 226.591 322.317 226.742C322.149 226.89 321.912 226.99 321.606 227.041V227.077C321.992 227.129 322.273 227.239 322.449 227.409C322.628 227.579 322.718 227.813 322.718 228.112C322.718 228.525 322.562 228.842 322.25 229.066C321.942 229.29 321.49 229.401 320.895 229.401H318.898V224.972H320.886C322.011 224.972 322.573 225.342 322.573 226.083ZM322.032 228.068C322.032 227.828 321.938 227.654 321.75 227.546C321.566 227.436 321.259 227.381 320.829 227.381H319.585V228.84H320.845C321.636 228.84 322.032 228.583 322.032 228.068ZM321.903 226.148C321.903 225.932 321.818 225.78 321.647 225.691C321.479 225.6 321.223 225.554 320.879 225.554H319.585V226.802H320.746C321.171 226.802 321.469 226.752 321.643 226.649C321.817 226.547 321.903 226.38 321.903 226.148ZM326.782 224.972H327.535L325.58 227.11L327.696 229.401H326.894L324.828 227.158V229.401H324.141V224.972H324.828V227.126L326.782 224.972ZM329.607 224.972V227.781L329.578 228.516L329.566 228.747L332.017 224.972H332.872V229.401H332.232V226.694L332.244 226.16L332.265 225.635L329.818 229.401H328.963V224.972H329.607Z" fill="white"/>
<path d="M303.838 210.777C321.536 210.777 335.884 196.748 335.884 179.442C335.884 162.135 321.536 148.106 303.838 148.106C286.139 148.106 271.791 162.135 271.791 179.442C271.791 196.748 286.139 210.777 303.838 210.777Z" stroke="#53BA70" stroke-width="3"/>
<g filter="url(#filter12_f_409_4310)">
<path d="M303.838 210.777C321.536 210.777 335.884 196.748 335.884 179.442C335.884 162.135 321.536 148.106 303.838 148.106C286.139 148.106 271.791 162.135 271.791 179.442C271.791 196.748 286.139 210.777 303.838 210.777Z" stroke="#53BA70" stroke-width="3"/>
</g>
<g filter="url(#filter13_f_409_4310)">
<path d="M303.838 210.777C321.536 210.777 335.884 196.748 335.884 179.442C335.884 162.135 321.536 148.106 303.838 148.106C286.139 148.106 271.791 162.135 271.791 179.442C271.791 196.748 286.139 210.777 303.838 210.777Z" stroke="#53BA70" stroke-width="3"/>
</g>
<g filter="url(#filter14_f_409_4310)">
<path d="M303.838 210.777C321.536 210.777 335.884 196.748 335.884 179.442C335.884 162.135 321.536 148.106 303.838 148.106C286.139 148.106 271.791 162.135 271.791 179.442C271.791 196.748 286.139 210.777 303.838 210.777Z" stroke="#53BA70" stroke-width="3"/>
</g>
<g filter="url(#filter15_f_409_4310)">
<path d="M303.838 210.777C321.536 210.777 335.884 196.748 335.884 179.442C335.884 162.135 321.536 148.106 303.838 148.106C286.139 148.106 271.791 162.135 271.791 179.442C271.791 196.748 286.139 210.777 303.838 210.777Z" stroke="#53BA70" stroke-width="3"/>
</g>
<path d="M304.139 199.248C315.493 199.248 324.697 190.248 324.697 179.146C324.697 168.044 315.493 159.044 304.139 159.044C292.785 159.044 283.581 168.044 283.581 179.146C283.581 190.248 292.785 199.248 304.139 199.248Z" fill="#292929" fill-opacity="0.3"/>
<path d="M293.551 178.64C293.551 177.013 293.822 175.745 294.363 174.837C294.905 173.919 295.853 173.461 297.208 173.461C298.552 173.461 299.496 173.919 300.037 174.837C300.579 175.745 300.85 177.013 300.85 178.64C300.85 180.295 300.579 181.582 300.037 182.5C299.496 183.417 298.552 183.876 297.208 183.876C295.853 183.876 294.905 183.417 294.363 182.5C293.822 181.582 293.551 180.295 293.551 178.64ZM299.544 178.64C299.544 177.817 299.486 177.122 299.37 176.554C299.264 175.977 299.036 175.513 298.688 175.163C298.349 174.813 297.856 174.638 297.208 174.638C296.55 174.638 296.047 174.813 295.699 175.163C295.36 175.513 295.133 175.977 295.016 176.554C294.91 177.122 294.857 177.817 294.857 178.64C294.857 179.491 294.91 180.206 295.016 180.783C295.133 181.36 295.36 181.823 295.699 182.173C296.047 182.523 296.55 182.698 297.208 182.698C297.856 182.698 298.349 182.523 298.688 182.173C299.036 181.823 299.264 181.36 299.37 180.783C299.486 180.206 299.544 179.491 299.544 178.64ZM303.795 181.591V180.612L308.888 173.716H310.47V180.47H311.921V181.591H310.47V183.876H309.164V181.591H303.795ZM309.222 175.064L305.319 180.47H309.222V175.064ZM315.33 183.961C315.079 183.961 314.866 183.876 314.692 183.706C314.518 183.535 314.431 183.327 314.431 183.081C314.431 182.835 314.518 182.627 314.692 182.457C314.866 182.287 315.079 182.202 315.33 182.202C315.572 182.202 315.775 182.287 315.94 182.457C316.114 182.627 316.201 182.835 316.201 183.081C316.201 183.327 316.114 183.535 315.94 183.706C315.775 183.876 315.572 183.961 315.33 183.961Z" fill="white"/>
<path d="M398.807 229.402H397.956L395.162 226.407V229.402H394.459V223.493H395.162V226.354L397.886 223.493H398.692L396.017 226.362L398.807 229.402ZM403.872 227.183C403.872 227.905 403.687 228.469 403.314 228.876C402.942 229.28 402.428 229.483 401.773 229.483C401.368 229.483 401.008 229.389 400.694 229.204C400.38 229.018 400.137 228.751 399.966 228.404C399.796 228.056 399.71 227.649 399.71 227.183C399.71 226.461 399.895 225.899 400.264 225.497C400.633 225.093 401.146 224.891 401.801 224.891C402.436 224.891 402.938 225.097 403.31 225.509C403.685 225.922 403.872 226.48 403.872 227.183ZM400.421 227.183C400.421 227.748 400.537 228.179 400.768 228.476C400.999 228.772 401.34 228.921 401.789 228.921C402.238 228.921 402.579 228.774 402.81 228.48C403.044 228.184 403.161 227.751 403.161 227.183C403.161 226.62 403.044 226.192 402.81 225.901C402.579 225.608 402.235 225.461 401.781 225.461C401.331 225.461 400.993 225.605 400.764 225.893C400.535 226.182 400.421 226.612 400.421 227.183ZM406.189 229.483C405.728 229.483 405.336 229.406 405.011 229.252V228.658C405.176 228.72 405.355 228.775 405.548 228.823C405.741 228.872 405.962 228.897 406.213 228.897C406.693 228.897 407.062 228.771 407.321 228.521C407.583 228.27 407.727 227.895 407.755 227.397H405.461V226.827H407.747C407.703 226.364 407.564 226.024 407.33 225.809C407.098 225.593 406.761 225.485 406.317 225.485C406.033 225.485 405.683 225.558 405.267 225.703L405.072 225.138C405.224 225.068 405.413 225.01 405.639 224.964C405.865 224.915 406.088 224.891 406.308 224.891C407.014 224.891 407.55 225.089 407.916 225.485C408.283 225.878 408.466 226.447 408.466 227.191C408.466 227.916 408.266 228.479 407.866 228.88C407.47 229.282 406.911 229.483 406.189 229.483ZM414.945 227.183C414.945 227.854 414.749 228.388 414.358 228.787C413.969 229.183 413.425 229.41 412.725 229.466V231.39H412.047V229.466C411.364 229.415 410.824 229.186 410.427 228.779C410.03 228.372 409.832 227.84 409.832 227.183C409.832 226.512 410.029 225.978 410.423 225.582C410.82 225.186 411.369 224.961 412.072 224.907V223.113H412.725V224.907C413.417 224.969 413.96 225.202 414.354 225.606C414.747 226.011 414.945 226.536 414.945 227.183ZM410.551 227.183C410.551 227.7 410.672 228.106 410.915 228.399C411.157 228.693 411.543 228.864 412.072 228.913V225.469C411.562 225.515 411.181 225.678 410.927 225.958C410.676 226.235 410.551 226.644 410.551 227.183ZM414.234 227.183C414.234 226.151 413.731 225.582 412.725 225.477V228.913C413.249 228.861 413.63 228.689 413.87 228.395C414.113 228.101 414.234 227.698 414.234 227.183ZM421.419 227.183C421.419 227.854 421.224 228.388 420.832 228.787C420.444 229.183 419.9 229.41 419.199 229.466V231.39H418.522V229.466C417.838 229.415 417.298 229.186 416.901 228.779C416.505 228.372 416.306 227.84 416.306 227.183C416.306 226.512 416.503 225.978 416.898 225.582C417.294 225.186 417.844 224.961 418.546 224.907V223.113H419.199V224.907C419.891 224.969 420.434 225.202 420.828 225.606C421.222 226.011 421.419 226.536 421.419 227.183ZM417.026 227.183C417.026 227.7 417.147 228.106 417.389 228.399C417.632 228.693 418.017 228.864 418.546 228.913V225.469C418.037 225.515 417.655 225.678 417.402 225.958C417.151 226.235 417.026 226.644 417.026 227.183ZM420.708 227.183C420.708 226.151 420.206 225.582 419.199 225.477V228.913C419.723 228.861 420.105 228.689 420.345 228.395C420.587 228.101 420.708 227.698 420.708 227.183ZM423.686 224.972V227.781L423.657 228.516L423.645 228.747L426.096 224.972H426.951V229.402H426.311V226.694L426.323 226.16L426.343 225.635L423.897 229.402H423.041V224.972H423.686ZM433.248 230.933H432.562V229.402H428.83V224.972H429.515V228.823H431.921V224.972H432.608V228.823H433.248V230.933ZM435.197 224.972V227.781L435.168 228.516L435.155 228.747L437.606 224.972H438.462V229.402H437.821V226.694L437.834 226.16L437.854 225.635L435.407 229.402H434.552V224.972H435.197ZM442.254 229.483C441.584 229.483 441.055 229.283 440.666 228.884C440.281 228.486 440.088 227.932 440.088 227.223C440.088 226.509 440.267 225.942 440.625 225.522C440.986 225.101 441.47 224.891 442.076 224.891C442.644 224.891 443.093 225.074 443.424 225.441C443.754 225.804 443.919 226.285 443.919 226.883V227.308H440.799C440.813 227.828 440.946 228.223 441.2 228.492C441.456 228.762 441.816 228.897 442.278 228.897C442.766 228.897 443.249 228.797 443.725 228.597V229.195C443.483 229.298 443.252 229.371 443.035 229.414C442.82 229.46 442.56 229.483 442.254 229.483ZM442.068 225.453C441.704 225.453 441.413 225.569 441.195 225.8C440.981 226.032 440.854 226.353 440.815 226.762H443.184C443.184 226.34 443.087 226.016 442.895 225.793C442.702 225.566 442.426 225.453 442.068 225.453ZM446.203 224.972V226.827H448.741V224.972H449.427V229.402H448.741V227.405H446.203V229.402H445.517V224.972H446.203ZM454.359 225.546H452.888V229.402H452.202V225.546H450.747V224.972H454.359V225.546Z" fill="white"/>
<path d="M424.163 210.777C441.862 210.777 456.209 196.748 456.209 179.442C456.209 162.135 441.862 148.106 424.163 148.106C406.464 148.106 392.116 162.135 392.116 179.442C392.116 196.748 406.464 210.777 424.163 210.777Z" stroke="#53BA70" stroke-width="3"/>
<g filter="url(#filter16_f_409_4310)">
<path d="M424.163 210.777C441.862 210.777 456.209 196.748 456.209 179.442C456.209 162.135 441.862 148.106 424.163 148.106C406.464 148.106 392.116 162.135 392.116 179.442C392.116 196.748 406.464 210.777 424.163 210.777Z" stroke="#53BA70" stroke-width="3"/>
</g>
<g filter="url(#filter17_f_409_4310)">
<path d="M424.163 210.777C441.862 210.777 456.209 196.748 456.209 179.442C456.209 162.135 441.862 148.106 424.163 148.106C406.464 148.106 392.116 162.135 392.116 179.442C392.116 196.748 406.464 210.777 424.163 210.777Z" stroke="#53BA70" stroke-width="3"/>
</g>
<g filter="url(#filter18_f_409_4310)">
<path d="M424.163 210.777C441.862 210.777 456.209 196.748 456.209 179.442C456.209 162.135 441.862 148.106 424.163 148.106C406.464 148.106 392.116 162.135 392.116 179.442C392.116 196.748 406.464 210.777 424.163 210.777Z" stroke="#53BA70" stroke-width="3"/>
</g>
<g filter="url(#filter19_f_409_4310)">
<path d="M424.163 210.777C441.862 210.777 456.209 196.748 456.209 179.442C456.209 162.135 441.862 148.106 424.163 148.106C406.464 148.106 392.116 162.135 392.116 179.442C392.116 196.748 406.464 210.777 424.163 210.777Z" stroke="#53BA70" stroke-width="3"/>
</g>
<path d="M424.465 199.248C435.819 199.248 445.024 190.248 445.024 179.146C445.024 168.044 435.819 159.044 424.465 159.044C413.111 159.044 403.907 168.044 403.907 179.146C403.907 190.248 413.111 199.248 424.465 199.248Z" fill="#292929" fill-opacity="0.3"/>
<path d="M413.876 178.64C413.876 177.013 414.147 175.745 414.689 174.837C415.23 173.919 416.179 173.461 417.533 173.461C418.878 173.461 419.821 173.919 420.363 174.837C420.904 175.745 421.175 177.013 421.175 178.64C421.175 180.295 420.904 181.582 420.363 182.5C419.821 183.417 418.878 183.876 417.533 183.876C416.179 183.876 415.23 183.417 414.689 182.5C414.147 181.582 413.876 180.295 413.876 178.64ZM419.869 178.64C419.869 177.817 419.811 177.122 419.695 176.554C419.589 175.977 419.361 175.513 419.013 175.163C418.675 174.813 418.181 174.638 417.533 174.638C416.875 174.638 416.372 174.813 416.024 175.163C415.685 175.513 415.458 175.977 415.342 176.554C415.235 177.122 415.182 177.817 415.182 178.64C415.182 179.491 415.235 180.206 415.342 180.783C415.458 181.36 415.685 181.823 416.024 182.173C416.372 182.523 416.875 182.698 417.533 182.698C418.181 182.698 418.675 182.523 419.013 182.173C419.361 181.823 419.589 181.36 419.695 180.783C419.811 180.206 419.869 179.491 419.869 178.64ZM431.129 174.738H426.036V177.973C426.258 177.67 426.587 177.424 427.022 177.235C427.458 177.037 427.927 176.937 428.43 176.937C429.233 176.937 429.886 177.103 430.389 177.434C430.892 177.755 431.25 178.176 431.463 178.697C431.685 179.208 431.797 179.751 431.797 180.329C431.797 181.01 431.666 181.62 431.405 182.159C431.144 182.698 430.742 183.124 430.2 183.436C429.668 183.748 429.006 183.904 428.212 183.904C427.196 183.904 426.374 183.649 425.745 183.138C425.116 182.627 424.734 181.946 424.599 181.095H425.89C426.016 181.634 426.282 182.055 426.689 182.358C427.095 182.66 427.608 182.812 428.227 182.812C428.991 182.812 429.567 182.589 429.954 182.145C430.341 181.691 430.534 181.095 430.534 180.357C430.534 179.619 430.341 179.051 429.954 178.654C429.567 178.247 428.996 178.044 428.241 178.044C427.729 178.044 427.279 178.167 426.892 178.413C426.514 178.649 426.239 178.976 426.065 179.392H424.817V173.603H431.129V174.738ZM435.642 183.961C435.39 183.961 435.177 183.876 435.003 183.706C434.829 183.535 434.742 183.327 434.742 183.081C434.742 182.835 434.829 182.627 435.003 182.457C435.177 182.287 435.39 182.202 435.642 182.202C435.883 182.202 436.087 182.287 436.251 182.457C436.425 182.627 436.512 182.835 436.512 183.081C436.512 183.327 436.425 183.535 436.251 183.706C436.087 183.876 435.883 183.961 435.642 183.961Z" fill="white"/>
<path d="M527.081 225.214C527.081 225.813 526.871 226.273 526.452 226.597C526.036 226.917 525.44 227.077 524.663 227.077H523.952V229.402H523.249V223.493H524.816C526.325 223.493 527.081 224.067 527.081 225.214ZM523.952 226.487H524.584C525.207 226.487 525.657 226.389 525.935 226.192C526.214 225.996 526.353 225.68 526.353 225.247C526.353 224.856 526.222 224.565 525.96 224.374C525.698 224.183 525.291 224.087 524.737 224.087H523.952V226.487ZM530.583 229.483C529.913 229.483 529.384 229.283 528.996 228.884C528.61 228.486 528.418 227.932 528.418 227.223C528.418 226.509 528.597 225.942 528.955 225.522C529.315 225.101 529.799 224.891 530.406 224.891C530.973 224.891 531.422 225.074 531.753 225.441C532.084 225.804 532.249 226.285 532.249 226.883V227.308H529.128C529.142 227.828 529.276 228.223 529.53 228.492C529.785 228.762 530.145 228.897 530.608 228.897C531.096 228.897 531.578 228.797 532.055 228.597V229.195C531.812 229.298 531.582 229.371 531.365 229.414C531.149 229.459 530.889 229.483 530.583 229.483ZM530.397 225.453C530.034 225.453 529.743 225.569 529.525 225.8C529.31 226.032 529.184 226.353 529.145 226.762H531.513C531.513 226.34 531.417 226.016 531.224 225.793C531.031 225.566 530.756 225.453 530.397 225.453ZM534.71 226.811C535.567 226.811 535.996 226.579 535.996 226.115C535.996 225.679 535.648 225.461 534.954 225.461C534.742 225.461 534.549 225.48 534.375 225.518C534.202 225.555 533.974 225.631 533.693 225.744L533.449 225.198C533.917 224.993 534.429 224.891 534.983 224.891C535.504 224.891 535.914 224.996 536.215 225.206C536.515 225.414 536.665 225.698 536.665 226.059C536.665 226.555 536.383 226.879 535.818 227.033V227.066C536.165 227.165 536.418 227.308 536.579 227.494C536.738 227.677 536.818 227.907 536.818 228.185C536.818 228.594 536.649 228.914 536.309 229.143C535.973 229.369 535.508 229.483 534.913 229.483C534.26 229.483 533.755 229.387 533.4 229.195V228.581C533.904 228.813 534.414 228.929 534.929 228.929C535.326 228.929 535.625 228.863 535.826 228.73C536.03 228.596 536.132 228.404 536.132 228.153C536.132 227.638 535.704 227.381 534.846 227.381H534.218V226.811H534.71ZM537.642 224.972H538.378L539.37 227.498C539.588 228.075 539.723 228.491 539.775 228.747H539.808C539.844 228.609 539.918 228.375 540.031 228.043C540.147 227.709 540.522 226.685 541.156 224.972H541.891L539.945 230.016C539.752 230.514 539.526 230.867 539.267 231.075C539.01 231.285 538.695 231.39 538.32 231.39C538.111 231.39 537.904 231.367 537.7 231.321V230.784C537.851 230.816 538.021 230.832 538.209 230.832C538.68 230.832 539.016 230.573 539.217 230.056L539.469 229.426L537.642 224.972ZM546.427 229.402H545.733V225.546H544.373C544.299 226.505 544.195 227.266 544.063 227.829C543.931 228.392 543.758 228.805 543.547 229.066C543.337 229.328 543.07 229.458 542.744 229.458C542.595 229.458 542.477 229.442 542.389 229.41V228.913C542.45 228.929 542.519 228.937 542.595 228.937C542.912 228.937 543.164 228.609 543.352 227.955C543.539 227.3 543.681 226.306 543.778 224.972H546.427V229.402ZM548.996 226.802H550.393C551.55 226.802 552.129 227.219 552.129 228.052C552.129 228.488 551.977 228.822 551.674 229.054C551.374 229.286 550.933 229.402 550.351 229.402H548.309V224.972H548.996V226.802ZM548.996 227.381V228.84H550.319C550.682 228.84 550.96 228.778 551.153 228.654C551.346 228.53 551.443 228.343 551.443 228.092C551.443 227.847 551.353 227.667 551.174 227.555C550.998 227.439 550.706 227.381 550.297 227.381H548.996ZM556.797 225.546H555.326V229.402H554.64V225.546H553.185V224.972H556.797V225.546ZM560.903 229.402L560.766 228.771H560.734C560.508 229.049 560.282 229.237 560.056 229.337C559.833 229.434 559.553 229.483 559.217 229.483C558.767 229.483 558.415 229.369 558.159 229.143C557.905 228.917 557.778 228.594 557.778 228.177C557.778 227.283 558.51 226.814 559.973 226.771L560.742 226.746V226.471C560.742 226.124 560.665 225.868 560.511 225.703C560.359 225.537 560.115 225.453 559.779 225.453C559.401 225.453 558.974 225.566 558.498 225.793L558.287 225.279C558.51 225.161 558.754 225.068 559.018 225C559.286 224.933 559.553 224.899 559.82 224.899C560.36 224.899 560.76 225.016 561.019 225.25C561.28 225.485 561.412 225.861 561.412 226.379V229.402H560.903ZM559.353 228.929C559.78 228.929 560.115 228.814 560.358 228.585C560.603 228.356 560.725 228.035 560.725 227.623V227.223L560.039 227.251C559.494 227.27 559.099 227.353 558.857 227.502C558.618 227.647 558.498 227.875 558.498 228.185C558.498 228.428 558.572 228.612 558.721 228.739C558.872 228.865 559.083 228.929 559.353 228.929ZM566.307 225.546H564.836V229.402H564.149V225.546H562.695V224.972H566.307V225.546Z" fill="white"/>
<path d="M544.488 210.777C562.187 210.777 576.534 196.748 576.534 179.442C576.534 162.135 562.187 148.106 544.488 148.106C526.789 148.106 512.441 162.135 512.441 179.442C512.441 196.748 526.789 210.777 544.488 210.777Z" stroke="#53BA70" stroke-width="3"/>
<g filter="url(#filter20_f_409_4310)">
<path d="M544.488 210.777C562.187 210.777 576.534 196.748 576.534 179.442C576.534 162.135 562.187 148.106 544.488 148.106C526.789 148.106 512.441 162.135 512.441 179.442C512.441 196.748 526.789 210.777 544.488 210.777Z" stroke="#53BA70" stroke-width="3"/>
</g>
<g filter="url(#filter21_f_409_4310)">
<path d="M544.488 210.777C562.187 210.777 576.534 196.748 576.534 179.442C576.534 162.135 562.187 148.106 544.488 148.106C526.789 148.106 512.441 162.135 512.441 179.442C512.441 196.748 526.789 210.777 544.488 210.777Z" stroke="#53BA70" stroke-width="3"/>
</g>
<g filter="url(#filter22_f_409_4310)">
<path d="M544.488 210.777C562.187 210.777 576.534 196.748 576.534 179.442C576.534 162.135 562.187 148.106 544.488 148.106C526.789 148.106 512.441 162.135 512.441 179.442C512.441 196.748 526.789 210.777 544.488 210.777Z" stroke="#53BA70" stroke-width="3"/>
</g>
<g filter="url(#filter23_f_409_4310)">
<path d="M544.488 210.777C562.187 210.777 576.534 196.748 576.534 179.442C576.534 162.135 562.187 148.106 544.488 148.106C526.789 148.106 512.441 162.135 512.441 179.442C512.441 196.748 526.789 210.777 544.488 210.777Z" stroke="#53BA70" stroke-width="3"/>
</g>
<path d="M544.791 199.248C556.145 199.248 565.349 190.248 565.349 179.146C565.349 168.044 556.145 159.044 544.791 159.044C533.437 159.044 524.232 168.044 524.232 179.146C524.232 190.248 533.437 199.248 544.791 199.248Z" fill="#292929" fill-opacity="0.3"/>
<path d="M534.202 178.64C534.202 177.013 534.473 175.745 535.015 174.837C535.557 173.919 536.505 173.461 537.859 173.461C539.204 173.461 540.147 173.919 540.689 174.837C541.231 175.745 541.502 177.013 541.502 178.64C541.502 180.295 541.231 181.582 540.689 182.499C540.147 183.417 539.204 183.876 537.859 183.876C536.505 183.876 535.557 183.417 535.015 182.499C534.473 181.582 534.202 180.295 534.202 178.64ZM540.195 178.64C540.195 177.817 540.137 177.122 540.021 176.554C539.915 175.977 539.688 175.513 539.339 175.163C539.001 174.813 538.507 174.638 537.859 174.638C537.201 174.638 536.698 174.813 536.35 175.163C536.011 175.513 535.784 175.977 535.668 176.554C535.561 177.122 535.508 177.817 535.508 178.64C535.508 179.491 535.561 180.205 535.668 180.782C535.784 181.36 536.011 181.823 536.35 182.173C536.698 182.523 537.201 182.698 537.859 182.698C538.507 182.698 539.001 182.523 539.339 182.173C539.688 181.823 539.915 181.36 540.021 180.782C540.137 180.205 540.195 179.491 540.195 178.64ZM550.614 176.057C550.401 175.007 549.738 174.482 548.625 174.482C547.764 174.482 547.121 174.809 546.695 175.461C546.27 176.105 546.062 177.169 546.071 178.654C546.294 178.162 546.662 177.779 547.174 177.505C547.697 177.221 548.277 177.079 548.916 177.079C549.912 177.079 550.705 177.382 551.296 177.987C551.895 178.593 552.195 179.43 552.195 180.499C552.195 181.142 552.065 181.719 551.804 182.23C551.552 182.741 551.165 183.147 550.643 183.45C550.13 183.753 549.506 183.904 548.771 183.904C547.774 183.904 546.995 183.687 546.434 183.252C545.873 182.816 545.481 182.216 545.259 181.449C545.036 180.683 544.925 179.737 544.925 178.611C544.925 175.14 546.163 173.404 548.64 173.404C549.588 173.404 550.333 173.654 550.875 174.156C551.417 174.657 551.736 175.291 551.833 176.057H550.614ZM548.64 178.172C548.224 178.172 547.832 178.257 547.465 178.427C547.097 178.588 546.797 178.838 546.565 179.179C546.342 179.51 546.231 179.917 546.231 180.399C546.231 181.118 546.444 181.705 546.87 182.159C547.295 182.604 547.905 182.826 548.698 182.826C549.375 182.826 549.912 182.622 550.309 182.216C550.715 181.799 550.918 181.241 550.918 180.541C550.918 179.803 550.725 179.226 550.338 178.81C549.951 178.384 549.385 178.172 548.64 178.172ZM556.067 183.961C555.815 183.961 555.603 183.876 555.428 183.706C555.254 183.535 555.167 183.327 555.167 183.081C555.167 182.835 555.254 182.627 555.428 182.457C555.603 182.287 555.815 182.201 556.067 182.201C556.309 182.201 556.512 182.287 556.676 182.457C556.851 182.627 556.938 182.835 556.938 183.081C556.938 183.327 556.851 183.535 556.676 183.706C556.512 183.876 556.309 183.961 556.067 183.961Z" fill="white"/>
<path d="M620.269 229.402H619.568V224.103H616.466V229.402H615.759V223.493H620.269V229.402ZM626.165 227.183C626.165 227.905 625.983 228.469 625.609 228.876C625.234 229.28 624.72 229.483 624.067 229.483C623.662 229.483 623.305 229.389 622.99 229.203C622.676 229.018 622.434 228.751 622.259 228.404C622.089 228.056 622.005 227.649 622.005 227.183C622.005 226.461 622.186 225.899 622.561 225.497C622.93 225.093 623.438 224.891 624.097 224.891C624.732 224.891 625.234 225.097 625.603 225.509C625.977 225.921 626.165 226.48 626.165 227.183ZM622.712 227.183C622.712 227.748 622.833 228.179 623.063 228.476C623.293 228.772 623.631 228.921 624.085 228.921C624.532 228.921 624.871 228.774 625.107 228.48C625.336 228.184 625.457 227.751 625.457 227.183C625.457 226.62 625.336 226.192 625.107 225.901C624.871 225.608 624.532 225.461 624.073 225.461C623.625 225.461 623.287 225.605 623.057 225.893C622.827 226.182 622.712 226.611 622.712 227.183ZM631.171 229.402H630.482V225.546H629.122C629.043 226.505 628.94 227.266 628.807 227.829C628.674 228.392 628.505 228.805 628.293 229.066C628.082 229.328 627.816 229.458 627.489 229.458C627.344 229.458 627.223 229.442 627.138 229.41V228.913C627.199 228.929 627.265 228.937 627.344 228.937C627.658 228.937 627.912 228.609 628.1 227.955C628.287 227.3 628.426 226.306 628.523 224.972H631.171V229.402ZM632.338 224.972H633.07L634.062 227.498C634.279 228.075 634.418 228.491 634.467 228.747H634.503C634.539 228.609 634.612 228.375 634.727 228.043C634.842 227.709 635.216 226.685 635.851 224.972H636.583L634.642 230.016C634.449 230.514 634.219 230.867 633.959 231.075C633.705 231.285 633.39 231.39 633.016 231.39C632.804 231.39 632.598 231.367 632.393 231.321V230.784C632.544 230.816 632.713 230.832 632.901 230.832C633.372 230.832 633.711 230.573 633.91 230.056L634.164 229.426L632.338 224.972ZM638.349 224.972V226.588C638.349 227.106 638.651 227.365 639.256 227.365C639.503 227.365 639.745 227.327 639.975 227.251C640.199 227.176 640.459 227.048 640.749 226.867V224.972H641.438V229.402H640.749V227.397C640.459 227.591 640.193 227.728 639.945 227.809C639.697 227.887 639.419 227.926 639.11 227.926C638.657 227.926 638.3 227.811 638.046 227.579C637.792 227.347 637.659 227.033 637.659 226.637V224.972H638.349ZM645.229 229.483C644.564 229.483 644.032 229.283 643.645 228.884C643.258 228.486 643.065 227.932 643.065 227.223C643.065 226.509 643.246 225.942 643.603 225.522C643.966 225.101 644.449 224.891 645.054 224.891C645.622 224.891 646.07 225.074 646.403 225.441C646.735 225.804 646.898 226.285 646.898 226.883V227.308H643.778C643.79 227.828 643.923 228.223 644.177 228.492C644.431 228.762 644.794 228.897 645.26 228.897C645.743 228.897 646.227 228.797 646.705 228.597V229.195C646.463 229.298 646.233 229.371 646.016 229.414C645.798 229.459 645.538 229.483 645.229 229.483ZM645.048 225.453C644.685 225.453 644.389 225.569 644.171 225.8C643.96 226.032 643.833 226.353 643.796 226.762H646.161C646.161 226.34 646.064 226.016 645.87 225.793C645.677 225.566 645.405 225.453 645.048 225.453ZM649.184 224.972V226.827H651.717V224.972H652.407V229.402H651.717V227.405H649.184V229.402H648.495V224.972H649.184ZM654.928 224.972V227.781L654.898 228.516L654.886 228.747L657.341 224.972H658.193V229.402H657.552V226.694L657.564 226.16L657.589 225.635L655.14 229.402H654.281V224.972H654.928ZM661.984 229.483C661.313 229.483 660.787 229.283 660.4 228.884C660.013 228.486 659.82 227.932 659.82 227.223C659.82 226.509 660.001 225.942 660.358 225.522C660.721 225.101 661.204 224.891 661.809 224.891C662.377 224.891 662.825 225.074 663.157 225.441C663.484 225.804 663.653 226.285 663.653 226.883V227.308H660.533C660.545 227.828 660.678 228.223 660.932 228.492C661.186 228.762 661.549 228.897 662.009 228.897C662.498 228.897 662.982 228.797 663.46 228.597V229.195C663.212 229.298 662.982 229.371 662.764 229.414C662.553 229.459 662.293 229.483 661.984 229.483ZM661.797 225.453C661.434 225.453 661.144 225.569 660.926 225.8C660.715 226.032 660.588 226.353 660.545 226.762H662.916C662.916 226.34 662.819 226.016 662.625 225.793C662.432 225.566 662.16 225.453 661.797 225.453ZM671.544 226.083C671.544 226.371 671.459 226.591 671.29 226.742C671.121 226.891 670.885 226.99 670.577 227.041V227.077C670.963 227.129 671.248 227.239 671.423 227.409C671.598 227.579 671.689 227.813 671.689 228.112C671.689 228.525 671.532 228.842 671.223 229.066C670.915 229.29 670.462 229.402 669.869 229.402H667.868V224.972H669.857C670.982 224.972 671.544 225.342 671.544 226.083ZM671.006 228.068C671.006 227.828 670.909 227.654 670.722 227.546C670.54 227.436 670.232 227.381 669.803 227.381H668.557V228.84H669.815C670.607 228.84 671.006 228.583 671.006 228.068ZM670.873 226.148C670.873 225.932 670.788 225.78 670.619 225.692C670.45 225.6 670.196 225.554 669.851 225.554H668.557V226.802H669.718C670.141 226.802 670.443 226.752 670.613 226.649C670.788 226.547 670.873 226.38 670.873 226.148ZM673.799 226.802H675.033C675.613 226.802 676.037 226.908 676.315 227.118C676.593 227.326 676.732 227.637 676.732 228.052C676.732 228.496 676.581 228.833 676.29 229.062C675.994 229.289 675.565 229.402 674.996 229.402H673.116V224.972H673.799V226.802ZM678.177 229.402H677.488V224.972H678.177V229.402ZM673.799 227.381V228.84H674.96C675.686 228.84 676.055 228.59 676.055 228.092C676.055 227.844 675.97 227.664 675.801 227.55C675.631 227.437 675.347 227.381 674.942 227.381H673.799ZM680.704 224.972V227.781L680.674 228.516L680.662 228.747L683.111 224.972H683.97V229.402H683.329V226.694L683.341 226.16L683.359 225.635L680.916 229.402H680.057V224.972H680.704ZM688.577 225.546H686.533V229.402H685.85V224.972H688.577V225.546ZM692.005 229.483C691.715 229.483 691.443 229.43 691.195 229.325C690.953 229.217 690.754 229.053 690.584 228.832H690.536C690.566 229.091 690.584 229.335 690.584 229.567V231.39H689.901V224.972H690.457L690.554 225.578H690.584C690.76 225.336 690.965 225.161 691.201 225.053C691.437 224.945 691.703 224.891 692.005 224.891C692.61 224.891 693.07 225.092 693.396 225.493C693.723 225.895 693.886 226.458 693.886 227.183C693.886 227.91 693.723 228.476 693.39 228.88C693.057 229.282 692.598 229.483 692.005 229.483ZM691.909 225.461C691.443 225.461 691.11 225.586 690.905 225.837C690.699 226.088 690.59 226.486 690.584 227.033V227.183C690.584 227.805 690.693 228.251 690.905 228.521C691.117 228.787 691.455 228.921 691.927 228.921C692.314 228.921 692.622 228.765 692.84 228.456C693.063 228.146 693.178 227.719 693.178 227.174C693.178 226.622 693.063 226.199 692.84 225.906C692.622 225.609 692.314 225.461 691.909 225.461ZM696.202 226.802H697.435C698.01 226.802 698.439 226.908 698.711 227.118C698.989 227.326 699.128 227.637 699.128 228.052C699.128 228.496 698.983 228.833 698.687 229.062C698.397 229.289 697.967 229.402 697.393 229.402H695.512V224.972H696.202V226.802ZM700.579 229.402H699.89V224.972H700.579V229.402ZM696.202 227.381V228.84H697.363C698.088 228.84 698.451 228.59 698.451 228.092C698.451 227.844 698.366 227.664 698.203 227.55C698.034 227.437 697.744 227.381 697.338 227.381H696.202ZM705.84 228.823H707.847V224.972H708.543V229.402H702.46V224.972H703.149V228.823H705.15V224.972H705.84V228.823ZM713.211 229.402L713.071 228.771H713.041C712.811 229.049 712.588 229.237 712.364 229.337C712.14 229.434 711.856 229.483 711.523 229.483C711.07 229.483 710.719 229.369 710.465 229.143C710.211 228.917 710.084 228.594 710.084 228.177C710.084 227.283 710.816 226.814 712.279 226.771L713.047 226.746V226.471C713.047 226.124 712.969 225.868 712.817 225.703C712.666 225.537 712.418 225.453 712.086 225.453C711.705 225.453 711.282 225.566 710.804 225.793L710.592 225.279C710.816 225.161 711.058 225.068 711.324 225C711.59 224.933 711.856 224.899 712.128 224.899C712.666 224.899 713.065 225.016 713.325 225.25C713.585 225.485 713.718 225.861 713.718 226.379V229.402H713.211ZM711.657 228.929C712.086 228.929 712.418 228.814 712.66 228.585C712.908 228.356 713.029 228.035 713.029 227.623V227.223L712.346 227.251C711.802 227.27 711.403 227.353 711.161 227.502C710.925 227.647 710.804 227.875 710.804 228.185C710.804 228.428 710.877 228.612 711.028 228.739C711.179 228.865 711.39 228.929 711.657 228.929Z" fill="white"/>
<path d="M664.814 210.777C682.513 210.777 696.861 196.748 696.861 179.442C696.861 162.135 682.513 148.106 664.814 148.106C647.115 148.106 632.768 162.135 632.768 179.442C632.768 196.748 647.115 210.777 664.814 210.777Z" stroke="#53BA70" stroke-width="3"/>
<g filter="url(#filter24_f_409_4310)">
<path d="M664.814 210.777C682.513 210.777 696.861 196.748 696.861 179.442C696.861 162.135 682.513 148.106 664.814 148.106C647.115 148.106 632.768 162.135 632.768 179.442C632.768 196.748 647.115 210.777 664.814 210.777Z" stroke="#53BA70" stroke-width="3"/>
</g>
<g filter="url(#filter25_f_409_4310)">
<path d="M664.814 210.777C682.513 210.777 696.861 196.748 696.861 179.442C696.861 162.135 682.513 148.106 664.814 148.106C647.115 148.106 632.768 162.135 632.768 179.442C632.768 196.748 647.115 210.777 664.814 210.777Z" stroke="#53BA70" stroke-width="3"/>
</g>
<g filter="url(#filter26_f_409_4310)">
<path d="M664.814 210.777C682.513 210.777 696.861 196.748 696.861 179.442C696.861 162.135 682.513 148.106 664.814 148.106C647.115 148.106 632.768 162.135 632.768 179.442C632.768 196.748 647.115 210.777 664.814 210.777Z" stroke="#53BA70" stroke-width="3"/>
</g>
<g filter="url(#filter27_f_409_4310)">
<path d="M664.814 210.777C682.513 210.777 696.861 196.748 696.861 179.442C696.861 162.135 682.513 148.106 664.814 148.106C647.115 148.106 632.768 162.135 632.768 179.442C632.768 196.748 647.115 210.777 664.814 210.777Z" stroke="#53BA70" stroke-width="3"/>
</g>
<path d="M665.117 199.248C676.471 199.248 685.675 190.248 685.675 179.146C685.675 168.044 676.471 159.044 665.117 159.044C653.763 159.044 644.559 168.044 644.559 179.146C644.559 190.248 653.763 199.248 665.117 199.248Z" fill="#292929" fill-opacity="0.3"/>
<path d="M654.529 178.64C654.529 177.013 654.801 175.745 655.34 174.837C655.884 173.919 656.833 173.461 658.187 173.461C659.53 173.461 660.473 173.919 661.017 174.837C661.555 175.745 661.827 177.013 661.827 178.64C661.827 180.295 661.555 181.582 661.017 182.5C660.473 183.417 659.53 183.876 658.187 183.876C656.833 183.876 655.884 183.417 655.34 182.5C654.801 181.582 654.529 180.295 654.529 178.64ZM660.521 178.64C660.521 177.817 660.461 177.122 660.346 176.554C660.243 175.977 660.013 175.513 659.663 175.163C659.324 174.813 658.834 174.638 658.187 174.638C657.528 174.638 657.027 174.813 656.676 175.163C656.337 175.513 656.107 175.977 655.993 176.554C655.89 177.122 655.835 177.817 655.835 178.64C655.835 179.491 655.89 180.206 655.993 180.783C656.107 181.36 656.337 181.823 656.676 182.173C657.027 182.523 657.528 182.698 658.187 182.698C658.834 182.698 659.324 182.523 659.663 182.173C660.013 181.823 660.243 181.36 660.346 180.783C660.461 180.206 660.521 179.491 660.521 178.64ZM671.55 174.624L667.517 183.876H666.181L670.274 174.752H664.669V173.645H671.55V174.624ZM675.106 183.961C674.852 183.961 674.64 183.876 674.465 183.706C674.289 183.535 674.205 183.327 674.205 183.081C674.205 182.835 674.289 182.627 674.465 182.457C674.64 182.287 674.852 182.202 675.106 182.202C675.347 182.202 675.547 182.287 675.71 182.457C675.886 182.627 675.976 182.835 675.976 183.081C675.976 183.327 675.886 183.535 675.71 183.706C675.547 183.876 675.347 183.961 675.106 183.961Z" fill="white"/>
<path d="M629.944 18.3284H629.243V13.0297H626.141V18.3284H625.434V12.4194H629.944V18.3284ZM635.84 16.1095C635.84 16.8316 635.658 17.3961 635.283 17.8029C634.908 18.2071 634.395 18.4092 633.741 18.4092C633.336 18.4092 632.98 18.3162 632.665 18.1303C632.351 17.9444 632.109 17.6776 631.934 17.33C631.764 16.9825 631.68 16.5756 631.68 16.1095C631.68 15.3873 631.861 14.8255 632.236 14.4241C632.605 14.0199 633.113 13.8178 633.772 13.8178C634.407 13.8178 634.908 14.0239 635.277 14.4362C635.652 14.8485 635.84 15.4062 635.84 16.1095ZM632.387 16.1095C632.387 16.6753 632.508 17.1064 632.738 17.4028C632.968 17.6992 633.306 17.8474 633.76 17.8474C634.207 17.8474 634.546 17.7006 634.781 17.4068C635.011 17.1105 635.132 16.678 635.132 16.1095C635.132 15.5463 635.011 15.1193 634.781 14.8283C634.546 14.5345 634.207 14.3877 633.748 14.3877C633.3 14.3877 632.961 14.5319 632.732 14.8202C632.502 15.1085 632.387 15.5382 632.387 16.1095ZM641.148 15.0101C641.148 15.2984 641.058 15.518 640.889 15.669C640.719 15.8171 640.483 15.9168 640.181 15.968V16.0044C640.562 16.0556 640.846 16.1661 641.022 16.3358C641.203 16.5056 641.294 16.74 641.294 17.039C641.294 17.4513 641.136 17.7693 640.822 17.9929C640.514 18.2165 640.066 18.3284 639.468 18.3284H637.472V13.8987H639.461C640.586 13.8987 641.148 14.2691 641.148 15.0101ZM640.604 16.9946C640.604 16.7548 640.514 16.581 640.326 16.4732C640.139 16.3628 639.83 16.3075 639.401 16.3075H638.155V17.7666H639.419C640.211 17.7666 640.604 17.5092 640.604 16.9946ZM640.477 15.0748C640.477 14.8592 640.393 14.707 640.217 14.6181C640.054 14.5265 639.794 14.4807 639.449 14.4807H638.155V15.7296H639.316C639.746 15.7296 640.042 15.6784 640.217 15.576C640.393 15.4735 640.477 15.3065 640.477 15.0748ZM645.768 14.4726H644.299V18.3284H643.609V14.4726H642.158V13.8987H645.768V14.4726ZM650.998 16.1095C650.998 16.8316 650.811 17.3961 650.442 17.8029C650.067 18.2071 649.553 18.4092 648.9 18.4092C648.495 18.4092 648.132 18.3162 647.818 18.1303C647.509 17.9444 647.261 17.6776 647.092 17.33C646.923 16.9825 646.838 16.5756 646.838 16.1095C646.838 15.3873 647.02 14.8255 647.389 14.4241C647.757 14.0199 648.271 13.8178 648.93 13.8178C649.559 13.8178 650.067 14.0239 650.436 14.4362C650.811 14.8485 650.998 15.4062 650.998 16.1095ZM647.546 16.1095C647.546 16.6753 647.661 17.1064 647.896 17.4028C648.126 17.6992 648.465 17.8474 648.918 17.8474C649.366 17.8474 649.704 17.7006 649.934 17.4068C650.17 17.1105 650.291 16.678 650.291 16.1095C650.291 15.5463 650.17 15.1193 649.934 14.8283C649.704 14.5345 649.36 14.3877 648.906 14.3877C648.459 14.3877 648.12 14.5319 647.89 14.8202C647.661 15.1085 647.546 15.5382 647.546 16.1095ZM654.735 18.4092C654.445 18.4092 654.173 18.3567 653.925 18.2516C653.683 18.1438 653.483 17.9794 653.314 17.7585H653.266C653.302 18.0171 653.314 18.2623 653.314 18.4941V20.3169H652.631V13.8987H653.187L653.284 14.5049H653.314C653.489 14.2624 653.695 14.0873 653.931 13.9795C654.167 13.8717 654.433 13.8178 654.735 13.8178C655.34 13.8178 655.799 14.0186 656.126 14.42C656.452 14.8215 656.615 15.3847 656.615 16.1095C656.615 16.8369 656.452 17.4028 656.12 17.807C655.787 18.2084 655.328 18.4092 654.735 18.4092ZM654.638 14.3877C654.173 14.3877 653.84 14.513 653.635 14.7636C653.429 15.0142 653.32 15.4129 653.314 15.9599V16.1095C653.314 16.7319 653.423 17.1778 653.635 17.4473C653.846 17.714 654.185 17.8474 654.656 17.8474C655.043 17.8474 655.352 17.6925 655.569 17.3826C655.793 17.0727 655.908 16.6457 655.908 16.1014C655.908 15.549 655.793 15.126 655.569 14.8323C655.352 14.5359 655.043 14.3877 654.638 14.3877ZM658.931 13.8987V15.7538H661.471V13.8987H662.154V18.3284H661.471V16.3317H658.931V18.3284H658.242V13.8987H658.931ZM666.816 18.3284L666.683 17.6979H666.647C666.423 17.9754 666.199 18.164 665.969 18.2637C665.746 18.3607 665.468 18.4092 665.135 18.4092C664.682 18.4092 664.331 18.296 664.077 18.0697C663.823 17.8434 663.696 17.5214 663.696 17.1037C663.696 16.2092 664.428 15.7403 665.891 15.6972L666.659 15.673V15.3981C666.659 15.0506 666.58 14.7946 666.423 14.6302C666.272 14.4632 666.03 14.3796 665.691 14.3796C665.316 14.3796 664.887 14.4928 664.415 14.7191L664.204 14.2058C664.428 14.0873 664.669 13.9943 664.935 13.927C665.201 13.8596 665.468 13.8259 665.734 13.8259C666.278 13.8259 666.677 13.9431 666.937 14.1775C667.197 14.412 667.324 14.7878 667.324 15.3052V18.3284H666.816ZM665.268 17.8555C665.697 17.8555 666.03 17.741 666.272 17.5119C666.52 17.2829 666.641 16.9623 666.641 16.55V16.1499L665.957 16.1782C665.407 16.197 665.014 16.2806 664.772 16.4288C664.53 16.5743 664.415 16.8019 664.415 17.1118C664.415 17.3543 664.488 17.5389 664.633 17.6655C664.79 17.7922 664.996 17.8555 665.268 17.8555ZM669.398 18.3284H668.594L669.894 16.4571C669.543 16.3816 669.277 16.2361 669.089 16.0206C668.902 15.8023 668.811 15.5288 668.811 15.2001C668.811 14.7959 668.95 14.478 669.228 14.2462C669.507 14.0145 669.9 13.8987 670.395 13.8987H672.415V18.3284H671.726V16.5581H670.583L669.398 18.3284ZM669.482 15.2082C669.482 15.7201 669.863 15.9761 670.625 15.9761H671.726V14.4807H670.48C669.815 14.4807 669.482 14.7231 669.482 15.2082ZM678.728 18.4092C678.075 18.4092 677.561 18.2125 677.204 17.8191C676.841 17.423 676.666 16.8639 676.666 16.1418C676.666 15.4008 676.847 14.8283 677.21 14.4241C677.579 14.0199 678.099 13.8178 678.77 13.8178C678.988 13.8178 679.211 13.8407 679.429 13.8865C679.647 13.9324 679.816 13.9862 679.937 14.0482L679.725 14.6181C679.574 14.5588 679.411 14.5103 679.229 14.4726C679.054 14.4322 678.897 14.412 678.758 14.412C677.839 14.412 677.373 14.9859 677.373 16.1337C677.373 16.678 677.488 17.0956 677.712 17.3866C677.935 17.6776 678.268 17.8231 678.709 17.8231C679.09 17.8231 679.477 17.7437 679.87 17.5847V18.1788C679.568 18.3324 679.187 18.4092 678.728 18.4092ZM684.429 14.4726H682.96V18.3284H682.271V14.4726H680.814V13.8987H684.429V14.4726ZM688.535 18.3284L688.396 17.6979H688.366C688.142 17.9754 687.912 18.164 687.688 18.2637C687.465 18.3607 687.187 18.4092 686.848 18.4092C686.401 18.4092 686.044 18.296 685.79 18.0697C685.536 17.8434 685.409 17.5214 685.409 17.1037C685.409 16.2092 686.141 15.7403 687.604 15.6972L688.372 15.673V15.3981C688.372 15.0506 688.299 14.7946 688.142 14.6302C687.991 14.4632 687.749 14.3796 687.41 14.3796C687.035 14.3796 686.606 14.4928 686.128 14.7191L685.917 14.2058C686.141 14.0873 686.388 13.9943 686.648 13.927C686.914 13.8596 687.187 13.8259 687.453 13.8259C687.991 13.8259 688.39 13.9431 688.65 14.1775C688.91 14.412 689.043 14.7878 689.043 15.3052V18.3284H688.535ZM686.987 17.8555C687.41 17.8555 687.749 17.741 687.991 17.5119C688.233 17.2829 688.36 16.9623 688.36 16.55V16.1499L687.67 16.1782C687.126 16.197 686.733 16.2806 686.491 16.4288C686.249 16.5743 686.128 16.8019 686.128 17.1118C686.128 17.3543 686.201 17.5389 686.352 17.6655C686.503 17.7922 686.715 17.8555 686.987 17.8555ZM694.557 15.0101C694.557 15.2984 694.473 15.518 694.303 15.669C694.134 15.8171 693.898 15.9168 693.59 15.968V16.0044C693.977 16.0556 694.261 16.1661 694.436 16.3358C694.612 16.5056 694.702 16.74 694.702 17.039C694.702 17.4513 694.545 17.7693 694.237 17.9929C693.928 18.2165 693.475 18.3284 692.882 18.3284H690.887V13.8987H692.87C693.995 13.8987 694.557 14.2691 694.557 15.0101ZM694.019 16.9946C694.019 16.7548 693.922 16.581 693.735 16.4732C693.554 16.3628 693.245 16.3075 692.816 16.3075H691.57V17.7666H692.834C693.62 17.7666 694.019 17.5092 694.019 16.9946ZM693.892 15.0748C693.892 14.8592 693.801 14.707 693.632 14.6181C693.463 14.5265 693.209 14.4807 692.864 14.4807H691.57V15.7296H692.731C693.155 15.7296 693.457 15.6784 693.626 15.576C693.801 15.4735 693.892 15.3065 693.892 15.0748ZM698.766 13.8987H699.521L697.568 16.0367L699.685 18.3284H698.881L696.813 16.0852V18.3284H696.129V13.8987H696.813V16.0529L698.766 13.8987ZM703.736 18.3284L703.597 17.6979H703.567C703.337 17.9754 703.113 18.164 702.889 18.2637C702.666 18.3607 702.381 18.4092 702.049 18.4092C701.601 18.4092 701.245 18.296 700.991 18.0697C700.737 17.8434 700.61 17.5214 700.61 17.1037C700.61 16.2092 701.341 15.7403 702.805 15.6972L703.573 15.673V15.3981C703.573 15.0506 703.494 14.7946 703.343 14.6302C703.192 14.4632 702.944 14.3796 702.611 14.3796C702.23 14.3796 701.807 14.4928 701.329 14.7191L701.118 14.2058C701.341 14.0873 701.583 13.9943 701.849 13.927C702.115 13.8596 702.381 13.8259 702.654 13.8259C703.192 13.8259 703.591 13.9431 703.851 14.1775C704.111 14.412 704.244 14.7878 704.244 15.3052V18.3284H703.736ZM702.182 17.8555C702.611 17.8555 702.944 17.741 703.186 17.5119C703.434 17.2829 703.554 16.9623 703.554 16.55V16.1499L702.871 16.1782C702.327 16.197 701.928 16.2806 701.686 16.4288C701.45 16.5743 701.329 16.8019 701.329 17.1118C701.329 17.3543 701.402 17.5389 701.553 17.6655C701.704 17.7922 701.916 17.8555 702.182 17.8555Z" fill="white"/>
<path d="M664.814 93.1205C682.513 93.1205 696.861 79.091 696.861 61.7847C696.861 44.4785 682.513 30.449 664.814 30.449C647.115 30.449 632.768 44.4785 632.768 61.7847C632.768 79.091 647.115 93.1205 664.814 93.1205Z" stroke="#53BA70" stroke-width="3"/>
<g filter="url(#filter28_f_409_4310)">
<path d="M664.814 93.1205C682.513 93.1205 696.861 79.091 696.861 61.7847C696.861 44.4785 682.513 30.449 664.814 30.449C647.115 30.449 632.768 44.4785 632.768 61.7847C632.768 79.091 647.115 93.1205 664.814 93.1205Z" stroke="#53BA70" stroke-width="3"/>
</g>
<g filter="url(#filter29_f_409_4310)">
<path d="M664.814 93.1205C682.513 93.1205 696.861 79.091 696.861 61.7847C696.861 44.4785 682.513 30.449 664.814 30.449C647.115 30.449 632.768 44.4785 632.768 61.7847C632.768 79.091 647.115 93.1205 664.814 93.1205Z" stroke="#53BA70" stroke-width="3"/>
</g>
<g filter="url(#filter30_f_409_4310)">
<path d="M664.814 93.1205C682.513 93.1205 696.861 79.091 696.861 61.7847C696.861 44.4785 682.513 30.449 664.814 30.449C647.115 30.449 632.768 44.4785 632.768 61.7847C632.768 79.091 647.115 93.1205 664.814 93.1205Z" stroke="#53BA70" stroke-width="3"/>
</g>
<g filter="url(#filter31_f_409_4310)">
<path d="M664.814 93.1205C682.513 93.1205 696.861 79.091 696.861 61.7847C696.861 44.4785 682.513 30.449 664.814 30.449C647.115 30.449 632.768 44.4785 632.768 61.7847C632.768 79.091 647.115 93.1205 664.814 93.1205Z" stroke="#53BA70" stroke-width="3"/>
</g>
<path d="M665.117 81.5913C676.471 81.5913 685.675 72.5913 685.675 61.4892C685.675 50.387 676.471 41.387 665.117 41.387C653.763 41.387 644.559 50.387 644.559 61.4892C644.559 72.5913 653.763 81.5913 665.117 81.5913Z" fill="#292929" fill-opacity="0.3"/>
<path d="M654.529 60.983C654.529 59.3559 654.801 58.0883 655.34 57.1801C655.884 56.2625 656.833 55.8037 658.187 55.8037C659.53 55.8037 660.473 56.2625 661.017 57.1801C661.555 58.0883 661.827 59.3559 661.827 60.983C661.827 62.6385 661.555 63.925 661.017 64.8426C660.473 65.7602 659.53 66.219 658.187 66.219C656.833 66.219 655.884 65.7602 655.34 64.8426C654.801 63.925 654.529 62.6385 654.529 60.983ZM660.521 60.983C660.521 60.16 660.461 59.4647 660.346 58.8971C660.243 58.32 660.013 57.8565 659.663 57.5065C659.324 57.1565 658.834 56.9815 658.187 56.9815C657.528 56.9815 657.027 57.1565 656.676 57.5065C656.337 57.8565 656.107 58.32 655.993 58.8971C655.89 59.4647 655.835 60.16 655.835 60.983C655.835 61.8344 655.89 62.5486 655.993 63.1256C656.107 63.7027 656.337 64.1662 656.676 64.5162C657.027 64.8663 657.528 65.0413 658.187 65.0413C658.834 65.0413 659.324 64.8663 659.663 64.5162C660.013 64.1662 660.243 63.7027 660.346 63.1256C660.461 62.5486 660.521 61.8344 660.521 60.983ZM667.009 60.8837C666.465 60.6755 666.048 60.3728 665.758 59.9755C665.467 59.5782 665.322 59.0957 665.322 58.5281C665.322 58.0173 665.455 57.5585 665.715 57.1517C665.975 56.7355 666.362 56.4091 666.876 56.1726C667.396 55.9267 668.025 55.8037 668.763 55.8037C669.5 55.8037 670.123 55.9267 670.637 56.1726C671.157 56.4091 671.55 56.7355 671.81 57.1517C672.082 57.5585 672.215 58.0173 672.215 58.5281C672.215 59.0768 672.064 59.5593 671.768 59.9755C671.466 60.3823 671.054 60.685 670.534 60.8837C671.133 61.0634 671.605 61.3803 671.955 61.8344C672.312 62.279 672.493 62.8182 672.493 63.452C672.493 64.0669 672.336 64.6061 672.028 65.0696C671.72 65.5237 671.278 65.8785 670.71 66.1339C670.147 66.3798 669.5 66.5028 668.763 66.5028C668.025 66.5028 667.378 66.3798 666.816 66.1339C666.266 65.8785 665.836 65.5237 665.528 65.0696C665.22 64.6061 665.062 64.0669 665.062 63.452C665.062 62.8182 665.238 62.2742 665.582 61.8202C665.933 61.3661 666.405 61.0539 667.009 60.8837ZM670.94 58.6842C670.94 58.1072 670.746 57.6626 670.359 57.3504C669.972 57.0382 669.44 56.8821 668.763 56.8821C668.098 56.8821 667.566 57.0382 667.179 57.3504C666.792 57.6626 666.598 58.1119 666.598 58.6984C666.598 59.2282 666.798 59.6539 667.197 59.9755C667.602 60.2971 668.122 60.458 668.763 60.458C669.41 60.458 669.936 60.2971 670.329 59.9755C670.734 59.6444 670.94 59.214 670.94 58.6842ZM668.763 61.4512C668.049 61.4512 667.463 61.6168 667.009 61.9479C666.55 62.2695 666.326 62.7567 666.326 63.4094C666.326 64.0149 666.544 64.502 666.979 64.871C667.42 65.2399 668.019 65.4244 668.763 65.4244C669.507 65.4244 670.099 65.2399 670.534 64.871C670.97 64.502 671.187 64.0149 671.187 63.4094C671.187 62.7756 670.964 62.2932 670.516 61.9621C670.075 61.6215 669.488 61.4512 668.763 61.4512ZM676.333 66.3041C676.085 66.3041 675.874 66.219 675.698 66.0487C675.523 65.8785 675.438 65.6703 675.438 65.4244C675.438 65.1784 675.523 64.9703 675.698 64.8C675.874 64.6298 676.085 64.5446 676.333 64.5446C676.575 64.5446 676.781 64.6298 676.944 64.8C677.119 64.9703 677.204 65.1784 677.204 65.4244C677.204 65.6703 677.119 65.8785 676.944 66.0487C676.781 66.219 676.575 66.3041 676.333 66.3041Z" fill="white"/>
<path d="M63.791 102.876V138.35" stroke="white"/>
<path d="M141.488 179.442H105.209" stroke="#BCBEC0"/>
<path d="M261.814 179.442H225.535" stroke="#BCBEC0"/>
<path d="M382.139 179.442H345.86" stroke="#BCBEC0"/>
<path d="M502.466 179.442H466.187" stroke="#BCBEC0"/>
<path d="M622.791 179.442H586.512" stroke="#BCBEC0"/>
<path d="M665.419 138.35V102.876" stroke="#BCBEC0"/>
</g>
<defs>
<filter id="filter0_f_409_4310" x="-20.3604" y="-21.051" width="167.093" height="165.672" filterUnits="userSpaceOnUse" color-interpolation-filters="sRGB">
<feFlood flood-opacity="0" result="BackgroundImageFix"/>
<feBlend mode="normal" in="SourceGraphic" in2="BackgroundImageFix" result="shape"/>
<feGaussianBlur stdDeviation="25" result="effect1_foregroundBlur_409_4310"/>
</filter>
<filter id="filter1_f_409_4310" x="4.63965" y="3.94897" width="117.093" height="115.672" filterUnits="userSpaceOnUse" color-interpolation-filters="sRGB">
<feFlood flood-opacity="0" result="BackgroundImageFix"/>
<feBlend mode="normal" in="SourceGraphic" in2="BackgroundImageFix" result="shape"/>
<feGaussianBlur stdDeviation="12.5" result="effect1_foregroundBlur_409_4310"/>
</filter>
<filter id="filter2_f_409_4310" x="14.6396" y="13.949" width="97.0928" height="95.6716" filterUnits="userSpaceOnUse" color-interpolation-filters="sRGB">
<feFlood flood-opacity="0" result="BackgroundImageFix"/>
<feBlend mode="normal" in="SourceGraphic" in2="BackgroundImageFix" result="shape"/>
<feGaussianBlur stdDeviation="7.5" result="effect1_foregroundBlur_409_4310"/>
</filter>
<filter id="filter3_f_409_4310" x="19.6396" y="18.949" width="87.0928" height="85.6716" filterUnits="userSpaceOnUse" color-interpolation-filters="sRGB">
<feFlood flood-opacity="0" result="BackgroundImageFix"/>
<feBlend mode="normal" in="SourceGraphic" in2="BackgroundImageFix" result="shape"/>
<feGaussianBlur stdDeviation="5" result="effect1_foregroundBlur_409_4310"/>
</filter>
<filter id="filter4_f_409_4310" x="-20.3604" y="96.606" width="167.093" height="165.672" filterUnits="userSpaceOnUse" color-interpolation-filters="sRGB">
<feFlood flood-opacity="0" result="BackgroundImageFix"/>
<feBlend mode="normal" in="SourceGraphic" in2="BackgroundImageFix" result="shape"/>
<feGaussianBlur stdDeviation="25" result="effect1_foregroundBlur_409_4310"/>
</filter>
<filter id="filter5_f_409_4310" x="4.63965" y="121.606" width="117.093" height="115.672" filterUnits="userSpaceOnUse" color-interpolation-filters="sRGB">
<feFlood flood-opacity="0" result="BackgroundImageFix"/>
<feBlend mode="normal" in="SourceGraphic" in2="BackgroundImageFix" result="shape"/>
<feGaussianBlur stdDeviation="12.5" result="effect1_foregroundBlur_409_4310"/>
</filter>
<filter id="filter6_f_409_4310" x="14.6396" y="131.606" width="97.0928" height="95.6716" filterUnits="userSpaceOnUse" color-interpolation-filters="sRGB">
<feFlood flood-opacity="0" result="BackgroundImageFix"/>
<feBlend mode="normal" in="SourceGraphic" in2="BackgroundImageFix" result="shape"/>
<feGaussianBlur stdDeviation="7.5" result="effect1_foregroundBlur_409_4310"/>
</filter>
<filter id="filter7_f_409_4310" x="19.6396" y="136.606" width="87.0928" height="85.6716" filterUnits="userSpaceOnUse" color-interpolation-filters="sRGB">
<feFlood flood-opacity="0" result="BackgroundImageFix"/>
<feBlend mode="normal" in="SourceGraphic" in2="BackgroundImageFix" result="shape"/>
<feGaussianBlur stdDeviation="5" result="effect1_foregroundBlur_409_4310"/>
</filter>
<filter id="filter8_f_409_4310" x="99.9648" y="96.606" width="167.093" height="165.672" filterUnits="userSpaceOnUse" color-interpolation-filters="sRGB">
<feFlood flood-opacity="0" result="BackgroundImageFix"/>
<feBlend mode="normal" in="SourceGraphic" in2="BackgroundImageFix" result="shape"/>
<feGaussianBlur stdDeviation="25" result="effect1_foregroundBlur_409_4310"/>
</filter>
<filter id="filter9_f_409_4310" x="124.965" y="121.606" width="117.093" height="115.672" filterUnits="userSpaceOnUse" color-interpolation-filters="sRGB">
<feFlood flood-opacity="0" result="BackgroundImageFix"/>
<feBlend mode="normal" in="SourceGraphic" in2="BackgroundImageFix" result="shape"/>
<feGaussianBlur stdDeviation="12.5" result="effect1_foregroundBlur_409_4310"/>
</filter>
<filter id="filter10_f_409_4310" x="134.965" y="131.606" width="97.0928" height="95.6716" filterUnits="userSpaceOnUse" color-interpolation-filters="sRGB">
<feFlood flood-opacity="0" result="BackgroundImageFix"/>
<feBlend mode="normal" in="SourceGraphic" in2="BackgroundImageFix" result="shape"/>
<feGaussianBlur stdDeviation="7.5" result="effect1_foregroundBlur_409_4310"/>
</filter>
<filter id="filter11_f_409_4310" x="139.965" y="136.606" width="87.0928" height="85.6716" filterUnits="userSpaceOnUse" color-interpolation-filters="sRGB">
<feFlood flood-opacity="0" result="BackgroundImageFix"/>
<feBlend mode="normal" in="SourceGraphic" in2="BackgroundImageFix" result="shape"/>
<feGaussianBlur stdDeviation="5" result="effect1_foregroundBlur_409_4310"/>
</filter>
<filter id="filter12_f_409_4310" x="220.291" y="96.606" width="167.093" height="165.672" filterUnits="userSpaceOnUse" color-interpolation-filters="sRGB">
<feFlood flood-opacity="0" result="BackgroundImageFix"/>
<feBlend mode="normal" in="SourceGraphic" in2="BackgroundImageFix" result="shape"/>
<feGaussianBlur stdDeviation="25" result="effect1_foregroundBlur_409_4310"/>
</filter>
<filter id="filter13_f_409_4310" x="245.291" y="121.606" width="117.093" height="115.672" filterUnits="userSpaceOnUse" color-interpolation-filters="sRGB">
<feFlood flood-opacity="0" result="BackgroundImageFix"/>
<feBlend mode="normal" in="SourceGraphic" in2="BackgroundImageFix" result="shape"/>
<feGaussianBlur stdDeviation="12.5" result="effect1_foregroundBlur_409_4310"/>
</filter>
<filter id="filter14_f_409_4310" x="255.291" y="131.606" width="97.0928" height="95.6716" filterUnits="userSpaceOnUse" color-interpolation-filters="sRGB">
<feFlood flood-opacity="0" result="BackgroundImageFix"/>
<feBlend mode="normal" in="SourceGraphic" in2="BackgroundImageFix" result="shape"/>
<feGaussianBlur stdDeviation="7.5" result="effect1_foregroundBlur_409_4310"/>
</filter>
<filter id="filter15_f_409_4310" x="260.291" y="136.606" width="87.0928" height="85.6716" filterUnits="userSpaceOnUse" color-interpolation-filters="sRGB">
<feFlood flood-opacity="0" result="BackgroundImageFix"/>
<feBlend mode="normal" in="SourceGraphic" in2="BackgroundImageFix" result="shape"/>
<feGaussianBlur stdDeviation="5" result="effect1_foregroundBlur_409_4310"/>
</filter>
<filter id="filter16_f_409_4310" x="340.616" y="96.606" width="167.093" height="165.672" filterUnits="userSpaceOnUse" color-interpolation-filters="sRGB">
<feFlood flood-opacity="0" result="BackgroundImageFix"/>
<feBlend mode="normal" in="SourceGraphic" in2="BackgroundImageFix" result="shape"/>
<feGaussianBlur stdDeviation="25" result="effect1_foregroundBlur_409_4310"/>
</filter>
<filter id="filter17_f_409_4310" x="365.616" y="121.606" width="117.093" height="115.672" filterUnits="userSpaceOnUse" color-interpolation-filters="sRGB">
<feFlood flood-opacity="0" result="BackgroundImageFix"/>
<feBlend mode="normal" in="SourceGraphic" in2="BackgroundImageFix" result="shape"/>
<feGaussianBlur stdDeviation="12.5" result="effect1_foregroundBlur_409_4310"/>
</filter>
<filter id="filter18_f_409_4310" x="375.616" y="131.606" width="97.0928" height="95.6716" filterUnits="userSpaceOnUse" color-interpolation-filters="sRGB">
<feFlood flood-opacity="0" result="BackgroundImageFix"/>
<feBlend mode="normal" in="SourceGraphic" in2="BackgroundImageFix" result="shape"/>
<feGaussianBlur stdDeviation="7.5" result="effect1_foregroundBlur_409_4310"/>
</filter>
<filter id="filter19_f_409_4310" x="380.616" y="136.606" width="87.0928" height="85.6716" filterUnits="userSpaceOnUse" color-interpolation-filters="sRGB">
<feFlood flood-opacity="0" result="BackgroundImageFix"/>
<feBlend mode="normal" in="SourceGraphic" in2="BackgroundImageFix" result="shape"/>
<feGaussianBlur stdDeviation="5" result="effect1_foregroundBlur_409_4310"/>
</filter>
<filter id="filter20_f_409_4310" x="460.941" y="96.606" width="167.093" height="165.672" filterUnits="userSpaceOnUse" color-interpolation-filters="sRGB">
<feFlood flood-opacity="0" result="BackgroundImageFix"/>
<feBlend mode="normal" in="SourceGraphic" in2="BackgroundImageFix" result="shape"/>
<feGaussianBlur stdDeviation="25" result="effect1_foregroundBlur_409_4310"/>
</filter>
<filter id="filter21_f_409_4310" x="485.941" y="121.606" width="117.093" height="115.672" filterUnits="userSpaceOnUse" color-interpolation-filters="sRGB">
<feFlood flood-opacity="0" result="BackgroundImageFix"/>
<feBlend mode="normal" in="SourceGraphic" in2="BackgroundImageFix" result="shape"/>
<feGaussianBlur stdDeviation="12.5" result="effect1_foregroundBlur_409_4310"/>
</filter>
<filter id="filter22_f_409_4310" x="495.941" y="131.606" width="97.0928" height="95.6716" filterUnits="userSpaceOnUse" color-interpolation-filters="sRGB">
<feFlood flood-opacity="0" result="BackgroundImageFix"/>
<feBlend mode="normal" in="SourceGraphic" in2="BackgroundImageFix" result="shape"/>
<feGaussianBlur stdDeviation="7.5" result="effect1_foregroundBlur_409_4310"/>
</filter>
<filter id="filter23_f_409_4310" x="500.941" y="136.606" width="87.0928" height="85.6716" filterUnits="userSpaceOnUse" color-interpolation-filters="sRGB">
<feFlood flood-opacity="0" result="BackgroundImageFix"/>
<feBlend mode="normal" in="SourceGraphic" in2="BackgroundImageFix" result="shape"/>
<feGaussianBlur stdDeviation="5" result="effect1_foregroundBlur_409_4310"/>
</filter>
<filter id="filter24_f_409_4310" x="581.268" y="96.606" width="167.093" height="165.672" filterUnits="userSpaceOnUse" color-interpolation-filters="sRGB">
<feFlood flood-opacity="0" result="BackgroundImageFix"/>
<feBlend mode="normal" in="SourceGraphic" in2="BackgroundImageFix" result="shape"/>
<feGaussianBlur stdDeviation="25" result="effect1_foregroundBlur_409_4310"/>
</filter>
<filter id="filter25_f_409_4310" x="606.268" y="121.606" width="117.093" height="115.672" filterUnits="userSpaceOnUse" color-interpolation-filters="sRGB">
<feFlood flood-opacity="0" result="BackgroundImageFix"/>
<feBlend mode="normal" in="SourceGraphic" in2="BackgroundImageFix" result="shape"/>
<feGaussianBlur stdDeviation="12.5" result="effect1_foregroundBlur_409_4310"/>
</filter>
<filter id="filter26_f_409_4310" x="616.268" y="131.606" width="97.0928" height="95.6716" filterUnits="userSpaceOnUse" color-interpolation-filters="sRGB">
<feFlood flood-opacity="0" result="BackgroundImageFix"/>
<feBlend mode="normal" in="SourceGraphic" in2="BackgroundImageFix" result="shape"/>
<feGaussianBlur stdDeviation="7.5" result="effect1_foregroundBlur_409_4310"/>
</filter>
<filter id="filter27_f_409_4310" x="621.268" y="136.606" width="87.0928" height="85.6716" filterUnits="userSpaceOnUse" color-interpolation-filters="sRGB">
<feFlood flood-opacity="0" result="BackgroundImageFix"/>
<feBlend mode="normal" in="SourceGraphic" in2="BackgroundImageFix" result="shape"/>
<feGaussianBlur stdDeviation="5" result="effect1_foregroundBlur_409_4310"/>
</filter>
<filter id="filter28_f_409_4310" x="581.268" y="-21.051" width="167.093" height="165.672" filterUnits="userSpaceOnUse" color-interpolation-filters="sRGB">
<feFlood flood-opacity="0" result="BackgroundImageFix"/>
<feBlend mode="normal" in="SourceGraphic" in2="BackgroundImageFix" result="shape"/>
<feGaussianBlur stdDeviation="25" result="effect1_foregroundBlur_409_4310"/>
</filter>
<filter id="filter29_f_409_4310" x="606.268" y="3.94897" width="117.093" height="115.672" filterUnits="userSpaceOnUse" color-interpolation-filters="sRGB">
<feFlood flood-opacity="0" result="BackgroundImageFix"/>
<feBlend mode="normal" in="SourceGraphic" in2="BackgroundImageFix" result="shape"/>
<feGaussianBlur stdDeviation="12.5" result="effect1_foregroundBlur_409_4310"/>
</filter>
<filter id="filter30_f_409_4310" x="616.268" y="13.949" width="97.0928" height="95.6716" filterUnits="userSpaceOnUse" color-interpolation-filters="sRGB">
<feFlood flood-opacity="0" result="BackgroundImageFix"/>
<feBlend mode="normal" in="SourceGraphic" in2="BackgroundImageFix" result="shape"/>
<feGaussianBlur stdDeviation="7.5" result="effect1_foregroundBlur_409_4310"/>
</filter>
<filter id="filter31_f_409_4310" x="621.268" y="18.949" width="87.0928" height="85.6716" filterUnits="userSpaceOnUse" color-interpolation-filters="sRGB">
<feFlood flood-opacity="0" result="BackgroundImageFix"/>
<feBlend mode="normal" in="SourceGraphic" in2="BackgroundImageFix" result="shape"/>
<feGaussianBlur stdDeviation="5" result="effect1_foregroundBlur_409_4310"/>
</filter>
<clipPath id="clip0_409_4310">
<rect width="728" height="243" fill="white"/>
</clipPath>
</defs>
</svg>
