<svg width="1204" height="411" viewBox="0 0 1204 411" fill="none" xmlns="http://www.w3.org/2000/svg">
<path d="M65.7109 23.918C65.7109 24.9297 65.3646 25.709 64.6719 26.2559C63.9837 26.7982 62.9971 27.0693 61.7119 27.0693H60.5361V31H59.374V21.0059H61.9648C64.4622 21.0059 65.7109 21.9766 65.7109 23.918ZM60.5361 26.0713H61.582C62.612 26.0713 63.3571 25.9049 63.8174 25.5723C64.2777 25.2396 64.5078 24.7064 64.5078 23.9727C64.5078 23.3118 64.2913 22.8197 63.8584 22.4961C63.4255 22.1725 62.751 22.0107 61.835 22.0107H60.5361V26.0713ZM71.5037 31.1367C70.3963 31.1367 69.5213 30.7995 68.8787 30.125C68.2407 29.4505 67.9217 28.514 67.9217 27.3154C67.9217 26.1077 68.2179 25.1484 68.8104 24.4375C69.4074 23.7266 70.2072 23.3711 71.2098 23.3711C72.1486 23.3711 72.8914 23.681 73.4383 24.3008C73.9852 24.916 74.2586 25.7295 74.2586 26.7412V27.459H69.0975C69.1202 28.3385 69.3413 29.0062 69.7605 29.4619C70.1844 29.9176 70.7791 30.1455 71.5447 30.1455C72.3514 30.1455 73.1489 29.9769 73.9373 29.6396V30.6514C73.5363 30.8245 73.1557 30.9476 72.7957 31.0205C72.4402 31.098 72.0096 31.1367 71.5037 31.1367ZM71.1961 24.3213C70.5945 24.3213 70.1137 24.5173 69.7537 24.9092C69.3982 25.3011 69.1886 25.8434 69.1248 26.5361H73.0418C73.0418 25.8206 72.8823 25.2738 72.5633 24.8955C72.2443 24.5127 71.7885 24.3213 71.1961 24.3213ZM81.4117 24.4785H78.0348V31H76.9V23.5078H81.4117V24.4785ZM84.6684 23.5078V28.2588L84.6205 29.5029L84.6 29.8926L88.6537 23.5078H90.0688V31H89.0092V26.4199L89.0297 25.5176L89.0639 24.6289L85.017 31H83.602V23.5078H84.6684ZM96.1691 31.1367C95.0845 31.1367 94.2437 30.804 93.6467 30.1387C93.0542 29.4688 92.758 28.5231 92.758 27.3018C92.758 26.0485 93.0588 25.0801 93.6604 24.3965C94.2665 23.7129 95.1278 23.3711 96.2443 23.3711C96.6044 23.3711 96.9644 23.4098 97.3244 23.4873C97.6844 23.5648 97.967 23.6559 98.1721 23.7607L97.8234 24.7246C97.5728 24.6243 97.2993 24.5423 97.0031 24.4785C96.7069 24.4102 96.4449 24.376 96.217 24.376C94.6949 24.376 93.9338 25.3467 93.9338 27.2881C93.9338 28.2087 94.1184 28.915 94.4875 29.4072C94.8612 29.8994 95.4126 30.1455 96.1418 30.1455C96.7661 30.1455 97.4064 30.0111 98.0627 29.7422V30.7471C97.5614 31.0068 96.9302 31.1367 96.1691 31.1367ZM105.599 24.4785H103.165V31H102.03V24.4785H99.624V23.5078H105.599V24.4785ZM111.268 31.1367C110.781 31.1367 110.334 31.0479 109.929 30.8701C109.527 30.6878 109.19 30.4098 108.917 30.0361H108.835C108.889 30.4736 108.917 30.8883 108.917 31.2803V34.3633H107.782V23.5078H108.705L108.862 24.5332H108.917C109.208 24.123 109.548 23.8268 109.935 23.6445C110.323 23.4622 110.767 23.3711 111.268 23.3711C112.262 23.3711 113.027 23.7106 113.565 24.3896C114.108 25.0687 114.379 26.0212 114.379 27.2471C114.379 28.4775 114.103 29.4346 113.552 30.1182C113.005 30.7972 112.244 31.1367 111.268 31.1367ZM111.104 24.335C110.339 24.335 109.785 24.5469 109.443 24.9707C109.101 25.3945 108.926 26.069 108.917 26.9941V27.2471C108.917 28.2998 109.092 29.054 109.443 29.5098C109.794 29.9609 110.357 30.1865 111.132 30.1865C111.779 30.1865 112.285 29.9245 112.649 29.4004C113.018 28.8763 113.203 28.154 113.203 27.2334C113.203 26.2992 113.018 25.5837 112.649 25.0869C112.285 24.5856 111.77 24.335 111.104 24.335ZM121.675 31L121.45 29.9336H121.395C121.021 30.403 120.648 30.722 120.274 30.8906C119.905 31.0547 119.442 31.1367 118.886 31.1367C118.143 31.1367 117.56 30.9453 117.136 30.5625C116.717 30.1797 116.507 29.6351 116.507 28.9287C116.507 27.4157 117.717 26.6227 120.137 26.5498L121.409 26.5088V26.0439C121.409 25.4561 121.281 25.0231 121.026 24.7451C120.775 24.4626 120.372 24.3213 119.816 24.3213C119.192 24.3213 118.485 24.5127 117.697 24.8955L117.348 24.0273C117.717 23.8268 118.121 23.6696 118.558 23.5557C119 23.4417 119.442 23.3848 119.884 23.3848C120.778 23.3848 121.438 23.583 121.867 23.9795C122.3 24.376 122.516 25.0117 122.516 25.8867V31H121.675ZM119.112 30.2002C119.818 30.2002 120.372 30.0065 120.773 29.6191C121.179 29.2318 121.381 28.6895 121.381 27.9922V27.3154L120.247 27.3633C119.344 27.3952 118.693 27.5365 118.292 27.7871C117.895 28.0332 117.697 28.4183 117.697 28.9424C117.697 29.3525 117.82 29.6647 118.066 29.8789C118.317 30.0931 118.665 30.2002 119.112 30.2002ZM132.869 33.5908H131.734V31H125.561V23.5078H126.696V30.0225H130.674V23.5078H131.809V30.0225H132.869V33.5908ZM136.091 23.5078V28.2588L136.043 29.5029L136.023 29.8926L140.076 23.5078H141.491V31H140.432V26.4199L140.452 25.5176L140.487 24.6289L136.44 31H135.025V23.5078H136.091ZM144.974 31H143.647L145.801 27.835C145.222 27.7074 144.778 27.4613 144.468 27.0967C144.162 26.7275 144.01 26.265 144.01 25.709C144.01 25.0254 144.24 24.4876 144.7 24.0957C145.16 23.7038 145.803 23.5078 146.628 23.5078H149.964V31H148.829V28.0059H146.936L144.974 31ZM145.117 25.7227C145.117 26.5885 145.746 27.0215 147.004 27.0215H148.829V24.4922H146.771C145.669 24.4922 145.117 24.9023 145.117 25.7227Z" fill="white"/>
<circle cx="104.5" cy="104.5" r="53" stroke="#53BA70" stroke-width="3"/>
<g filter="url(#filter0_f_230_379)">
<circle cx="104.5" cy="104.5" r="53" stroke="#53BA70" stroke-width="3"/>
</g>
<g filter="url(#filter1_f_230_379)">
<circle cx="104.5" cy="104.5" r="53" stroke="#53BA70" stroke-width="3"/>
</g>
<g filter="url(#filter2_f_230_379)">
<circle cx="104.5" cy="104.5" r="53" stroke="#53BA70" stroke-width="3"/>
</g>
<g filter="url(#filter3_f_230_379)">
<circle cx="104.5" cy="104.5" r="53" stroke="#53BA70" stroke-width="3"/>
</g>
<circle cx="105" cy="104" r="34" fill="#292929" fill-opacity="0.3"/>
<path d="M90.488 103.144C90.488 100.392 90.936 98.248 91.832 96.712C92.728 95.16 94.296 94.384 96.536 94.384C98.76 94.384 100.32 95.16 101.216 96.712C102.112 98.248 102.56 100.392 102.56 103.144C102.56 105.944 102.112 108.12 101.216 109.672C100.32 111.224 98.76 112 96.536 112C94.296 112 92.728 111.224 91.832 109.672C90.936 108.12 90.488 105.944 90.488 103.144ZM100.4 103.144C100.4 101.752 100.304 100.576 100.112 99.616C99.936 98.64 99.56 97.856 98.984 97.264C98.424 96.672 97.608 96.376 96.536 96.376C95.448 96.376 94.616 96.672 94.04 97.264C93.48 97.856 93.104 98.64 92.912 99.616C92.736 100.576 92.648 101.752 92.648 103.144C92.648 104.584 92.736 105.792 92.912 106.768C93.104 107.744 93.48 108.528 94.04 109.12C94.616 109.712 95.448 110.008 96.536 110.008C97.608 110.008 98.424 109.712 98.984 109.12C99.56 108.528 99.936 107.744 100.112 106.768C100.304 105.792 100.4 104.584 100.4 103.144ZM107.382 96.64V94.648H111.894V112H109.686V96.64H107.382ZM119.102 112.144C118.686 112.144 118.334 112 118.046 111.712C117.758 111.424 117.614 111.072 117.614 110.656C117.614 110.24 117.758 109.888 118.046 109.6C118.334 109.312 118.686 109.168 119.102 109.168C119.502 109.168 119.838 109.312 120.11 109.6C120.398 109.888 120.542 110.24 120.542 110.656C120.542 111.072 120.398 111.424 120.11 111.712C119.838 112 119.502 112.144 119.102 112.144Z" fill="white"/>
<path d="M55.374 378.006H58.1973C59.5234 378.006 60.4827 378.204 61.0752 378.601C61.6676 378.997 61.9639 379.624 61.9639 380.48C61.9639 381.073 61.7975 381.563 61.4648 381.95C61.1367 382.333 60.6559 382.581 60.0225 382.695V382.764C61.54 383.023 62.2988 383.821 62.2988 385.156C62.2988 386.049 61.9958 386.747 61.3896 387.248C60.7881 387.749 59.945 388 58.8604 388H55.374V378.006ZM56.5361 382.285H58.4502C59.2705 382.285 59.8607 382.158 60.2207 381.902C60.5807 381.643 60.7607 381.207 60.7607 380.597C60.7607 380.036 60.5602 379.633 60.1592 379.387C59.7581 379.136 59.1201 379.011 58.2451 379.011H56.5361V382.285ZM56.5361 383.27V387.009H58.6211C59.4277 387.009 60.0339 386.854 60.4395 386.544C60.8496 386.229 61.0547 385.74 61.0547 385.074C61.0547 384.454 60.8451 383.999 60.4258 383.707C60.0111 383.415 59.3776 383.27 58.5254 383.27H56.5361ZM66.116 383.604H68.16C69.1124 383.604 69.8165 383.782 70.2723 384.138C70.7326 384.489 70.9627 385.015 70.9627 385.717C70.9627 386.469 70.7189 387.038 70.2312 387.426C69.7482 387.809 69.035 388 68.0916 388H64.9812V380.508H66.116V383.604ZM73.3553 388H72.2205V380.508H73.3553V388ZM66.116 384.582V387.05H68.0369C69.24 387.05 69.8416 386.628 69.8416 385.785C69.8416 385.366 69.7026 385.061 69.4246 384.869C69.1466 384.678 68.6727 384.582 68.0027 384.582H66.116ZM76.0787 383.509C76.0787 381.868 76.3202 380.59 76.8033 379.674C77.2864 378.753 78.052 378.179 79.1002 377.951C80.4036 377.673 81.552 377.448 82.5455 377.274L82.7574 378.272C81.176 378.537 80.0458 378.746 79.3668 378.901C78.706 379.052 78.2092 379.407 77.8766 379.968C77.5484 380.528 77.3684 381.292 77.3365 382.258H77.4186C77.7011 381.875 78.0657 381.574 78.5123 381.355C78.9589 381.137 79.426 381.027 79.9137 381.027C80.8342 381.027 81.552 381.326 82.067 381.923C82.582 382.52 82.8395 383.347 82.8395 384.404C82.8395 385.576 82.541 386.492 81.9439 387.152C81.3469 387.809 80.5152 388.137 79.4488 388.137C78.3961 388.137 77.5712 387.733 76.9742 386.927C76.3772 386.12 76.0787 384.981 76.0787 383.509ZM79.5514 387.187C80.9413 387.187 81.6363 386.3 81.6363 384.527C81.6363 382.837 81.0051 381.991 79.7428 381.991C79.3964 381.991 79.0615 382.064 78.7379 382.21C78.4189 382.351 78.1249 382.54 77.8561 382.777C77.5917 383.014 77.3867 383.258 77.2408 383.509C77.2408 384.707 77.4299 385.621 77.8082 386.25C78.1865 386.874 78.7675 387.187 79.5514 387.187ZM91.9887 384.247C91.9887 385.468 91.6811 386.423 91.0658 387.111C90.4506 387.795 89.6007 388.137 88.516 388.137C87.8461 388.137 87.2514 387.979 86.7318 387.665C86.2123 387.351 85.8113 386.899 85.5287 386.312C85.2462 385.724 85.1049 385.035 85.1049 384.247C85.1049 383.026 85.4102 382.076 86.0209 381.396C86.6316 380.713 87.4792 380.371 88.5639 380.371C89.612 380.371 90.4438 380.72 91.059 381.417C91.6788 382.114 91.9887 383.058 91.9887 384.247ZM86.2807 384.247C86.2807 385.204 86.4721 385.933 86.8549 386.435C87.2377 386.936 87.8005 387.187 88.5434 387.187C89.2862 387.187 89.849 386.938 90.2318 386.441C90.6192 385.94 90.8129 385.209 90.8129 384.247C90.8129 383.295 90.6192 382.572 90.2318 382.08C89.849 381.583 89.2816 381.335 88.5297 381.335C87.7868 381.335 87.2263 381.579 86.848 382.066C86.4698 382.554 86.2807 383.281 86.2807 384.247ZM98.1711 388.137C97.6835 388.137 97.2368 388.048 96.8312 387.87C96.4302 387.688 96.093 387.41 95.8195 387.036H95.7375C95.7922 387.474 95.8195 387.888 95.8195 388.28V391.363H94.6848V380.508H95.6076L95.7648 381.533H95.8195C96.1112 381.123 96.4507 380.827 96.8381 380.645C97.2255 380.462 97.6698 380.371 98.1711 380.371C99.1646 380.371 99.9302 380.711 100.468 381.39C101.01 382.069 101.281 383.021 101.281 384.247C101.281 385.478 101.006 386.435 100.454 387.118C99.9074 387.797 99.1464 388.137 98.1711 388.137ZM98.007 381.335C97.2414 381.335 96.6877 381.547 96.3459 381.971C96.0041 382.395 95.8286 383.069 95.8195 383.994V384.247C95.8195 385.3 95.995 386.054 96.3459 386.51C96.6968 386.961 97.2596 387.187 98.0344 387.187C98.6815 387.187 99.1874 386.924 99.552 386.4C99.9211 385.876 100.106 385.154 100.106 384.233C100.106 383.299 99.9211 382.584 99.552 382.087C99.1874 381.586 98.6724 381.335 98.007 381.335ZM111.302 388.137C110.217 388.137 109.376 387.804 108.779 387.139C108.187 386.469 107.89 385.523 107.89 384.302C107.89 383.049 108.191 382.08 108.793 381.396C109.399 380.713 110.26 380.371 111.377 380.371C111.737 380.371 112.097 380.41 112.457 380.487C112.817 380.565 113.099 380.656 113.304 380.761L112.956 381.725C112.705 381.624 112.432 381.542 112.136 381.479C111.839 381.41 111.577 381.376 111.349 381.376C109.827 381.376 109.066 382.347 109.066 384.288C109.066 385.209 109.251 385.915 109.62 386.407C109.994 386.899 110.545 387.146 111.274 387.146C111.899 387.146 112.539 387.011 113.195 386.742V387.747C112.694 388.007 112.063 388.137 111.302 388.137ZM120.731 381.479H118.297V388H117.163V381.479H114.756V380.508H120.731V381.479ZM127.522 388L127.296 386.934H127.242C126.868 387.403 126.494 387.722 126.121 387.891C125.751 388.055 125.289 388.137 124.733 388.137C123.99 388.137 123.407 387.945 122.983 387.562C122.564 387.18 122.354 386.635 122.354 385.929C122.354 384.416 123.564 383.623 125.984 383.55L127.255 383.509V383.044C127.255 382.456 127.128 382.023 126.872 381.745C126.622 381.463 126.218 381.321 125.662 381.321C125.038 381.321 124.332 381.513 123.543 381.896L123.195 381.027C123.564 380.827 123.967 380.67 124.405 380.556C124.847 380.442 125.289 380.385 125.731 380.385C126.624 380.385 127.285 380.583 127.713 380.979C128.146 381.376 128.363 382.012 128.363 382.887V388H127.522ZM124.958 387.2C125.665 387.2 126.218 387.007 126.62 386.619C127.025 386.232 127.228 385.689 127.228 384.992V384.315L126.093 384.363C125.191 384.395 124.539 384.536 124.138 384.787C123.742 385.033 123.543 385.418 123.543 385.942C123.543 386.353 123.666 386.665 123.912 386.879C124.163 387.093 124.512 387.2 124.958 387.2ZM137.485 382.388C137.485 382.875 137.343 383.247 137.061 383.502C136.783 383.753 136.391 383.921 135.885 384.008V384.069C136.523 384.156 136.988 384.343 137.279 384.63C137.576 384.917 137.724 385.313 137.724 385.819C137.724 386.517 137.466 387.054 136.951 387.433C136.441 387.811 135.694 388 134.709 388H131.407V380.508H134.696C136.555 380.508 137.485 381.134 137.485 382.388ZM136.589 385.744C136.589 385.339 136.434 385.045 136.124 384.862C135.819 384.675 135.311 384.582 134.6 384.582H132.542V387.05H134.627C135.935 387.05 136.589 386.615 136.589 385.744ZM136.377 382.497C136.377 382.132 136.236 381.875 135.953 381.725C135.675 381.57 135.252 381.492 134.682 381.492H132.542V383.604H134.463C135.165 383.604 135.659 383.518 135.946 383.345C136.234 383.172 136.377 382.889 136.377 382.497ZM144.446 380.508H145.69L142.457 384.124L145.957 388H144.631L141.213 384.206V388H140.078V380.508H141.213V384.151L144.446 380.508ZM149.118 380.508V385.259L149.07 386.503L149.05 386.893L153.103 380.508H154.518V388H153.459V383.42L153.479 382.518L153.513 381.629L149.467 388H148.052V380.508H149.118Z" fill="white"/>
<circle cx="104.5" cy="303.5" r="53" stroke="#53BA70" stroke-width="3"/>
<g filter="url(#filter4_f_230_379)">
<circle cx="104.5" cy="303.5" r="53" stroke="#53BA70" stroke-width="3"/>
</g>
<g filter="url(#filter5_f_230_379)">
<circle cx="104.5" cy="303.5" r="53" stroke="#53BA70" stroke-width="3"/>
</g>
<g filter="url(#filter6_f_230_379)">
<circle cx="104.5" cy="303.5" r="53" stroke="#53BA70" stroke-width="3"/>
</g>
<g filter="url(#filter7_f_230_379)">
<circle cx="104.5" cy="303.5" r="53" stroke="#53BA70" stroke-width="3"/>
</g>
<circle cx="105" cy="303" r="34" fill="#292929" fill-opacity="0.3"/>
<path d="M87.488 302.144C87.488 299.392 87.936 297.248 88.832 295.712C89.728 294.16 91.296 293.384 93.536 293.384C95.76 293.384 97.32 294.16 98.216 295.712C99.112 297.248 99.56 299.392 99.56 302.144C99.56 304.944 99.112 307.12 98.216 308.672C97.32 310.224 95.76 311 93.536 311C91.296 311 89.728 310.224 88.832 308.672C87.936 307.12 87.488 304.944 87.488 302.144ZM97.4 302.144C97.4 300.752 97.304 299.576 97.112 298.616C96.936 297.64 96.56 296.856 95.984 296.264C95.424 295.672 94.608 295.376 93.536 295.376C92.448 295.376 91.616 295.672 91.04 296.264C90.48 296.856 90.104 297.64 89.912 298.616C89.736 299.576 89.648 300.752 89.648 302.144C89.648 303.584 89.736 304.792 89.912 305.768C90.104 306.744 90.48 307.528 91.04 308.12C91.616 308.712 92.448 309.008 93.536 309.008C94.608 309.008 95.424 308.712 95.984 308.12C96.56 307.528 96.936 306.744 97.112 305.768C97.304 304.792 97.4 303.584 97.4 302.144ZM104.694 309.248C106.726 307.616 108.318 306.28 109.47 305.24C110.622 304.184 111.59 303.088 112.374 301.952C113.174 300.8 113.574 299.672 113.574 298.568C113.574 297.528 113.318 296.712 112.806 296.12C112.31 295.512 111.502 295.208 110.382 295.208C109.294 295.208 108.446 295.552 107.838 296.24C107.246 296.912 106.926 297.816 106.878 298.952H104.766C104.83 297.16 105.374 295.776 106.398 294.8C107.422 293.824 108.742 293.336 110.358 293.336C112.006 293.336 113.31 293.792 114.27 294.704C115.246 295.616 115.734 296.872 115.734 298.472C115.734 299.8 115.334 301.096 114.534 302.36C113.75 303.608 112.854 304.712 111.846 305.672C110.838 306.616 109.55 307.72 107.982 308.984H116.238V310.808H104.694V309.248ZM122.219 311.144C121.803 311.144 121.451 311 121.163 310.712C120.875 310.424 120.731 310.072 120.731 309.656C120.731 309.24 120.875 308.888 121.163 308.6C121.451 308.312 121.803 308.168 122.219 308.168C122.619 308.168 122.955 308.312 123.227 308.6C123.515 308.888 123.659 309.24 123.659 309.656C123.659 310.072 123.515 310.424 123.227 310.712C122.955 311 122.619 311.144 122.219 311.144Z" fill="white"/>
<path d="M265.832 388H264.67V379.038H259.536V388H258.374V378.006H265.832V388ZM275.583 384.247C275.583 385.468 275.275 386.423 274.66 387.111C274.045 387.795 273.195 388.137 272.11 388.137C271.44 388.137 270.846 387.979 270.326 387.665C269.806 387.351 269.405 386.899 269.123 386.312C268.84 385.724 268.699 385.035 268.699 384.247C268.699 383.026 269.004 382.076 269.615 381.396C270.226 380.713 271.073 380.371 272.158 380.371C273.206 380.371 274.038 380.72 274.653 381.417C275.273 382.114 275.583 383.058 275.583 384.247ZM269.875 384.247C269.875 385.204 270.066 385.933 270.449 386.435C270.832 386.936 271.395 387.187 272.137 387.187C272.88 387.187 273.443 386.938 273.826 386.441C274.213 385.94 274.407 385.209 274.407 384.247C274.407 383.295 274.213 382.572 273.826 382.08C273.443 381.583 272.876 381.335 272.124 381.335C271.381 381.335 270.82 381.579 270.442 382.066C270.064 382.554 269.875 383.281 269.875 384.247ZM279.414 388H278.279V380.508H284.568V388H283.42V381.492H279.414V388ZM294.141 384.247C294.141 385.468 293.833 386.423 293.218 387.111C292.603 387.795 291.753 388.137 290.668 388.137C289.998 388.137 289.404 387.979 288.884 387.665C288.365 387.351 287.964 386.899 287.681 386.312C287.399 385.724 287.257 385.035 287.257 384.247C287.257 383.026 287.563 382.076 288.173 381.396C288.784 380.713 289.632 380.371 290.716 380.371C291.764 380.371 292.596 380.72 293.211 381.417C293.831 382.114 294.141 383.058 294.141 384.247ZM288.433 384.247C288.433 385.204 288.624 385.933 289.007 386.435C289.39 386.936 289.953 387.187 290.696 387.187C291.439 387.187 292.001 386.938 292.384 386.441C292.772 385.94 292.965 385.209 292.965 384.247C292.965 383.295 292.772 382.572 292.384 382.08C292.001 381.583 291.434 381.335 290.682 381.335C289.939 381.335 289.379 381.579 289 382.066C288.622 382.554 288.433 383.281 288.433 384.247ZM302.422 388H301.274V381.479H299.025C298.902 383.101 298.731 384.388 298.512 385.341C298.293 386.293 298.008 386.991 297.657 387.433C297.311 387.875 296.869 388.096 296.331 388.096C296.085 388.096 295.889 388.068 295.743 388.014V387.173C295.844 387.2 295.958 387.214 296.085 387.214C296.609 387.214 297.026 386.66 297.336 385.553C297.646 384.445 297.881 382.764 298.04 380.508H302.422V388ZM306.67 380.508V383.646H310.867V380.508H312.002V388H310.867V384.623H306.67V388H305.535V380.508H306.67ZM318.273 388.137C317.166 388.137 316.291 387.799 315.648 387.125C315.01 386.451 314.691 385.514 314.691 384.315C314.691 383.108 314.987 382.148 315.58 381.438C316.177 380.727 316.977 380.371 317.979 380.371C318.918 380.371 319.661 380.681 320.208 381.301C320.755 381.916 321.028 382.729 321.028 383.741V384.459H315.867C315.89 385.339 316.111 386.006 316.53 386.462C316.954 386.918 317.549 387.146 318.314 387.146C319.121 387.146 319.918 386.977 320.707 386.64V387.651C320.306 387.825 319.925 387.948 319.565 388.021C319.21 388.098 318.779 388.137 318.273 388.137ZM317.966 381.321C317.364 381.321 316.883 381.517 316.523 381.909C316.168 382.301 315.958 382.843 315.894 383.536H319.811C319.811 382.821 319.652 382.274 319.333 381.896C319.014 381.513 318.558 381.321 317.966 381.321ZM324.804 380.508V383.646H329.002V380.508H330.136V388H329.002V384.623H324.804V388H323.67V380.508H324.804ZM334.309 380.508V385.259L334.261 386.503L334.241 386.893L338.294 380.508H339.709V388H338.65V383.42L338.67 382.518L338.704 381.629L334.658 388H333.243V380.508H334.309ZM345.981 388.137C344.873 388.137 343.998 387.799 343.356 387.125C342.718 386.451 342.399 385.514 342.399 384.315C342.399 383.108 342.695 382.148 343.287 381.438C343.884 380.727 344.684 380.371 345.687 380.371C346.626 380.371 347.368 380.681 347.915 381.301C348.462 381.916 348.736 382.729 348.736 383.741V384.459H343.574C343.597 385.339 343.818 386.006 344.238 386.462C344.661 386.918 345.256 387.146 346.022 387.146C346.828 387.146 347.626 386.977 348.414 386.64V387.651C348.013 387.825 347.633 387.948 347.273 388.021C346.917 388.098 346.487 388.137 345.981 388.137ZM345.673 381.321C345.071 381.321 344.591 381.517 344.231 381.909C343.875 382.301 343.666 382.843 343.602 383.536H347.519C347.519 382.821 347.359 382.274 347.04 381.896C346.721 381.513 346.265 381.321 345.673 381.321ZM271.245 399.508H272.489L269.255 403.124L272.755 407H271.429L268.011 403.206V407H266.877V399.508H268.011V403.151L271.245 399.508ZM281.317 403.247C281.317 404.468 281.009 405.423 280.394 406.111C279.779 406.795 278.929 407.137 277.844 407.137C277.174 407.137 276.579 406.979 276.06 406.665C275.54 406.351 275.139 405.899 274.857 405.312C274.574 404.724 274.433 404.035 274.433 403.247C274.433 402.026 274.738 401.076 275.349 400.396C275.96 399.713 276.807 399.371 277.892 399.371C278.94 399.371 279.772 399.72 280.387 400.417C281.007 401.114 281.317 402.058 281.317 403.247ZM275.609 403.247C275.609 404.204 275.8 404.933 276.183 405.435C276.566 405.936 277.129 406.187 277.871 406.187C278.614 406.187 279.177 405.938 279.56 405.441C279.947 404.94 280.141 404.209 280.141 403.247C280.141 402.295 279.947 401.572 279.56 401.08C279.177 400.583 278.61 400.335 277.858 400.335C277.115 400.335 276.554 400.579 276.176 401.066C275.798 401.554 275.609 402.281 275.609 403.247ZM289.598 406.022H292.92V399.508H294.069V407H284.013V399.508H285.148V406.022H288.463V399.508H289.598V406.022ZM300.347 407.137C299.239 407.137 298.364 406.799 297.722 406.125C297.084 405.451 296.765 404.514 296.765 403.315C296.765 402.108 297.061 401.148 297.653 400.438C298.25 399.727 299.05 399.371 300.053 399.371C300.992 399.371 301.734 399.681 302.281 400.301C302.828 400.916 303.102 401.729 303.102 402.741V403.459H297.94C297.963 404.339 298.184 405.006 298.604 405.462C299.027 405.918 299.622 406.146 300.388 406.146C301.194 406.146 301.992 405.977 302.78 405.64V406.651C302.379 406.825 301.999 406.948 301.639 407.021C301.283 407.098 300.853 407.137 300.347 407.137ZM300.039 400.321C299.438 400.321 298.957 400.517 298.597 400.909C298.241 401.301 298.032 401.843 297.968 402.536H301.885C301.885 401.821 301.725 401.274 301.406 400.896C301.087 400.513 300.632 400.321 300.039 400.321ZM311.328 407H310.179V400.479H307.93C307.807 402.101 307.637 403.388 307.418 404.341C307.199 405.293 306.914 405.991 306.563 406.433C306.217 406.875 305.775 407.096 305.237 407.096C304.991 407.096 304.795 407.068 304.649 407.014V406.173C304.749 406.2 304.863 406.214 304.991 406.214C305.515 406.214 305.932 405.66 306.242 404.553C306.552 403.445 306.787 401.764 306.946 399.508H311.328V407ZM315.576 402.604H317.886C319.8 402.604 320.757 403.309 320.757 404.717C320.757 405.455 320.507 406.02 320.005 406.412C319.509 406.804 318.78 407 317.818 407H314.441V399.508H315.576V402.604ZM315.576 403.582V406.05H317.763C318.365 406.05 318.825 405.945 319.144 405.735C319.463 405.526 319.623 405.209 319.623 404.785C319.623 404.37 319.475 404.067 319.178 403.876C318.887 403.68 318.404 403.582 317.729 403.582H315.576ZM327.794 399.508H329.038L325.805 403.124L329.305 407H327.979L324.561 403.206V407H323.426V399.508H324.561V403.151L327.794 399.508ZM336.007 407L335.781 405.934H335.727C335.353 406.403 334.979 406.722 334.606 406.891C334.237 407.055 333.774 407.137 333.218 407.137C332.475 407.137 331.892 406.945 331.468 406.562C331.049 406.18 330.839 405.635 330.839 404.929C330.839 403.416 332.049 402.623 334.469 402.55L335.74 402.509V402.044C335.74 401.456 335.613 401.023 335.358 400.745C335.107 400.463 334.704 400.321 334.148 400.321C333.523 400.321 332.817 400.513 332.029 400.896L331.68 400.027C332.049 399.827 332.452 399.67 332.89 399.556C333.332 399.442 333.774 399.385 334.216 399.385C335.109 399.385 335.77 399.583 336.198 399.979C336.631 400.376 336.848 401.012 336.848 401.887V407H336.007ZM333.444 406.2C334.15 406.2 334.704 406.007 335.105 405.619C335.51 405.232 335.713 404.689 335.713 403.992V403.315L334.578 403.363C333.676 403.395 333.024 403.536 332.623 403.787C332.227 404.033 332.029 404.418 332.029 404.942C332.029 405.353 332.152 405.665 332.398 405.879C332.648 406.093 332.997 406.2 333.444 406.2Z" fill="white"/>
<circle cx="303.5" cy="303.5" r="53" stroke="#53BA70" stroke-width="3"/>
<g filter="url(#filter8_f_230_379)">
<circle cx="303.5" cy="303.5" r="53" stroke="#53BA70" stroke-width="3"/>
</g>
<g filter="url(#filter9_f_230_379)">
<circle cx="303.5" cy="303.5" r="53" stroke="#53BA70" stroke-width="3"/>
</g>
<g filter="url(#filter10_f_230_379)">
<circle cx="303.5" cy="303.5" r="53" stroke="#53BA70" stroke-width="3"/>
</g>
<g filter="url(#filter11_f_230_379)">
<circle cx="303.5" cy="303.5" r="53" stroke="#53BA70" stroke-width="3"/>
</g>
<circle cx="304" cy="303" r="34" fill="#292929" fill-opacity="0.3"/>
<path d="M286.488 302.144C286.488 299.392 286.936 297.248 287.832 295.712C288.728 294.16 290.296 293.384 292.536 293.384C294.76 293.384 296.32 294.16 297.216 295.712C298.112 297.248 298.56 299.392 298.56 302.144C298.56 304.944 298.112 307.12 297.216 308.672C296.32 310.224 294.76 311 292.536 311C290.296 311 288.728 310.224 287.832 308.672C286.936 307.12 286.488 304.944 286.488 302.144ZM296.4 302.144C296.4 300.752 296.304 299.576 296.112 298.616C295.936 297.64 295.56 296.856 294.984 296.264C294.424 295.672 293.608 295.376 292.536 295.376C291.448 295.376 290.616 295.672 290.04 296.264C289.48 296.856 289.104 297.64 288.912 298.616C288.736 299.576 288.648 300.752 288.648 302.144C288.648 303.584 288.736 304.792 288.912 305.768C289.104 306.744 289.48 307.528 290.04 308.12C290.616 308.712 291.448 309.008 292.536 309.008C293.608 309.008 294.424 308.712 294.984 308.12C295.56 307.528 295.936 306.744 296.112 305.768C296.304 304.792 296.4 303.584 296.4 302.144ZM303.91 298.016C304.022 296.544 304.59 295.392 305.614 294.56C306.638 293.728 307.966 293.312 309.598 293.312C310.686 293.312 311.622 293.512 312.406 293.912C313.206 294.296 313.806 294.824 314.206 295.496C314.622 296.168 314.83 296.928 314.83 297.776C314.83 298.768 314.542 299.624 313.966 300.344C313.406 301.064 312.67 301.528 311.758 301.736V301.856C312.798 302.112 313.622 302.616 314.23 303.368C314.838 304.12 315.142 305.104 315.142 306.32C315.142 307.232 314.934 308.056 314.518 308.792C314.102 309.512 313.478 310.08 312.646 310.496C311.814 310.912 310.814 311.12 309.646 311.12C307.95 311.12 306.558 310.68 305.47 309.8C304.382 308.904 303.774 307.64 303.646 306.008H305.758C305.87 306.968 306.262 307.752 306.934 308.36C307.606 308.968 308.502 309.272 309.622 309.272C310.742 309.272 311.59 308.984 312.166 308.408C312.758 307.816 313.054 307.056 313.054 306.128C313.054 304.928 312.654 304.064 311.854 303.536C311.054 303.008 309.846 302.744 308.23 302.744H307.678V300.92H308.254C309.726 300.904 310.838 300.664 311.59 300.2C312.342 299.72 312.718 298.984 312.718 297.992C312.718 297.144 312.438 296.464 311.878 295.952C311.334 295.44 310.55 295.184 309.526 295.184C308.534 295.184 307.734 295.44 307.126 295.952C306.518 296.464 306.158 297.152 306.046 298.016H303.91ZM321.547 311.144C321.131 311.144 320.779 311 320.491 310.712C320.203 310.424 320.059 310.072 320.059 309.656C320.059 309.24 320.203 308.888 320.491 308.6C320.779 308.312 321.131 308.168 321.547 308.168C321.947 308.168 322.283 308.312 322.555 308.6C322.843 308.888 322.987 309.24 322.987 309.656C322.987 310.072 322.843 310.424 322.555 310.712C322.283 311 321.947 311.144 321.547 311.144Z" fill="white"/>
<path d="M456.653 378.901C455.555 378.901 454.687 379.268 454.049 380.002C453.415 380.731 453.099 381.731 453.099 383.003C453.099 384.311 453.404 385.323 454.015 386.038C454.63 386.749 455.505 387.104 456.64 387.104C457.337 387.104 458.132 386.979 459.025 386.729V387.747C458.333 388.007 457.478 388.137 456.462 388.137C454.99 388.137 453.853 387.69 453.051 386.797C452.253 385.904 451.854 384.634 451.854 382.989C451.854 381.959 452.046 381.057 452.429 380.282C452.816 379.507 453.372 378.91 454.097 378.491C454.826 378.072 455.683 377.862 456.667 377.862C457.715 377.862 458.631 378.054 459.415 378.437L458.923 379.435C458.166 379.079 457.41 378.901 456.653 378.901ZM460.546 380.508H461.762L463.403 384.78C463.763 385.756 463.986 386.46 464.073 386.893H464.128C464.187 386.66 464.31 386.264 464.497 385.703C464.688 385.138 465.308 383.406 466.356 380.508H467.573L464.353 389.039C464.034 389.882 463.661 390.479 463.232 390.83C462.808 391.186 462.287 391.363 461.667 391.363C461.32 391.363 460.979 391.325 460.641 391.247V390.338C460.892 390.393 461.172 390.42 461.482 390.42C462.262 390.42 462.818 389.982 463.15 389.107L463.567 388.041L460.546 380.508ZM473.379 386.906L473.591 386.271L473.885 385.464L475.916 380.521H477.358V388H476.353V381.813L476.216 382.21L475.82 383.256L473.885 388H472.935L471.001 383.242C470.759 382.632 470.593 382.155 470.502 381.813V388H469.49V380.521H470.878L472.839 385.272C473.035 385.774 473.215 386.318 473.379 386.906ZM484.374 386.906L484.586 386.271L484.88 385.464L486.911 380.521H488.353V388H487.348V381.813L487.211 382.21L486.815 383.256L484.88 388H483.93L481.996 383.242C481.754 382.632 481.588 382.155 481.496 381.813V388H480.485V380.521H481.872L483.834 385.272C484.03 385.774 484.21 386.318 484.374 386.906ZM496.087 388L495.862 386.934H495.807C495.433 387.403 495.059 387.722 494.686 387.891C494.317 388.055 493.854 388.137 493.298 388.137C492.555 388.137 491.972 387.945 491.548 387.562C491.129 387.18 490.919 386.635 490.919 385.929C490.919 384.416 492.129 383.623 494.549 383.55L495.821 383.509V383.044C495.821 382.456 495.693 382.023 495.438 381.745C495.187 381.463 494.784 381.321 494.228 381.321C493.603 381.321 492.897 381.513 492.109 381.896L491.76 381.027C492.129 380.827 492.532 380.67 492.97 380.556C493.412 380.442 493.854 380.385 494.296 380.385C495.189 380.385 495.85 380.583 496.279 380.979C496.711 381.376 496.928 382.012 496.928 382.887V388H496.087ZM493.524 387.2C494.23 387.2 494.784 387.007 495.185 386.619C495.59 386.232 495.793 385.689 495.793 384.992V384.315L494.658 384.363C493.756 384.395 493.104 384.536 492.703 384.787C492.307 385.033 492.109 385.418 492.109 385.942C492.109 386.353 492.232 386.665 492.478 386.879C492.728 387.093 493.077 387.2 493.524 387.2ZM507.304 388.137C506.219 388.137 505.378 387.804 504.781 387.139C504.189 386.469 503.892 385.523 503.892 384.302C503.892 383.049 504.193 382.08 504.795 381.396C505.401 380.713 506.262 380.371 507.379 380.371C507.739 380.371 508.099 380.41 508.459 380.487C508.819 380.565 509.101 380.656 509.306 380.761L508.958 381.725C508.707 381.624 508.434 381.542 508.138 381.479C507.841 381.41 507.579 381.376 507.351 381.376C505.829 381.376 505.068 382.347 505.068 384.288C505.068 385.209 505.253 385.915 505.622 386.407C505.996 386.899 506.547 387.146 507.276 387.146C507.901 387.146 508.541 387.011 509.197 386.742V387.747C508.696 388.007 508.065 388.137 507.304 388.137ZM516.733 381.479H514.299V388H513.165V381.479H510.758V380.508H516.733V381.479ZM523.524 388L523.298 386.934H523.244C522.87 387.403 522.496 387.722 522.122 387.891C521.753 388.055 521.291 388.137 520.735 388.137C519.992 388.137 519.409 387.945 518.985 387.562C518.565 387.18 518.356 386.635 518.356 385.929C518.356 384.416 519.566 383.623 521.986 383.55L523.257 383.509V383.044C523.257 382.456 523.13 382.023 522.874 381.745C522.624 381.463 522.22 381.321 521.664 381.321C521.04 381.321 520.334 381.513 519.545 381.896L519.197 381.027C519.566 380.827 519.969 380.67 520.407 380.556C520.849 380.442 521.291 380.385 521.733 380.385C522.626 380.385 523.287 380.583 523.715 380.979C524.148 381.376 524.365 382.012 524.365 382.887V388H523.524ZM520.96 387.2C521.667 387.2 522.22 387.007 522.621 386.619C523.027 386.232 523.23 385.689 523.23 384.992V384.315L522.095 384.363C521.193 384.395 520.541 384.536 520.14 384.787C519.744 385.033 519.545 385.418 519.545 385.942C519.545 386.353 519.668 386.665 519.914 386.879C520.165 387.093 520.514 387.2 520.96 387.2ZM533.487 382.388C533.487 382.875 533.345 383.247 533.063 383.502C532.785 383.753 532.393 383.921 531.887 384.008V384.069C532.525 384.156 532.99 384.343 533.281 384.63C533.578 384.917 533.726 385.313 533.726 385.819C533.726 386.517 533.468 387.054 532.953 387.433C532.443 387.811 531.696 388 530.711 388H527.409V380.508H530.697C532.557 380.508 533.487 381.134 533.487 382.388ZM532.591 385.744C532.591 385.339 532.436 385.045 532.126 384.862C531.821 384.675 531.313 384.582 530.602 384.582H528.544V387.05H530.629C531.937 387.05 532.591 386.615 532.591 385.744ZM532.379 382.497C532.379 382.132 532.238 381.875 531.955 381.725C531.677 381.57 531.253 381.492 530.684 381.492H528.544V383.604H530.465C531.167 383.604 531.661 383.518 531.948 383.345C532.236 383.172 532.379 382.889 532.379 382.497ZM540.448 380.508H541.692L538.459 384.124L541.959 388H540.633L537.215 384.206V388H536.08V380.508H537.215V384.151L540.448 380.508ZM545.12 380.508V385.259L545.072 386.503L545.052 386.893L549.105 380.508H550.52V388H549.461V383.42L549.481 382.518L549.515 381.629L545.469 388H544.054V380.508H545.12Z" fill="white"/>
<circle cx="502.5" cy="303.5" r="53" stroke="#53BA70" stroke-width="3"/>
<g filter="url(#filter12_f_230_379)">
<circle cx="502.5" cy="303.5" r="53" stroke="#53BA70" stroke-width="3"/>
</g>
<g filter="url(#filter13_f_230_379)">
<circle cx="502.5" cy="303.5" r="53" stroke="#53BA70" stroke-width="3"/>
</g>
<g filter="url(#filter14_f_230_379)">
<circle cx="502.5" cy="303.5" r="53" stroke="#53BA70" stroke-width="3"/>
</g>
<g filter="url(#filter15_f_230_379)">
<circle cx="502.5" cy="303.5" r="53" stroke="#53BA70" stroke-width="3"/>
</g>
<circle cx="503" cy="303" r="34" fill="#292929" fill-opacity="0.3"/>
<path d="M485.488 302.144C485.488 299.392 485.936 297.248 486.832 295.712C487.728 294.16 489.296 293.384 491.536 293.384C493.76 293.384 495.32 294.16 496.216 295.712C497.112 297.248 497.56 299.392 497.56 302.144C497.56 304.944 497.112 307.12 496.216 308.672C495.32 310.224 493.76 311 491.536 311C489.296 311 487.728 310.224 486.832 308.672C485.936 307.12 485.488 304.944 485.488 302.144ZM495.4 302.144C495.4 300.752 495.304 299.576 495.112 298.616C494.936 297.64 494.56 296.856 493.984 296.264C493.424 295.672 492.608 295.376 491.536 295.376C490.448 295.376 489.616 295.672 489.04 296.264C488.48 296.856 488.104 297.64 487.912 298.616C487.736 299.576 487.648 300.752 487.648 302.144C487.648 303.584 487.736 304.792 487.912 305.768C488.104 306.744 488.48 307.528 489.04 308.12C489.616 308.712 490.448 309.008 491.536 309.008C492.608 309.008 493.424 308.712 493.984 308.12C494.56 307.528 494.936 306.744 495.112 305.768C495.304 304.792 495.4 303.584 495.4 302.144ZM502.43 307.136V305.48L510.854 293.816H513.47V305.24H515.87V307.136H513.47V311H511.31V307.136H502.43ZM511.406 296.096L504.95 305.24H511.406V296.096ZM521.508 311.144C521.092 311.144 520.74 311 520.452 310.712C520.164 310.424 520.02 310.072 520.02 309.656C520.02 309.24 520.164 308.888 520.452 308.6C520.74 308.312 521.092 308.168 521.508 308.168C521.908 308.168 522.244 308.312 522.516 308.6C522.804 308.888 522.948 309.24 522.948 309.656C522.948 310.072 522.804 310.424 522.516 310.712C522.244 311 521.908 311.144 521.508 311.144Z" fill="white"/>
<path d="M659.565 388H658.157L653.536 382.935V388H652.374V378.006H653.536V382.846L658.041 378.006H659.374L654.951 382.859L659.565 388ZM667.942 384.247C667.942 385.468 667.635 386.423 667.019 387.111C666.404 387.795 665.554 388.137 664.47 388.137C663.8 388.137 663.205 387.979 662.685 387.665C662.166 387.351 661.765 386.899 661.482 386.312C661.2 385.724 661.058 385.035 661.058 384.247C661.058 383.026 661.364 382.076 661.974 381.396C662.585 380.713 663.433 380.371 664.517 380.371C665.566 380.371 666.397 380.72 667.012 381.417C667.632 382.114 667.942 383.058 667.942 384.247ZM662.234 384.247C662.234 385.204 662.426 385.933 662.808 386.435C663.191 386.936 663.754 387.187 664.497 387.187C665.24 387.187 665.803 386.938 666.185 386.441C666.573 385.94 666.766 385.209 666.766 384.247C666.766 383.295 666.573 382.572 666.185 382.08C665.803 381.583 665.235 381.335 664.483 381.335C663.74 381.335 663.18 381.579 662.802 382.066C662.423 382.554 662.234 383.281 662.234 384.247ZM671.773 388.137C671.012 388.137 670.363 388.007 669.825 387.747V386.742C670.098 386.847 670.394 386.94 670.713 387.022C671.032 387.104 671.399 387.146 671.814 387.146C672.607 387.146 673.218 386.934 673.646 386.51C674.079 386.086 674.318 385.452 674.364 384.609H670.57V383.646H674.35C674.277 382.862 674.047 382.287 673.66 381.923C673.277 381.558 672.719 381.376 671.985 381.376C671.516 381.376 670.937 381.499 670.249 381.745L669.927 380.788C670.178 380.67 670.49 380.572 670.864 380.494C671.238 380.412 671.607 380.371 671.971 380.371C673.138 380.371 674.024 380.706 674.63 381.376C675.237 382.041 675.54 383.003 675.54 384.261C675.54 385.487 675.209 386.439 674.548 387.118C673.892 387.797 672.967 388.137 671.773 388.137ZM686.254 384.247C686.254 385.382 685.931 386.286 685.284 386.961C684.641 387.631 683.741 388.014 682.583 388.109V391.363H681.462V388.109C680.332 388.023 679.439 387.635 678.783 386.947C678.126 386.259 677.798 385.359 677.798 384.247C677.798 383.112 678.124 382.21 678.776 381.54C679.432 380.87 680.341 380.49 681.503 380.398V377.363H682.583V380.398C683.727 380.503 684.625 380.897 685.277 381.581C685.928 382.265 686.254 383.153 686.254 384.247ZM678.988 384.247C678.988 385.122 679.188 385.808 679.589 386.305C679.99 386.801 680.628 387.091 681.503 387.173V381.349C680.66 381.426 680.029 381.702 679.61 382.176C679.195 382.645 678.988 383.336 678.988 384.247ZM685.079 384.247C685.079 382.502 684.247 381.54 682.583 381.362V387.173C683.449 387.086 684.08 386.795 684.477 386.298C684.878 385.801 685.079 385.118 685.079 384.247ZM696.962 384.247C696.962 385.382 696.639 386.286 695.991 386.961C695.349 387.631 694.449 388.014 693.291 388.109V391.363H692.17V388.109C691.04 388.023 690.147 387.635 689.49 386.947C688.834 386.259 688.506 385.359 688.506 384.247C688.506 383.112 688.832 382.21 689.484 381.54C690.14 380.87 691.049 380.49 692.211 380.398V377.363H693.291V380.398C694.435 380.503 695.333 380.897 695.985 381.581C696.636 382.265 696.962 383.153 696.962 384.247ZM689.696 384.247C689.696 385.122 689.896 385.808 690.297 386.305C690.698 386.801 691.336 387.091 692.211 387.173V381.349C691.368 381.426 690.737 381.702 690.318 382.176C689.903 382.645 689.696 383.336 689.696 384.247ZM695.786 384.247C695.786 382.502 694.955 381.54 693.291 381.362V387.173C694.157 387.086 694.788 386.795 695.185 386.298C695.586 385.801 695.786 385.118 695.786 384.247ZM700.711 380.508V385.259L700.663 386.503L700.643 386.893L704.696 380.508H706.111V388H705.052V383.42L705.072 382.518L705.106 381.629L701.06 388H699.645V380.508H700.711ZM716.525 390.591H715.39V388H709.218V380.508H710.352V387.022H714.331V380.508H715.466V387.022H716.525V390.591ZM719.748 380.508V385.259L719.7 386.503L719.679 386.893L723.733 380.508H725.148V388H724.088V383.42L724.109 382.518L724.143 381.629L720.096 388H718.681V380.508H719.748ZM731.419 388.137C730.312 388.137 729.437 387.799 728.794 387.125C728.156 386.451 727.837 385.514 727.837 384.315C727.837 383.108 728.134 382.148 728.726 381.438C729.323 380.727 730.123 380.371 731.125 380.371C732.064 380.371 732.807 380.681 733.354 381.301C733.901 381.916 734.174 382.729 734.174 383.741V384.459H729.013C729.036 385.339 729.257 386.006 729.676 386.462C730.1 386.918 730.695 387.146 731.46 387.146C732.267 387.146 733.065 386.977 733.853 386.64V387.651C733.452 387.825 733.071 387.948 732.711 388.021C732.356 388.098 731.925 388.137 731.419 388.137ZM731.112 381.321C730.51 381.321 730.029 381.517 729.669 381.909C729.314 382.301 729.104 382.843 729.04 383.536H732.957C732.957 382.821 732.798 382.274 732.479 381.896C732.16 381.513 731.704 381.321 731.112 381.321ZM737.95 380.508V383.646H742.148V380.508H743.282V388H742.148V384.623H737.95V388H736.816V380.508H737.95ZM751.44 381.479H749.007V388H747.872V381.479H745.466V380.508H751.44V381.479Z" fill="white"/>
<circle cx="701.5" cy="303.5" r="53" stroke="#53BA70" stroke-width="3"/>
<g filter="url(#filter16_f_230_379)">
<circle cx="701.5" cy="303.5" r="53" stroke="#53BA70" stroke-width="3"/>
</g>
<g filter="url(#filter17_f_230_379)">
<circle cx="701.5" cy="303.5" r="53" stroke="#53BA70" stroke-width="3"/>
</g>
<g filter="url(#filter18_f_230_379)">
<circle cx="701.5" cy="303.5" r="53" stroke="#53BA70" stroke-width="3"/>
</g>
<g filter="url(#filter19_f_230_379)">
<circle cx="701.5" cy="303.5" r="53" stroke="#53BA70" stroke-width="3"/>
</g>
<circle cx="702" cy="303" r="34" fill="#292929" fill-opacity="0.3"/>
<path d="M684.488 302.144C684.488 299.392 684.936 297.248 685.832 295.712C686.728 294.16 688.296 293.384 690.536 293.384C692.76 293.384 694.32 294.16 695.216 295.712C696.112 297.248 696.56 299.392 696.56 302.144C696.56 304.944 696.112 307.12 695.216 308.672C694.32 310.224 692.76 311 690.536 311C688.296 311 686.728 310.224 685.832 308.672C684.936 307.12 684.488 304.944 684.488 302.144ZM694.4 302.144C694.4 300.752 694.304 299.576 694.112 298.616C693.936 297.64 693.56 296.856 692.984 296.264C692.424 295.672 691.608 295.376 690.536 295.376C689.448 295.376 688.616 295.672 688.04 296.264C687.48 296.856 687.104 297.64 686.912 298.616C686.736 299.576 686.648 300.752 686.648 302.144C686.648 303.584 686.736 304.792 686.912 305.768C687.104 306.744 687.48 307.528 688.04 308.12C688.616 308.712 689.448 309.008 690.536 309.008C691.608 309.008 692.424 308.712 692.984 308.12C693.56 307.528 693.936 306.744 694.112 305.768C694.304 304.792 694.4 303.584 694.4 302.144ZM713.022 295.544H704.598V301.016C704.966 300.504 705.51 300.088 706.23 299.768C706.95 299.432 707.726 299.264 708.558 299.264C709.886 299.264 710.966 299.544 711.798 300.104C712.63 300.648 713.222 301.36 713.574 302.24C713.942 303.104 714.126 304.024 714.126 305C714.126 306.152 713.91 307.184 713.478 308.096C713.046 309.008 712.382 309.728 711.486 310.256C710.606 310.784 709.51 311.048 708.198 311.048C706.518 311.048 705.158 310.616 704.118 309.752C703.078 308.888 702.446 307.736 702.222 306.296H704.358C704.566 307.208 705.006 307.92 705.678 308.432C706.35 308.944 707.198 309.2 708.222 309.2C709.486 309.2 710.438 308.824 711.078 308.072C711.718 307.304 712.038 306.296 712.038 305.048C712.038 303.8 711.718 302.84 711.078 302.168C710.438 301.48 709.494 301.136 708.246 301.136C707.398 301.136 706.654 301.344 706.014 301.76C705.39 302.16 704.934 302.712 704.646 303.416H702.582V293.624H713.022V295.544ZM720.485 311.144C720.069 311.144 719.717 311 719.429 310.712C719.141 310.424 718.997 310.072 718.997 309.656C718.997 309.24 719.141 308.888 719.429 308.6C719.717 308.312 720.069 308.168 720.485 308.168C720.885 308.168 721.221 308.312 721.493 308.6C721.781 308.888 721.925 309.24 721.925 309.656C721.925 310.072 721.781 310.424 721.493 310.712C721.221 311 720.885 311.144 720.485 311.144Z" fill="white"/>
<path d="M871.711 380.918C871.711 381.93 871.365 382.709 870.672 383.256C869.984 383.798 868.997 384.069 867.712 384.069H866.536V388H865.374V378.006H867.965C870.462 378.006 871.711 378.977 871.711 380.918ZM866.536 383.071H867.582C868.612 383.071 869.357 382.905 869.817 382.572C870.278 382.24 870.508 381.706 870.508 380.973C870.508 380.312 870.291 379.82 869.858 379.496C869.425 379.173 868.751 379.011 867.835 379.011H866.536V383.071ZM877.504 388.137C876.396 388.137 875.521 387.799 874.879 387.125C874.241 386.451 873.922 385.514 873.922 384.315C873.922 383.108 874.218 382.148 874.81 381.438C875.407 380.727 876.207 380.371 877.21 380.371C878.149 380.371 878.891 380.681 879.438 381.301C879.985 381.916 880.259 382.729 880.259 383.741V384.459H875.097C875.12 385.339 875.341 386.006 875.761 386.462C876.184 386.918 876.779 387.146 877.545 387.146C878.351 387.146 879.149 386.977 879.937 386.64V387.651C879.536 387.825 879.156 387.948 878.796 388.021C878.44 388.098 878.01 388.137 877.504 388.137ZM877.196 381.321C876.595 381.321 876.114 381.517 875.754 381.909C875.398 382.301 875.189 382.843 875.125 383.536H879.042C879.042 382.821 878.882 382.274 878.563 381.896C878.244 381.513 877.789 381.321 877.196 381.321ZM884.329 383.618C885.746 383.618 886.455 383.226 886.455 382.442C886.455 381.704 885.88 381.335 884.732 381.335C884.381 381.335 884.062 381.367 883.775 381.431C883.488 381.494 883.112 381.622 882.647 381.813L882.244 380.891C883.018 380.544 883.864 380.371 884.78 380.371C885.641 380.371 886.32 380.549 886.817 380.904C887.314 381.255 887.562 381.736 887.562 382.347C887.562 383.185 887.095 383.734 886.161 383.994V384.049C886.735 384.217 887.154 384.459 887.419 384.773C887.683 385.083 887.815 385.473 887.815 385.942C887.815 386.635 887.535 387.175 886.974 387.562C886.418 387.945 885.648 388.137 884.664 388.137C883.584 388.137 882.75 387.975 882.162 387.651V386.612C882.996 387.004 883.839 387.2 884.691 387.2C885.347 387.2 885.842 387.089 886.174 386.865C886.512 386.637 886.68 386.312 886.68 385.888C886.68 385.017 885.972 384.582 884.554 384.582H883.515V383.618H884.329ZM889.178 380.508H890.395L892.036 384.78C892.396 385.756 892.619 386.46 892.705 386.893H892.76C892.819 386.66 892.942 386.264 893.129 385.703C893.321 385.138 893.94 383.406 894.989 380.508H896.205L892.986 389.039C892.667 389.882 892.293 390.479 891.865 390.83C891.441 391.186 890.919 391.363 890.299 391.363C889.953 391.363 889.611 391.325 889.274 391.247V390.338C889.524 390.393 889.805 390.42 890.115 390.42C890.894 390.42 891.45 389.982 891.783 389.107L892.2 388.041L889.178 380.508ZM903.707 388H902.559V381.479H900.31C900.187 383.101 900.016 384.388 899.797 385.341C899.578 386.293 899.293 386.991 898.943 387.433C898.596 387.875 898.154 388.096 897.616 388.096C897.37 388.096 897.174 388.068 897.029 388.014V387.173C897.129 387.2 897.243 387.214 897.37 387.214C897.894 387.214 898.311 386.66 898.621 385.553C898.931 384.445 899.166 382.764 899.325 380.508H903.707V388ZM907.955 383.604H910.266C912.18 383.604 913.137 384.309 913.137 385.717C913.137 386.455 912.886 387.02 912.385 387.412C911.888 387.804 911.159 388 910.197 388H906.82V380.508H907.955V383.604ZM907.955 384.582V387.05H910.143C910.744 387.05 911.204 386.945 911.523 386.735C911.842 386.526 912.002 386.209 912.002 385.785C912.002 385.37 911.854 385.067 911.558 384.876C911.266 384.68 910.783 384.582 910.108 384.582H907.955ZM920.857 381.479H918.424V388H917.289V381.479H914.883V380.508H920.857V381.479ZM927.648 388L927.422 386.934H927.368C926.994 387.403 926.62 387.722 926.247 387.891C925.878 388.055 925.415 388.137 924.859 388.137C924.116 388.137 923.533 387.945 923.109 387.562C922.69 387.18 922.48 386.635 922.48 385.929C922.48 384.416 923.69 383.623 926.11 383.55L927.381 383.509V383.044C927.381 382.456 927.254 382.023 926.999 381.745C926.748 381.463 926.345 381.321 925.789 381.321C925.164 381.321 924.458 381.513 923.67 381.896L923.321 381.027C923.69 380.827 924.093 380.67 924.531 380.556C924.973 380.442 925.415 380.385 925.857 380.385C926.75 380.385 927.411 380.583 927.839 380.979C928.272 381.376 928.489 382.012 928.489 382.887V388H927.648ZM925.085 387.2C925.791 387.2 926.345 387.007 926.746 386.619C927.151 386.232 927.354 385.689 927.354 384.992V384.315L926.219 384.363C925.317 384.395 924.665 384.536 924.264 384.787C923.868 385.033 923.67 385.418 923.67 385.942C923.67 386.353 923.793 386.665 924.039 386.879C924.289 387.093 924.638 387.2 925.085 387.2ZM936.585 381.479H934.152V388H933.017V381.479H930.611V380.508H936.585V381.479Z" fill="white"/>
<circle cx="900.5" cy="303.5" r="53" stroke="#53BA70" stroke-width="3"/>
<g filter="url(#filter20_f_230_379)">
<circle cx="900.5" cy="303.5" r="53" stroke="#53BA70" stroke-width="3"/>
</g>
<g filter="url(#filter21_f_230_379)">
<circle cx="900.5" cy="303.5" r="53" stroke="#53BA70" stroke-width="3"/>
</g>
<g filter="url(#filter22_f_230_379)">
<circle cx="900.5" cy="303.5" r="53" stroke="#53BA70" stroke-width="3"/>
</g>
<g filter="url(#filter23_f_230_379)">
<circle cx="900.5" cy="303.5" r="53" stroke="#53BA70" stroke-width="3"/>
</g>
<circle cx="901" cy="303" r="34" fill="#292929" fill-opacity="0.3"/>
<path d="M883.488 302.144C883.488 299.392 883.936 297.248 884.832 295.712C885.728 294.16 887.296 293.384 889.536 293.384C891.76 293.384 893.32 294.16 894.216 295.712C895.112 297.248 895.56 299.392 895.56 302.144C895.56 304.944 895.112 307.12 894.216 308.672C893.32 310.224 891.76 311 889.536 311C887.296 311 885.728 310.224 884.832 308.672C883.936 307.12 883.488 304.944 883.488 302.144ZM893.4 302.144C893.4 300.752 893.304 299.576 893.112 298.616C892.936 297.64 892.56 296.856 891.984 296.264C891.424 295.672 890.608 295.376 889.536 295.376C888.448 295.376 887.616 295.672 887.04 296.264C886.48 296.856 886.104 297.64 885.912 298.616C885.736 299.576 885.648 300.752 885.648 302.144C885.648 303.584 885.736 304.792 885.912 305.768C886.104 306.744 886.48 307.528 887.04 308.12C887.616 308.712 888.448 309.008 889.536 309.008C890.608 309.008 891.424 308.712 891.984 308.12C892.56 307.528 892.936 306.744 893.112 305.768C893.304 304.792 893.4 303.584 893.4 302.144ZM910.63 297.776C910.278 296 909.182 295.112 907.342 295.112C905.918 295.112 904.854 295.664 904.15 296.768C903.446 297.856 903.102 299.656 903.118 302.168C903.486 301.336 904.094 300.688 904.942 300.224C905.806 299.744 906.766 299.504 907.822 299.504C909.47 299.504 910.782 300.016 911.758 301.04C912.75 302.064 913.246 303.48 913.246 305.288C913.246 306.376 913.03 307.352 912.598 308.216C912.182 309.08 911.542 309.768 910.678 310.28C909.83 310.792 908.798 311.048 907.582 311.048C905.934 311.048 904.646 310.68 903.718 309.944C902.79 309.208 902.142 308.192 901.774 306.896C901.406 305.6 901.222 304 901.222 302.096C901.222 296.224 903.27 293.288 907.366 293.288C908.934 293.288 910.166 293.712 911.062 294.56C911.958 295.408 912.486 296.48 912.646 297.776H910.63ZM907.366 301.352C906.678 301.352 906.03 301.496 905.422 301.784C904.814 302.056 904.318 302.48 903.934 303.056C903.566 303.616 903.382 304.304 903.382 305.12C903.382 306.336 903.734 307.328 904.438 308.096C905.142 308.848 906.15 309.224 907.462 309.224C908.582 309.224 909.47 308.88 910.126 308.192C910.798 307.488 911.134 306.544 911.134 305.36C911.134 304.112 910.814 303.136 910.174 302.432C909.534 301.712 908.598 301.352 907.366 301.352ZM919.649 311.144C919.233 311.144 918.881 311 918.593 310.712C918.305 310.424 918.161 310.072 918.161 309.656C918.161 309.24 918.305 308.888 918.593 308.6C918.881 308.312 919.233 308.168 919.649 308.168C920.049 308.168 920.385 308.312 920.657 308.6C920.945 308.888 921.089 309.24 921.089 309.656C921.089 310.072 920.945 310.424 920.657 310.712C920.385 311 920.049 311.144 919.649 311.144Z" fill="white"/>
<path d="M1025.83 388H1024.67V379.038H1019.54V388H1018.37V378.006H1025.83V388ZM1035.58 384.247C1035.58 385.468 1035.28 386.423 1034.66 387.111C1034.04 387.795 1033.19 388.137 1032.11 388.137C1031.44 388.137 1030.85 387.979 1030.33 387.665C1029.81 387.351 1029.41 386.899 1029.12 386.312C1028.84 385.724 1028.7 385.035 1028.7 384.247C1028.7 383.026 1029 382.076 1029.62 381.396C1030.23 380.713 1031.07 380.371 1032.16 380.371C1033.21 380.371 1034.04 380.72 1034.65 381.417C1035.27 382.114 1035.58 383.058 1035.58 384.247ZM1029.87 384.247C1029.87 385.204 1030.07 385.933 1030.45 386.435C1030.83 386.936 1031.39 387.187 1032.14 387.187C1032.88 387.187 1033.44 386.938 1033.83 386.441C1034.21 385.94 1034.41 385.209 1034.41 384.247C1034.41 383.295 1034.21 382.572 1033.83 382.08C1033.44 381.583 1032.88 381.335 1032.12 381.335C1031.38 381.335 1030.82 381.579 1030.44 382.066C1030.06 382.554 1029.87 383.281 1029.87 384.247ZM1043.86 388H1042.72V381.479H1040.47C1040.34 383.101 1040.17 384.388 1039.95 385.341C1039.73 386.293 1039.45 386.991 1039.1 387.433C1038.75 387.875 1038.31 388.096 1037.77 388.096C1037.53 388.096 1037.33 388.068 1037.19 388.014V387.173C1037.29 387.2 1037.4 387.214 1037.53 387.214C1038.05 387.214 1038.47 386.66 1038.78 385.553C1039.09 384.445 1039.32 382.764 1039.48 380.508H1043.86V388ZM1045.79 380.508H1047L1048.64 384.78C1049 385.756 1049.23 386.46 1049.31 386.893H1049.37C1049.43 386.66 1049.55 386.264 1049.74 385.703C1049.93 385.138 1050.55 383.406 1051.6 380.508H1052.81L1049.6 389.039C1049.28 389.882 1048.9 390.479 1048.47 390.83C1048.05 391.186 1047.53 391.363 1046.91 391.363C1046.56 391.363 1046.22 391.325 1045.88 391.247V390.338C1046.13 390.393 1046.41 390.42 1046.72 390.42C1047.5 390.42 1048.06 389.982 1048.39 389.107L1048.81 388.041L1045.79 380.508ZM1055.73 380.508V383.242C1055.73 384.117 1056.23 384.555 1057.23 384.555C1057.64 384.555 1058.04 384.491 1058.42 384.363C1058.79 384.236 1059.22 384.019 1059.7 383.714V380.508H1060.84V388H1059.7V384.609C1059.22 384.938 1058.78 385.17 1058.37 385.307C1057.96 385.439 1057.5 385.505 1056.99 385.505C1056.24 385.505 1055.65 385.309 1055.23 384.917C1054.81 384.525 1054.59 383.994 1054.59 383.324V380.508H1055.73ZM1067.11 388.137C1066.01 388.137 1065.13 387.799 1064.49 387.125C1063.85 386.451 1063.53 385.514 1063.53 384.315C1063.53 383.108 1063.83 382.148 1064.42 381.438C1065.02 380.727 1065.82 380.371 1066.82 380.371C1067.76 380.371 1068.5 380.681 1069.05 381.301C1069.6 381.916 1069.87 382.729 1069.87 383.741V384.459H1064.71C1064.73 385.339 1064.95 386.006 1065.37 386.462C1065.79 386.918 1066.39 387.146 1067.16 387.146C1067.96 387.146 1068.76 386.977 1069.55 386.64V387.651C1069.15 387.825 1068.77 387.948 1068.41 388.021C1068.05 388.098 1067.62 388.137 1067.11 388.137ZM1066.81 381.321C1066.21 381.321 1065.72 381.517 1065.36 381.909C1065.01 382.301 1064.8 382.843 1064.74 383.536H1068.65C1068.65 382.821 1068.49 382.274 1068.17 381.896C1067.85 381.513 1067.4 381.321 1066.81 381.321ZM1073.65 380.508V383.646H1077.84V380.508H1078.98V388H1077.84V384.623H1073.65V388H1072.51V380.508H1073.65ZM1083.15 380.508V385.259L1083.1 386.503L1083.08 386.893L1087.14 380.508H1088.55V388H1087.49V383.42L1087.51 382.518L1087.55 381.629L1083.5 388H1082.08V380.508H1083.15ZM1094.82 388.137C1093.71 388.137 1092.84 387.799 1092.2 387.125C1091.56 386.451 1091.24 385.514 1091.24 384.315C1091.24 383.108 1091.54 382.148 1092.13 381.438C1092.73 380.727 1093.53 380.371 1094.53 380.371C1095.47 380.371 1096.21 380.681 1096.76 381.301C1097.3 381.916 1097.58 382.729 1097.58 383.741V384.459H1092.42C1092.44 385.339 1092.66 386.006 1093.08 386.462C1093.5 386.918 1094.1 387.146 1094.86 387.146C1095.67 387.146 1096.47 386.977 1097.26 386.64V387.651C1096.85 387.825 1096.47 387.948 1096.11 388.021C1095.76 388.098 1095.33 388.137 1094.82 388.137ZM1094.51 381.321C1093.91 381.321 1093.43 381.517 1093.07 381.909C1092.72 382.301 1092.51 382.843 1092.44 383.536H1096.36C1096.36 382.821 1096.2 382.274 1095.88 381.896C1095.56 381.513 1095.11 381.321 1094.51 381.321ZM1110.63 382.388C1110.63 382.875 1110.49 383.247 1110.21 383.502C1109.93 383.753 1109.54 383.921 1109.03 384.008V384.069C1109.67 384.156 1110.14 384.343 1110.43 384.63C1110.72 384.917 1110.87 385.313 1110.87 385.819C1110.87 386.517 1110.61 387.054 1110.1 387.433C1109.59 387.811 1108.84 388 1107.86 388H1104.55V380.508H1107.84C1109.7 380.508 1110.63 381.134 1110.63 382.388ZM1109.74 385.744C1109.74 385.339 1109.58 385.045 1109.27 384.862C1108.97 384.675 1108.46 384.582 1107.75 384.582H1105.69V387.05H1107.77C1109.08 387.05 1109.74 386.615 1109.74 385.744ZM1109.52 382.497C1109.52 382.132 1109.38 381.875 1109.1 381.725C1108.82 381.57 1108.4 381.492 1107.83 381.492H1105.69V383.604H1107.61C1108.31 383.604 1108.81 383.518 1109.09 383.345C1109.38 383.172 1109.52 382.889 1109.52 382.497ZM1114.36 383.604H1116.4C1117.36 383.604 1118.06 383.782 1118.52 384.138C1118.98 384.489 1119.21 385.015 1119.21 385.717C1119.21 386.469 1118.96 387.038 1118.48 387.426C1117.99 387.809 1117.28 388 1116.34 388H1113.23V380.508H1114.36V383.604ZM1121.6 388H1120.46V380.508H1121.6V388ZM1114.36 384.582V387.05H1116.28C1117.48 387.05 1118.09 386.628 1118.09 385.785C1118.09 385.366 1117.95 385.061 1117.67 384.869C1117.39 384.678 1116.92 384.582 1116.25 384.582H1114.36ZM1125.78 380.508V385.259L1125.73 386.503L1125.71 386.893L1129.76 380.508H1131.18V388H1130.12V383.42L1130.14 382.518L1130.17 381.629L1126.13 388H1124.71V380.508H1125.78ZM1138.8 381.479H1135.42V388H1134.29V380.508H1138.8V381.479ZM1144.47 388.137C1143.99 388.137 1143.54 388.048 1143.13 387.87C1142.73 387.688 1142.4 387.41 1142.12 387.036H1142.04C1142.09 387.474 1142.12 387.888 1142.12 388.28V391.363H1140.99V380.508H1141.91L1142.07 381.533H1142.12C1142.41 381.123 1142.75 380.827 1143.14 380.645C1143.53 380.462 1143.97 380.371 1144.47 380.371C1145.47 380.371 1146.23 380.711 1146.77 381.39C1147.31 382.069 1147.58 383.021 1147.58 384.247C1147.58 385.478 1147.31 386.435 1146.76 387.118C1146.21 387.797 1145.45 388.137 1144.47 388.137ZM1144.31 381.335C1143.54 381.335 1142.99 381.547 1142.65 381.971C1142.31 382.395 1142.13 383.069 1142.12 383.994V384.247C1142.12 385.3 1142.3 386.054 1142.65 386.51C1143 386.961 1143.56 387.187 1144.34 387.187C1144.98 387.187 1145.49 386.924 1145.85 386.4C1146.22 385.876 1146.41 385.154 1146.41 384.233C1146.41 383.299 1146.22 382.584 1145.85 382.087C1145.49 381.586 1144.98 381.335 1144.31 381.335ZM1151.41 383.604H1153.45C1154.4 383.604 1155.11 383.782 1155.56 384.138C1156.02 384.489 1156.25 385.015 1156.25 385.717C1156.25 386.469 1156.01 387.038 1155.52 387.426C1155.04 387.809 1154.33 388 1153.38 388H1150.27V380.508H1151.41V383.604ZM1158.65 388H1157.51V380.508H1158.65V388ZM1151.41 384.582V387.05H1153.33C1154.53 387.05 1155.13 386.628 1155.13 385.785C1155.13 385.366 1154.99 385.061 1154.72 384.869C1154.44 384.678 1153.96 384.582 1153.29 384.582H1151.41ZM1167.35 387.022H1170.67V380.508H1171.82V388H1161.76V380.508H1162.9V387.022H1166.21V380.508H1167.35V387.022ZM1179.54 388L1179.31 386.934H1179.26C1178.88 387.403 1178.51 387.722 1178.14 387.891C1177.77 388.055 1177.3 388.137 1176.75 388.137C1176 388.137 1175.42 387.945 1175 387.562C1174.58 387.18 1174.37 386.635 1174.37 385.929C1174.37 384.416 1175.58 383.623 1178 383.55L1179.27 383.509V383.044C1179.27 382.456 1179.14 382.023 1178.89 381.745C1178.64 381.463 1178.23 381.321 1177.68 381.321C1177.05 381.321 1176.35 381.513 1175.56 381.896L1175.21 381.027C1175.58 380.827 1175.98 380.67 1176.42 380.556C1176.86 380.442 1177.3 380.385 1177.75 380.385C1178.64 380.385 1179.3 380.583 1179.73 380.979C1180.16 381.376 1180.38 382.012 1180.38 382.887V388H1179.54ZM1176.97 387.2C1177.68 387.2 1178.23 387.007 1178.63 386.619C1179.04 386.232 1179.24 385.689 1179.24 384.992V384.315L1178.11 384.363C1177.21 384.395 1176.55 384.536 1176.15 384.787C1175.76 385.033 1175.56 385.418 1175.56 385.942C1175.56 386.353 1175.68 386.665 1175.93 386.879C1176.18 387.093 1176.53 387.2 1176.97 387.2Z" fill="white"/>
<circle cx="1099.5" cy="303.5" r="53" stroke="#53BA70" stroke-width="3"/>
<g filter="url(#filter24_f_230_379)">
<circle cx="1099.5" cy="303.5" r="53" stroke="#53BA70" stroke-width="3"/>
</g>
<g filter="url(#filter25_f_230_379)">
<circle cx="1099.5" cy="303.5" r="53" stroke="#53BA70" stroke-width="3"/>
</g>
<g filter="url(#filter26_f_230_379)">
<circle cx="1099.5" cy="303.5" r="53" stroke="#53BA70" stroke-width="3"/>
</g>
<g filter="url(#filter27_f_230_379)">
<circle cx="1099.5" cy="303.5" r="53" stroke="#53BA70" stroke-width="3"/>
</g>
<circle cx="1100" cy="303" r="34" fill="#292929" fill-opacity="0.3"/>
<path d="M1082.49 302.144C1082.49 299.392 1082.94 297.248 1083.83 295.712C1084.73 294.16 1086.3 293.384 1088.54 293.384C1090.76 293.384 1092.32 294.16 1093.22 295.712C1094.11 297.248 1094.56 299.392 1094.56 302.144C1094.56 304.944 1094.11 307.12 1093.22 308.672C1092.32 310.224 1090.76 311 1088.54 311C1086.3 311 1084.73 310.224 1083.83 308.672C1082.94 307.12 1082.49 304.944 1082.49 302.144ZM1092.4 302.144C1092.4 300.752 1092.3 299.576 1092.11 298.616C1091.94 297.64 1091.56 296.856 1090.98 296.264C1090.42 295.672 1089.61 295.376 1088.54 295.376C1087.45 295.376 1086.62 295.672 1086.04 296.264C1085.48 296.856 1085.1 297.64 1084.91 298.616C1084.74 299.576 1084.65 300.752 1084.65 302.144C1084.65 303.584 1084.74 304.792 1084.91 305.768C1085.1 306.744 1085.48 307.528 1086.04 308.12C1086.62 308.712 1087.45 309.008 1088.54 309.008C1089.61 309.008 1090.42 308.712 1090.98 308.12C1091.56 307.528 1091.94 306.744 1092.11 305.768C1092.3 304.792 1092.4 303.584 1092.4 302.144ZM1110.64 295.352L1103.97 311H1101.76L1108.53 295.568H1099.26V293.696H1110.64V295.352ZM1116.52 311.144C1116.1 311.144 1115.75 311 1115.46 310.712C1115.17 310.424 1115.03 310.072 1115.03 309.656C1115.03 309.24 1115.17 308.888 1115.46 308.6C1115.75 308.312 1116.1 308.168 1116.52 308.168C1116.92 308.168 1117.25 308.312 1117.52 308.6C1117.81 308.888 1117.96 309.24 1117.96 309.656C1117.96 310.072 1117.81 310.424 1117.52 310.712C1117.25 311 1116.92 311.144 1116.52 311.144Z" fill="white"/>
<path d="M1041.83 31H1040.67V22.0381H1035.54V31H1034.37V21.0059H1041.83V31ZM1051.58 27.2471C1051.58 28.4684 1051.28 29.4232 1050.66 30.1113C1050.04 30.7949 1049.19 31.1367 1048.11 31.1367C1047.44 31.1367 1046.85 30.9795 1046.33 30.665C1045.81 30.3506 1045.41 29.8994 1045.12 29.3115C1044.84 28.7236 1044.7 28.0355 1044.7 27.2471C1044.7 26.0257 1045 25.0755 1045.62 24.3965C1046.23 23.7129 1047.07 23.3711 1048.16 23.3711C1049.21 23.3711 1050.04 23.7197 1050.65 24.417C1051.27 25.1143 1051.58 26.0576 1051.58 27.2471ZM1045.87 27.2471C1045.87 28.2041 1046.07 28.9333 1046.45 29.4346C1046.83 29.9359 1047.39 30.1865 1048.14 30.1865C1048.88 30.1865 1049.44 29.9382 1049.83 29.4414C1050.21 28.9401 1050.41 28.2087 1050.41 27.2471C1050.41 26.2946 1050.21 25.5723 1049.83 25.0801C1049.44 24.5833 1048.88 24.335 1048.12 24.335C1047.38 24.335 1046.82 24.5788 1046.44 25.0664C1046.06 25.554 1045.87 26.2809 1045.87 27.2471ZM1060.36 25.3877C1060.36 25.8753 1060.21 26.2467 1059.93 26.502C1059.65 26.7526 1059.26 26.9212 1058.76 27.0078V27.0693C1059.39 27.1559 1059.86 27.3428 1060.15 27.6299C1060.45 27.917 1060.6 28.3135 1060.6 28.8193C1060.6 29.5166 1060.34 30.0544 1059.82 30.4326C1059.31 30.8109 1058.57 31 1057.58 31H1054.28V23.5078H1057.57C1059.43 23.5078 1060.36 24.1344 1060.36 25.3877ZM1059.46 28.7441C1059.46 28.3385 1059.31 28.0446 1059 27.8623C1058.69 27.6755 1058.18 27.582 1057.47 27.582H1055.41V30.0498H1057.5C1058.81 30.0498 1059.46 29.6146 1059.46 28.7441ZM1059.25 25.4971C1059.25 25.1325 1059.11 24.875 1058.82 24.7246C1058.55 24.5697 1058.12 24.4922 1057.55 24.4922H1055.41V26.6045H1057.33C1058.04 26.6045 1058.53 26.5179 1058.82 26.3447C1059.11 26.1715 1059.25 25.889 1059.25 25.4971ZM1068 24.4785H1065.57V31H1064.43V24.4785H1062.03V23.5078H1068V24.4785ZM1076.65 27.2471C1076.65 28.4684 1076.34 29.4232 1075.73 30.1113C1075.11 30.7949 1074.26 31.1367 1073.18 31.1367C1072.51 31.1367 1071.91 30.9795 1071.39 30.665C1070.88 30.3506 1070.47 29.8994 1070.19 29.3115C1069.91 28.7236 1069.77 28.0355 1069.77 27.2471C1069.77 26.0257 1070.07 25.0755 1070.68 24.3965C1071.29 23.7129 1072.14 23.3711 1073.23 23.3711C1074.27 23.3711 1075.11 23.7197 1075.72 24.417C1076.34 25.1143 1076.65 26.0576 1076.65 27.2471ZM1070.94 27.2471C1070.94 28.2041 1071.13 28.9333 1071.52 29.4346C1071.9 29.9359 1072.46 30.1865 1073.21 30.1865C1073.95 30.1865 1074.51 29.9382 1074.89 29.4414C1075.28 28.9401 1075.48 28.2087 1075.48 27.2471C1075.48 26.2946 1075.28 25.5723 1074.89 25.0801C1074.51 24.5833 1073.94 24.335 1073.19 24.335C1072.45 24.335 1071.89 24.5788 1071.51 25.0664C1071.13 25.554 1070.94 26.2809 1070.94 27.2471ZM1082.83 31.1367C1082.35 31.1367 1081.9 31.0479 1081.49 30.8701C1081.09 30.6878 1080.76 30.4098 1080.48 30.0361H1080.4C1080.46 30.4736 1080.48 30.8883 1080.48 31.2803V34.3633H1079.35V23.5078H1080.27L1080.43 24.5332H1080.48C1080.77 24.123 1081.11 23.8268 1081.5 23.6445C1081.89 23.4622 1082.33 23.3711 1082.83 23.3711C1083.83 23.3711 1084.59 23.7106 1085.13 24.3896C1085.67 25.0687 1085.94 26.0212 1085.94 27.2471C1085.94 28.4775 1085.67 29.4346 1085.12 30.1182C1084.57 30.7972 1083.81 31.1367 1082.83 31.1367ZM1082.67 24.335C1081.9 24.335 1081.35 24.5469 1081.01 24.9707C1080.67 25.3945 1080.49 26.069 1080.48 26.9941V27.2471C1080.48 28.2998 1080.66 29.054 1081.01 29.5098C1081.36 29.9609 1081.92 30.1865 1082.7 30.1865C1083.34 30.1865 1083.85 29.9245 1084.21 29.4004C1084.58 28.8763 1084.77 28.154 1084.77 27.2334C1084.77 26.2992 1084.58 25.5837 1084.21 25.0869C1083.85 24.5856 1083.34 24.335 1082.67 24.335ZM1089.77 23.5078V26.6455H1093.97V23.5078H1095.1V31H1093.97V27.623H1089.77V31H1088.63V23.5078H1089.77ZM1102.81 31L1102.59 29.9336H1102.53C1102.16 30.403 1101.79 30.722 1101.41 30.8906C1101.04 31.0547 1100.58 31.1367 1100.03 31.1367C1099.28 31.1367 1098.7 30.9453 1098.28 30.5625C1097.86 30.1797 1097.65 29.6351 1097.65 28.9287C1097.65 27.4157 1098.86 26.6227 1101.28 26.5498L1102.55 26.5088V26.0439C1102.55 25.4561 1102.42 25.0231 1102.16 24.7451C1101.91 24.4626 1101.51 24.3213 1100.95 24.3213C1100.33 24.3213 1099.62 24.5127 1098.84 24.8955L1098.49 24.0273C1098.86 23.8268 1099.26 23.6696 1099.7 23.5557C1100.14 23.4417 1100.58 23.3848 1101.02 23.3848C1101.92 23.3848 1102.58 23.583 1103.01 23.9795C1103.44 24.376 1103.65 25.0117 1103.65 25.8867V31H1102.81ZM1100.25 30.2002C1100.96 30.2002 1101.51 30.0065 1101.91 29.6191C1102.32 29.2318 1102.52 28.6895 1102.52 27.9922V27.3154L1101.39 27.3633C1100.48 27.3952 1099.83 27.5365 1099.43 27.7871C1099.03 28.0332 1098.84 28.4183 1098.84 28.9424C1098.84 29.3525 1098.96 29.6647 1099.2 29.8789C1099.46 30.0931 1099.8 30.2002 1100.25 30.2002ZM1107.08 31H1105.75L1107.9 27.835C1107.32 27.7074 1106.88 27.4613 1106.57 27.0967C1106.26 26.7275 1106.11 26.265 1106.11 25.709C1106.11 25.0254 1106.34 24.4876 1106.8 24.0957C1107.26 23.7038 1107.91 23.5078 1108.73 23.5078H1112.07V31H1110.93V28.0059H1109.04L1107.08 31ZM1107.22 25.7227C1107.22 26.5885 1107.85 27.0215 1109.11 27.0215H1110.93V24.4922H1108.87C1107.77 24.4922 1107.22 24.9023 1107.22 25.7227ZM1122.51 31.1367C1121.43 31.1367 1120.58 30.804 1119.99 30.1387C1119.39 29.4688 1119.1 28.5231 1119.1 27.3018C1119.1 26.0485 1119.4 25.0801 1120 24.3965C1120.61 23.7129 1121.47 23.3711 1122.58 23.3711C1122.94 23.3711 1123.31 23.4098 1123.67 23.4873C1124.03 23.5648 1124.31 23.6559 1124.51 23.7607L1124.16 24.7246C1123.91 24.6243 1123.64 24.5423 1123.34 24.4785C1123.05 24.4102 1122.79 24.376 1122.56 24.376C1121.04 24.376 1120.27 25.3467 1120.27 27.2881C1120.27 28.2087 1120.46 28.915 1120.83 29.4072C1121.2 29.8994 1121.75 30.1455 1122.48 30.1455C1123.11 30.1455 1123.75 30.0111 1124.4 29.7422V30.7471C1123.9 31.0068 1123.27 31.1367 1122.51 31.1367ZM1131.94 24.4785H1129.51V31H1128.37V24.4785H1125.96V23.5078H1131.94V24.4785ZM1138.73 31L1138.5 29.9336H1138.45C1138.08 30.403 1137.7 30.722 1137.33 30.8906C1136.96 31.0547 1136.5 31.1367 1135.94 31.1367C1135.2 31.1367 1134.61 30.9453 1134.19 30.5625C1133.77 30.1797 1133.56 29.6351 1133.56 28.9287C1133.56 27.4157 1134.77 26.6227 1137.19 26.5498L1138.46 26.5088V26.0439C1138.46 25.4561 1138.34 25.0231 1138.08 24.7451C1137.83 24.4626 1137.43 24.3213 1136.87 24.3213C1136.25 24.3213 1135.54 24.5127 1134.75 24.8955L1134.4 24.0273C1134.77 23.8268 1135.18 23.6696 1135.61 23.5557C1136.05 23.4417 1136.5 23.3848 1136.94 23.3848C1137.83 23.3848 1138.49 23.583 1138.92 23.9795C1139.35 24.376 1139.57 25.0117 1139.57 25.8867V31H1138.73ZM1136.17 30.2002C1136.87 30.2002 1137.43 30.0065 1137.83 29.6191C1138.23 29.2318 1138.44 28.6895 1138.44 27.9922V27.3154L1137.3 27.3633C1136.4 27.3952 1135.75 27.5365 1135.35 27.7871C1134.95 28.0332 1134.75 28.4183 1134.75 28.9424C1134.75 29.3525 1134.87 29.6647 1135.12 29.8789C1135.37 30.0931 1135.72 30.2002 1136.17 30.2002ZM1148.69 25.3877C1148.69 25.8753 1148.55 26.2467 1148.27 26.502C1147.99 26.7526 1147.6 26.9212 1147.09 27.0078V27.0693C1147.73 27.1559 1148.2 27.3428 1148.49 27.6299C1148.78 27.917 1148.93 28.3135 1148.93 28.8193C1148.93 29.5166 1148.67 30.0544 1148.16 30.4326C1147.65 30.8109 1146.9 31 1145.92 31H1142.62V23.5078H1145.9C1147.76 23.5078 1148.69 24.1344 1148.69 25.3877ZM1147.8 28.7441C1147.8 28.3385 1147.64 28.0446 1147.33 27.8623C1147.03 27.6755 1146.52 27.582 1145.81 27.582H1143.75V30.0498H1145.84C1147.14 30.0498 1147.8 29.6146 1147.8 28.7441ZM1147.59 25.4971C1147.59 25.1325 1147.44 24.875 1147.16 24.7246C1146.88 24.5697 1146.46 24.4922 1145.89 24.4922H1143.75V26.6045H1145.67C1146.37 26.6045 1146.87 26.5179 1147.15 26.3447C1147.44 26.1715 1147.59 25.889 1147.59 25.4971ZM1155.65 23.5078H1156.9L1153.67 27.124L1157.17 31H1155.84L1152.42 27.2061V31H1151.29V23.5078H1152.42V27.1514L1155.65 23.5078ZM1163.87 31L1163.64 29.9336H1163.59C1163.21 30.403 1162.84 30.722 1162.47 30.8906C1162.1 31.0547 1161.63 31.1367 1161.08 31.1367C1160.34 31.1367 1159.75 30.9453 1159.33 30.5625C1158.91 30.1797 1158.7 29.6351 1158.7 28.9287C1158.7 27.4157 1159.91 26.6227 1162.33 26.5498L1163.6 26.5088V26.0439C1163.6 25.4561 1163.47 25.0231 1163.22 24.7451C1162.97 24.4626 1162.56 24.3213 1162.01 24.3213C1161.38 24.3213 1160.68 24.5127 1159.89 24.8955L1159.54 24.0273C1159.91 23.8268 1160.31 23.6696 1160.75 23.5557C1161.19 23.4417 1161.63 23.3848 1162.08 23.3848C1162.97 23.3848 1163.63 23.583 1164.06 23.9795C1164.49 24.376 1164.71 25.0117 1164.71 25.8867V31H1163.87ZM1161.3 30.2002C1162.01 30.2002 1162.56 30.0065 1162.96 29.6191C1163.37 29.2318 1163.57 28.6895 1163.57 27.9922V27.3154L1162.44 27.3633C1161.54 27.3952 1160.88 27.5365 1160.48 27.7871C1160.09 28.0332 1159.89 28.4183 1159.89 28.9424C1159.89 29.3525 1160.01 29.6647 1160.26 29.8789C1160.51 30.0931 1160.86 30.2002 1161.3 30.2002Z" fill="white"/>
<circle cx="1099.5" cy="104.5" r="53" stroke="#53BA70" stroke-width="3"/>
<g filter="url(#filter28_f_230_379)">
<circle cx="1099.5" cy="104.5" r="53" stroke="#53BA70" stroke-width="3"/>
</g>
<g filter="url(#filter29_f_230_379)">
<circle cx="1099.5" cy="104.5" r="53" stroke="#53BA70" stroke-width="3"/>
</g>
<g filter="url(#filter30_f_230_379)">
<circle cx="1099.5" cy="104.5" r="53" stroke="#53BA70" stroke-width="3"/>
</g>
<g filter="url(#filter31_f_230_379)">
<circle cx="1099.5" cy="104.5" r="53" stroke="#53BA70" stroke-width="3"/>
</g>
<circle cx="1100" cy="104" r="34" fill="#292929" fill-opacity="0.3"/>
<path d="M1082.49 103.144C1082.49 100.392 1082.94 98.248 1083.83 96.712C1084.73 95.16 1086.3 94.384 1088.54 94.384C1090.76 94.384 1092.32 95.16 1093.22 96.712C1094.11 98.248 1094.56 100.392 1094.56 103.144C1094.56 105.944 1094.11 108.12 1093.22 109.672C1092.32 111.224 1090.76 112 1088.54 112C1086.3 112 1084.73 111.224 1083.83 109.672C1082.94 108.12 1082.49 105.944 1082.49 103.144ZM1092.4 103.144C1092.4 101.752 1092.3 100.576 1092.11 99.616C1091.94 98.64 1091.56 97.856 1090.98 97.264C1090.42 96.672 1089.61 96.376 1088.54 96.376C1087.45 96.376 1086.62 96.672 1086.04 97.264C1085.48 97.856 1085.1 98.64 1084.91 99.616C1084.74 100.576 1084.65 101.752 1084.65 103.144C1084.65 104.584 1084.74 105.792 1084.91 106.768C1085.1 107.744 1085.48 108.528 1086.04 109.12C1086.62 109.712 1087.45 110.008 1088.54 110.008C1089.61 110.008 1090.42 109.712 1090.98 109.12C1091.56 108.528 1091.94 107.744 1092.11 106.768C1092.3 105.792 1092.4 104.584 1092.4 103.144ZM1103.13 102.976C1102.23 102.624 1101.54 102.112 1101.06 101.44C1100.58 100.768 1100.34 99.952 1100.34 98.992C1100.34 98.128 1100.56 97.352 1100.99 96.664C1101.42 95.96 1102.06 95.408 1102.91 95.008C1103.77 94.592 1104.81 94.384 1106.03 94.384C1107.25 94.384 1108.28 94.592 1109.13 95.008C1109.99 95.408 1110.64 95.96 1111.07 96.664C1111.52 97.352 1111.74 98.128 1111.74 98.992C1111.74 99.92 1111.49 100.736 1111 101.44C1110.5 102.128 1109.82 102.64 1108.96 102.976C1109.95 103.28 1110.73 103.816 1111.31 104.584C1111.9 105.336 1112.2 106.248 1112.2 107.32C1112.2 108.36 1111.94 109.272 1111.43 110.056C1110.92 110.824 1110.19 111.424 1109.25 111.856C1108.32 112.272 1107.25 112.48 1106.03 112.48C1104.81 112.48 1103.74 112.272 1102.81 111.856C1101.9 111.424 1101.19 110.824 1100.68 110.056C1100.17 109.272 1099.91 108.36 1099.91 107.32C1099.91 106.248 1100.2 105.328 1100.77 104.56C1101.35 103.792 1102.13 103.264 1103.13 102.976ZM1109.63 99.256C1109.63 98.28 1109.31 97.528 1108.67 97C1108.03 96.472 1107.15 96.208 1106.03 96.208C1104.93 96.208 1104.05 96.472 1103.41 97C1102.77 97.528 1102.45 98.288 1102.45 99.28C1102.45 100.176 1102.78 100.896 1103.44 101.44C1104.11 101.984 1104.97 102.256 1106.03 102.256C1107.1 102.256 1107.97 101.984 1108.62 101.44C1109.29 100.88 1109.63 100.152 1109.63 99.256ZM1106.03 103.936C1104.85 103.936 1103.88 104.216 1103.13 104.776C1102.37 105.32 1102 106.144 1102 107.248C1102 108.272 1102.36 109.096 1103.08 109.72C1103.81 110.344 1104.8 110.656 1106.03 110.656C1107.26 110.656 1108.24 110.344 1108.96 109.72C1109.68 109.096 1110.04 108.272 1110.04 107.248C1110.04 106.176 1109.67 105.36 1108.93 104.8C1108.2 104.224 1107.23 103.936 1106.03 103.936ZM1118.55 112.144C1118.14 112.144 1117.79 112 1117.5 111.712C1117.21 111.424 1117.07 111.072 1117.07 110.656C1117.07 110.24 1117.21 109.888 1117.5 109.6C1117.79 109.312 1118.14 109.168 1118.55 109.168C1118.95 109.168 1119.29 109.312 1119.56 109.6C1119.85 109.888 1119.99 110.24 1119.99 110.656C1119.99 111.072 1119.85 111.424 1119.56 111.712C1119.29 112 1118.95 112.144 1118.55 112.144Z" fill="white"/>
<line x1="105.5" y1="174" x2="105.5" y2="234" stroke="white"/>
<line x1="234" y1="303.5" x2="174" y2="303.5" stroke="#BCBEC0"/>
<line x1="433" y1="303.5" x2="373" y2="303.5" stroke="#BCBEC0"/>
<line x1="632" y1="303.5" x2="572" y2="303.5" stroke="#BCBEC0"/>
<line x1="831" y1="303.5" x2="771" y2="303.5" stroke="#BCBEC0"/>
<line x1="1030" y1="303.5" x2="970" y2="303.5" stroke="#BCBEC0"/>
<line x1="1100.5" y1="234" x2="1100.5" y2="174" stroke="#BCBEC0"/>
<defs>
<filter id="filter0_f_230_379" x="0" y="0" width="209" height="209" filterUnits="userSpaceOnUse" color-interpolation-filters="sRGB">
<feFlood flood-opacity="0" result="BackgroundImageFix"/>
<feBlend mode="normal" in="SourceGraphic" in2="BackgroundImageFix" result="shape"/>
<feGaussianBlur stdDeviation="25" result="effect1_foregroundBlur_230_379"/>
</filter>
<filter id="filter1_f_230_379" x="25" y="25" width="159" height="159" filterUnits="userSpaceOnUse" color-interpolation-filters="sRGB">
<feFlood flood-opacity="0" result="BackgroundImageFix"/>
<feBlend mode="normal" in="SourceGraphic" in2="BackgroundImageFix" result="shape"/>
<feGaussianBlur stdDeviation="12.5" result="effect1_foregroundBlur_230_379"/>
</filter>
<filter id="filter2_f_230_379" x="35" y="35" width="139" height="139" filterUnits="userSpaceOnUse" color-interpolation-filters="sRGB">
<feFlood flood-opacity="0" result="BackgroundImageFix"/>
<feBlend mode="normal" in="SourceGraphic" in2="BackgroundImageFix" result="shape"/>
<feGaussianBlur stdDeviation="7.5" result="effect1_foregroundBlur_230_379"/>
</filter>
<filter id="filter3_f_230_379" x="40" y="40" width="129" height="129" filterUnits="userSpaceOnUse" color-interpolation-filters="sRGB">
<feFlood flood-opacity="0" result="BackgroundImageFix"/>
<feBlend mode="normal" in="SourceGraphic" in2="BackgroundImageFix" result="shape"/>
<feGaussianBlur stdDeviation="5" result="effect1_foregroundBlur_230_379"/>
</filter>
<filter id="filter4_f_230_379" x="0" y="199" width="209" height="209" filterUnits="userSpaceOnUse" color-interpolation-filters="sRGB">
<feFlood flood-opacity="0" result="BackgroundImageFix"/>
<feBlend mode="normal" in="SourceGraphic" in2="BackgroundImageFix" result="shape"/>
<feGaussianBlur stdDeviation="25" result="effect1_foregroundBlur_230_379"/>
</filter>
<filter id="filter5_f_230_379" x="25" y="224" width="159" height="159" filterUnits="userSpaceOnUse" color-interpolation-filters="sRGB">
<feFlood flood-opacity="0" result="BackgroundImageFix"/>
<feBlend mode="normal" in="SourceGraphic" in2="BackgroundImageFix" result="shape"/>
<feGaussianBlur stdDeviation="12.5" result="effect1_foregroundBlur_230_379"/>
</filter>
<filter id="filter6_f_230_379" x="35" y="234" width="139" height="139" filterUnits="userSpaceOnUse" color-interpolation-filters="sRGB">
<feFlood flood-opacity="0" result="BackgroundImageFix"/>
<feBlend mode="normal" in="SourceGraphic" in2="BackgroundImageFix" result="shape"/>
<feGaussianBlur stdDeviation="7.5" result="effect1_foregroundBlur_230_379"/>
</filter>
<filter id="filter7_f_230_379" x="40" y="239" width="129" height="129" filterUnits="userSpaceOnUse" color-interpolation-filters="sRGB">
<feFlood flood-opacity="0" result="BackgroundImageFix"/>
<feBlend mode="normal" in="SourceGraphic" in2="BackgroundImageFix" result="shape"/>
<feGaussianBlur stdDeviation="5" result="effect1_foregroundBlur_230_379"/>
</filter>
<filter id="filter8_f_230_379" x="199" y="199" width="209" height="209" filterUnits="userSpaceOnUse" color-interpolation-filters="sRGB">
<feFlood flood-opacity="0" result="BackgroundImageFix"/>
<feBlend mode="normal" in="SourceGraphic" in2="BackgroundImageFix" result="shape"/>
<feGaussianBlur stdDeviation="25" result="effect1_foregroundBlur_230_379"/>
</filter>
<filter id="filter9_f_230_379" x="224" y="224" width="159" height="159" filterUnits="userSpaceOnUse" color-interpolation-filters="sRGB">
<feFlood flood-opacity="0" result="BackgroundImageFix"/>
<feBlend mode="normal" in="SourceGraphic" in2="BackgroundImageFix" result="shape"/>
<feGaussianBlur stdDeviation="12.5" result="effect1_foregroundBlur_230_379"/>
</filter>
<filter id="filter10_f_230_379" x="234" y="234" width="139" height="139" filterUnits="userSpaceOnUse" color-interpolation-filters="sRGB">
<feFlood flood-opacity="0" result="BackgroundImageFix"/>
<feBlend mode="normal" in="SourceGraphic" in2="BackgroundImageFix" result="shape"/>
<feGaussianBlur stdDeviation="7.5" result="effect1_foregroundBlur_230_379"/>
</filter>
<filter id="filter11_f_230_379" x="239" y="239" width="129" height="129" filterUnits="userSpaceOnUse" color-interpolation-filters="sRGB">
<feFlood flood-opacity="0" result="BackgroundImageFix"/>
<feBlend mode="normal" in="SourceGraphic" in2="BackgroundImageFix" result="shape"/>
<feGaussianBlur stdDeviation="5" result="effect1_foregroundBlur_230_379"/>
</filter>
<filter id="filter12_f_230_379" x="398" y="199" width="209" height="209" filterUnits="userSpaceOnUse" color-interpolation-filters="sRGB">
<feFlood flood-opacity="0" result="BackgroundImageFix"/>
<feBlend mode="normal" in="SourceGraphic" in2="BackgroundImageFix" result="shape"/>
<feGaussianBlur stdDeviation="25" result="effect1_foregroundBlur_230_379"/>
</filter>
<filter id="filter13_f_230_379" x="423" y="224" width="159" height="159" filterUnits="userSpaceOnUse" color-interpolation-filters="sRGB">
<feFlood flood-opacity="0" result="BackgroundImageFix"/>
<feBlend mode="normal" in="SourceGraphic" in2="BackgroundImageFix" result="shape"/>
<feGaussianBlur stdDeviation="12.5" result="effect1_foregroundBlur_230_379"/>
</filter>
<filter id="filter14_f_230_379" x="433" y="234" width="139" height="139" filterUnits="userSpaceOnUse" color-interpolation-filters="sRGB">
<feFlood flood-opacity="0" result="BackgroundImageFix"/>
<feBlend mode="normal" in="SourceGraphic" in2="BackgroundImageFix" result="shape"/>
<feGaussianBlur stdDeviation="7.5" result="effect1_foregroundBlur_230_379"/>
</filter>
<filter id="filter15_f_230_379" x="438" y="239" width="129" height="129" filterUnits="userSpaceOnUse" color-interpolation-filters="sRGB">
<feFlood flood-opacity="0" result="BackgroundImageFix"/>
<feBlend mode="normal" in="SourceGraphic" in2="BackgroundImageFix" result="shape"/>
<feGaussianBlur stdDeviation="5" result="effect1_foregroundBlur_230_379"/>
</filter>
<filter id="filter16_f_230_379" x="597" y="199" width="209" height="209" filterUnits="userSpaceOnUse" color-interpolation-filters="sRGB">
<feFlood flood-opacity="0" result="BackgroundImageFix"/>
<feBlend mode="normal" in="SourceGraphic" in2="BackgroundImageFix" result="shape"/>
<feGaussianBlur stdDeviation="25" result="effect1_foregroundBlur_230_379"/>
</filter>
<filter id="filter17_f_230_379" x="622" y="224" width="159" height="159" filterUnits="userSpaceOnUse" color-interpolation-filters="sRGB">
<feFlood flood-opacity="0" result="BackgroundImageFix"/>
<feBlend mode="normal" in="SourceGraphic" in2="BackgroundImageFix" result="shape"/>
<feGaussianBlur stdDeviation="12.5" result="effect1_foregroundBlur_230_379"/>
</filter>
<filter id="filter18_f_230_379" x="632" y="234" width="139" height="139" filterUnits="userSpaceOnUse" color-interpolation-filters="sRGB">
<feFlood flood-opacity="0" result="BackgroundImageFix"/>
<feBlend mode="normal" in="SourceGraphic" in2="BackgroundImageFix" result="shape"/>
<feGaussianBlur stdDeviation="7.5" result="effect1_foregroundBlur_230_379"/>
</filter>
<filter id="filter19_f_230_379" x="637" y="239" width="129" height="129" filterUnits="userSpaceOnUse" color-interpolation-filters="sRGB">
<feFlood flood-opacity="0" result="BackgroundImageFix"/>
<feBlend mode="normal" in="SourceGraphic" in2="BackgroundImageFix" result="shape"/>
<feGaussianBlur stdDeviation="5" result="effect1_foregroundBlur_230_379"/>
</filter>
<filter id="filter20_f_230_379" x="796" y="199" width="209" height="209" filterUnits="userSpaceOnUse" color-interpolation-filters="sRGB">
<feFlood flood-opacity="0" result="BackgroundImageFix"/>
<feBlend mode="normal" in="SourceGraphic" in2="BackgroundImageFix" result="shape"/>
<feGaussianBlur stdDeviation="25" result="effect1_foregroundBlur_230_379"/>
</filter>
<filter id="filter21_f_230_379" x="821" y="224" width="159" height="159" filterUnits="userSpaceOnUse" color-interpolation-filters="sRGB">
<feFlood flood-opacity="0" result="BackgroundImageFix"/>
<feBlend mode="normal" in="SourceGraphic" in2="BackgroundImageFix" result="shape"/>
<feGaussianBlur stdDeviation="12.5" result="effect1_foregroundBlur_230_379"/>
</filter>
<filter id="filter22_f_230_379" x="831" y="234" width="139" height="139" filterUnits="userSpaceOnUse" color-interpolation-filters="sRGB">
<feFlood flood-opacity="0" result="BackgroundImageFix"/>
<feBlend mode="normal" in="SourceGraphic" in2="BackgroundImageFix" result="shape"/>
<feGaussianBlur stdDeviation="7.5" result="effect1_foregroundBlur_230_379"/>
</filter>
<filter id="filter23_f_230_379" x="836" y="239" width="129" height="129" filterUnits="userSpaceOnUse" color-interpolation-filters="sRGB">
<feFlood flood-opacity="0" result="BackgroundImageFix"/>
<feBlend mode="normal" in="SourceGraphic" in2="BackgroundImageFix" result="shape"/>
<feGaussianBlur stdDeviation="5" result="effect1_foregroundBlur_230_379"/>
</filter>
<filter id="filter24_f_230_379" x="995" y="199" width="209" height="209" filterUnits="userSpaceOnUse" color-interpolation-filters="sRGB">
<feFlood flood-opacity="0" result="BackgroundImageFix"/>
<feBlend mode="normal" in="SourceGraphic" in2="BackgroundImageFix" result="shape"/>
<feGaussianBlur stdDeviation="25" result="effect1_foregroundBlur_230_379"/>
</filter>
<filter id="filter25_f_230_379" x="1020" y="224" width="159" height="159" filterUnits="userSpaceOnUse" color-interpolation-filters="sRGB">
<feFlood flood-opacity="0" result="BackgroundImageFix"/>
<feBlend mode="normal" in="SourceGraphic" in2="BackgroundImageFix" result="shape"/>
<feGaussianBlur stdDeviation="12.5" result="effect1_foregroundBlur_230_379"/>
</filter>
<filter id="filter26_f_230_379" x="1030" y="234" width="139" height="139" filterUnits="userSpaceOnUse" color-interpolation-filters="sRGB">
<feFlood flood-opacity="0" result="BackgroundImageFix"/>
<feBlend mode="normal" in="SourceGraphic" in2="BackgroundImageFix" result="shape"/>
<feGaussianBlur stdDeviation="7.5" result="effect1_foregroundBlur_230_379"/>
</filter>
<filter id="filter27_f_230_379" x="1035" y="239" width="129" height="129" filterUnits="userSpaceOnUse" color-interpolation-filters="sRGB">
<feFlood flood-opacity="0" result="BackgroundImageFix"/>
<feBlend mode="normal" in="SourceGraphic" in2="BackgroundImageFix" result="shape"/>
<feGaussianBlur stdDeviation="5" result="effect1_foregroundBlur_230_379"/>
</filter>
<filter id="filter28_f_230_379" x="995" y="0" width="209" height="209" filterUnits="userSpaceOnUse" color-interpolation-filters="sRGB">
<feFlood flood-opacity="0" result="BackgroundImageFix"/>
<feBlend mode="normal" in="SourceGraphic" in2="BackgroundImageFix" result="shape"/>
<feGaussianBlur stdDeviation="25" result="effect1_foregroundBlur_230_379"/>
</filter>
<filter id="filter29_f_230_379" x="1020" y="25" width="159" height="159" filterUnits="userSpaceOnUse" color-interpolation-filters="sRGB">
<feFlood flood-opacity="0" result="BackgroundImageFix"/>
<feBlend mode="normal" in="SourceGraphic" in2="BackgroundImageFix" result="shape"/>
<feGaussianBlur stdDeviation="12.5" result="effect1_foregroundBlur_230_379"/>
</filter>
<filter id="filter30_f_230_379" x="1030" y="35" width="139" height="139" filterUnits="userSpaceOnUse" color-interpolation-filters="sRGB">
<feFlood flood-opacity="0" result="BackgroundImageFix"/>
<feBlend mode="normal" in="SourceGraphic" in2="BackgroundImageFix" result="shape"/>
<feGaussianBlur stdDeviation="7.5" result="effect1_foregroundBlur_230_379"/>
</filter>
<filter id="filter31_f_230_379" x="1035" y="40" width="129" height="129" filterUnits="userSpaceOnUse" color-interpolation-filters="sRGB">
<feFlood flood-opacity="0" result="BackgroundImageFix"/>
<feBlend mode="normal" in="SourceGraphic" in2="BackgroundImageFix" result="shape"/>
<feGaussianBlur stdDeviation="5" result="effect1_foregroundBlur_230_379"/>
</filter>
</defs>
</svg>
