<svg width="241" height="562" viewBox="0 0 241 562" fill="none" xmlns="http://www.w3.org/2000/svg">
<path d="M147.205 118.496C147.205 119.016 147.023 119.417 146.659 119.698C146.298 119.977 145.779 120.116 145.104 120.116H144.486V122.136H143.875V117H145.237C146.549 117 147.205 117.499 147.205 118.496ZM144.486 119.603H145.035C145.577 119.603 145.968 119.517 146.21 119.347C146.452 119.176 146.573 118.902 146.573 118.525C146.573 118.185 146.459 117.932 146.232 117.766C146.004 117.599 145.65 117.516 145.168 117.516H144.486V119.603ZM150.25 122.206C149.668 122.206 149.208 122.033 148.87 121.686C148.535 121.34 148.367 120.858 148.367 120.242C148.367 119.622 148.523 119.129 148.834 118.763C149.148 118.398 149.568 118.215 150.095 118.215C150.589 118.215 150.979 118.375 151.266 118.693C151.554 119.009 151.697 119.427 151.697 119.947V120.316H148.985C148.997 120.768 149.113 121.111 149.333 121.345C149.556 121.58 149.869 121.697 150.271 121.697C150.695 121.697 151.114 121.61 151.529 121.437V121.957C151.318 122.046 151.118 122.109 150.929 122.146C150.742 122.186 150.515 122.206 150.25 122.206ZM150.088 118.704C149.772 118.704 149.519 118.804 149.33 119.006C149.143 119.207 149.033 119.486 148.999 119.842H151.058C151.058 119.474 150.974 119.193 150.806 118.999C150.639 118.802 150.399 118.704 150.088 118.704ZM155.457 118.785H153.682V122.136H153.086V118.286H155.457V118.785ZM157.168 118.286V120.727L157.143 121.366L157.132 121.567L159.263 118.286H160.006V122.136H159.449V119.782L159.46 119.318L159.478 118.862L157.351 122.136H156.608V118.286H157.168ZM163.212 122.206C162.642 122.206 162.2 122.035 161.887 121.693C161.575 121.349 161.419 120.863 161.419 120.235C161.419 119.591 161.578 119.094 161.894 118.742C162.212 118.391 162.665 118.215 163.252 118.215C163.441 118.215 163.63 118.235 163.819 118.275C164.008 118.315 164.157 118.362 164.265 118.416L164.082 118.911C163.95 118.859 163.806 118.817 163.65 118.785C163.495 118.749 163.357 118.732 163.237 118.732C162.437 118.732 162.037 119.231 162.037 120.228C162.037 120.701 162.134 121.064 162.328 121.317C162.525 121.57 162.815 121.697 163.198 121.697C163.526 121.697 163.862 121.628 164.207 121.489V122.006C163.944 122.139 163.612 122.206 163.212 122.206ZM168.168 118.785H166.889V122.136H166.292V118.785H165.028V118.286H168.168V118.785ZM171.147 122.206C170.891 122.206 170.656 122.16 170.443 122.069C170.232 121.975 170.055 121.832 169.912 121.64H169.869C169.897 121.865 169.912 122.078 169.912 122.28V123.864H169.315V118.286H169.8L169.883 118.813H169.912C170.065 118.602 170.243 118.45 170.447 118.356C170.651 118.262 170.884 118.215 171.147 118.215C171.67 118.215 172.072 118.39 172.354 118.739C172.64 119.088 172.782 119.577 172.782 120.207C172.782 120.84 172.637 121.331 172.347 121.683C172.06 122.032 171.66 122.206 171.147 122.206ZM171.061 118.711C170.659 118.711 170.368 118.82 170.188 119.037C170.008 119.255 169.916 119.602 169.912 120.077V120.207C169.912 120.748 170.004 121.136 170.188 121.37C170.373 121.602 170.668 121.718 171.076 121.718C171.416 121.718 171.682 121.583 171.873 121.314C172.067 121.044 172.164 120.673 172.164 120.2C172.164 119.72 172.067 119.352 171.873 119.097C171.682 118.84 171.411 118.711 171.061 118.711ZM176.616 122.136L176.498 121.588H176.469C176.273 121.829 176.077 121.993 175.88 122.08C175.686 122.164 175.443 122.206 175.151 122.206C174.76 122.206 174.454 122.108 174.231 121.911C174.011 121.714 173.9 121.434 173.9 121.071C173.9 120.294 174.536 119.886 175.808 119.849L176.477 119.828V119.589C176.477 119.287 176.409 119.064 176.275 118.922C176.143 118.776 175.932 118.704 175.639 118.704C175.312 118.704 174.94 118.802 174.526 118.999L174.342 118.553C174.536 118.45 174.749 118.369 174.978 118.31C175.211 118.252 175.443 118.222 175.675 118.222C176.145 118.222 176.492 118.324 176.717 118.528C176.945 118.732 177.058 119.059 177.058 119.508V122.136H176.616ZM175.269 121.725C175.64 121.725 175.932 121.625 176.142 121.426C176.356 121.227 176.462 120.948 176.462 120.59V120.242L175.866 120.267C175.391 120.283 175.049 120.356 174.839 120.485C174.63 120.611 174.526 120.809 174.526 121.078C174.526 121.289 174.59 121.45 174.72 121.56C174.852 121.67 175.035 121.725 175.269 121.725ZM182.499 123.467H181.903V122.136H178.659V118.286H179.255V121.633H181.346V118.286H181.942V121.633H182.499V123.467ZM184.193 118.286V120.727L184.167 121.366L184.157 121.567L186.287 118.286H187.03V122.136H186.474V119.782L186.484 119.318L186.503 118.862L184.376 122.136H183.632V118.286H184.193ZM188.861 122.136H188.163L189.295 120.509C188.991 120.444 188.758 120.317 188.595 120.13C188.434 119.94 188.354 119.703 188.354 119.417C188.354 119.066 188.475 118.789 188.717 118.588C188.959 118.386 189.297 118.286 189.73 118.286H191.483V122.136H190.887V120.597H189.892L188.861 122.136ZM188.936 119.424C188.936 119.869 189.267 120.091 189.928 120.091H190.887V118.792H189.805C189.226 118.792 188.936 119.002 188.936 119.424Z" fill="white"/>
<path d="M167.591 106.142C182.974 106.142 195.444 93.9478 195.444 78.9059C195.444 63.8641 182.974 51.6703 167.591 51.6703C152.208 51.6703 139.737 63.8641 139.737 78.9059C139.737 93.9478 152.208 106.142 167.591 106.142Z" stroke="#53BA70" stroke-width="3"/>
<g filter="url(#filter0_f_409_5084)">
<path d="M167.591 106.142C182.974 106.142 195.444 93.9478 195.444 78.9059C195.444 63.8641 182.974 51.6703 167.591 51.6703C152.208 51.6703 139.737 63.8641 139.737 78.9059C139.737 93.9478 152.208 106.142 167.591 106.142Z" stroke="#53BA70" stroke-width="3"/>
</g>
<g filter="url(#filter1_f_409_5084)">
<path d="M167.591 106.142C182.974 106.142 195.444 93.9478 195.444 78.9059C195.444 63.8641 182.974 51.6703 167.591 51.6703C152.208 51.6703 139.737 63.8641 139.737 78.9059C139.737 93.9478 152.208 106.142 167.591 106.142Z" stroke="#53BA70" stroke-width="3"/>
</g>
<g filter="url(#filter2_f_409_5084)">
<path d="M167.591 106.142C182.974 106.142 195.444 93.9478 195.444 78.9059C195.444 63.8641 182.974 51.6703 167.591 51.6703C152.208 51.6703 139.737 63.8641 139.737 78.9059C139.737 93.9478 152.208 106.142 167.591 106.142Z" stroke="#53BA70" stroke-width="3"/>
</g>
<g filter="url(#filter3_f_409_5084)">
<path d="M167.591 106.142C182.974 106.142 195.444 93.9478 195.444 78.9059C195.444 63.8641 182.974 51.6703 167.591 51.6703C152.208 51.6703 139.737 63.8641 139.737 78.9059C139.737 93.9478 152.208 106.142 167.591 106.142Z" stroke="#53BA70" stroke-width="3"/>
</g>
<path d="M167.855 96.121C177.723 96.121 185.723 88.2985 185.723 78.6491C185.723 68.9996 177.723 61.1771 167.855 61.1771C157.986 61.1771 149.986 68.9996 149.986 78.6491C149.986 88.2985 157.986 96.121 167.855 96.121Z" fill="#292929" fill-opacity="0.3"/>
<path d="M160.228 78.2092C160.228 76.795 160.463 75.6933 160.934 74.904C161.405 74.1064 162.229 73.7076 163.406 73.7076C164.575 73.7076 165.395 74.1064 165.865 74.904C166.336 75.6933 166.572 76.795 166.572 78.2092C166.572 79.6481 166.336 80.7663 165.865 81.5638C165.395 82.3614 164.575 82.7602 163.406 82.7602C162.229 82.7602 161.405 82.3614 160.934 81.5638C160.463 80.7663 160.228 79.6481 160.228 78.2092ZM165.437 78.2092C165.437 77.4939 165.386 76.8896 165.285 76.3963C165.193 75.8947 164.995 75.4918 164.692 75.1876C164.398 74.8834 163.969 74.7313 163.406 74.7313C162.834 74.7313 162.397 74.8834 162.094 75.1876C161.8 75.4918 161.602 75.8947 161.501 76.3963C161.409 76.8896 161.363 77.4939 161.363 78.2092C161.363 78.9492 161.409 79.57 161.501 80.0715C161.602 80.5731 161.8 80.976 162.094 81.2802C162.397 81.5844 162.834 81.7365 163.406 81.7365C163.969 81.7365 164.398 81.5844 164.692 81.2802C164.995 80.976 165.193 80.5731 165.285 80.0715C165.386 79.57 165.437 78.9492 165.437 78.2092ZM169.106 74.867V73.8433H171.477V82.7602H170.317V74.867H169.106ZM175.265 82.8342C175.047 82.8342 174.862 82.7602 174.71 82.6122C174.559 82.4642 174.483 82.2833 174.483 82.0695C174.483 81.8557 174.559 81.6748 174.71 81.5268C174.862 81.3788 175.047 81.3048 175.265 81.3048C175.475 81.3048 175.652 81.3788 175.795 81.5268C175.946 81.6748 176.022 81.8557 176.022 82.0695C176.022 82.2833 175.946 82.4642 175.795 82.6122C175.652 82.7602 175.475 82.8342 175.265 82.8342Z" fill="white"/>
<path d="M53.9893 163.233H55.473C56.1699 163.233 56.6741 163.335 56.9854 163.539C57.2968 163.742 57.4525 164.064 57.4525 164.504C57.4525 164.809 57.365 165.061 57.1902 165.26C57.0178 165.456 56.7651 165.584 56.4322 165.642V165.678C57.2297 165.811 57.6285 166.221 57.6285 166.907C57.6285 167.366 57.4693 167.725 57.1507 167.982C56.8346 168.24 56.3915 168.369 55.8215 168.369H53.9893V163.233ZM54.6 165.432H55.6059C56.037 165.432 56.3472 165.366 56.5364 165.235C56.7256 165.102 56.8202 164.878 56.8202 164.564C56.8202 164.276 56.7148 164.069 56.5041 163.943C56.2933 163.814 55.958 163.749 55.4981 163.749H54.6V165.432ZM54.6 165.938V167.859H55.6957C56.1196 167.859 56.4382 167.78 56.6514 167.62C56.8669 167.459 56.9747 167.207 56.9747 166.865C56.9747 166.546 56.8645 166.313 56.6442 166.162C56.4262 166.012 56.0933 165.938 55.6454 165.938H54.6ZM59.6346 166.11H60.7088C61.2093 166.11 61.5793 166.201 61.8189 166.384C62.0608 166.564 62.1817 166.835 62.1817 167.195C62.1817 167.582 62.0536 167.874 61.7973 168.074C61.5434 168.27 61.1686 168.369 60.6728 168.369H59.0382V164.519H59.6346V166.11ZM63.4391 168.369H62.8427V164.519H63.4391V168.369ZM59.6346 166.612V167.88H60.6441C61.2763 167.88 61.5925 167.664 61.5925 167.23C61.5925 167.015 61.5195 166.858 61.3734 166.76C61.2273 166.661 60.9782 166.612 60.6261 166.612H59.6346ZM64.8703 166.061C64.8703 165.217 64.9972 164.561 65.2511 164.09C65.505 163.617 65.9074 163.322 66.4582 163.205C67.1432 163.062 67.7467 162.946 68.2689 162.857L68.3802 163.37C67.5491 163.506 66.9552 163.613 66.5983 163.693C66.2511 163.77 65.99 163.953 65.8152 164.241C65.6427 164.529 65.5481 164.921 65.5313 165.418H65.5745C65.723 165.221 65.9146 165.066 66.1493 164.954C66.384 164.842 66.6294 164.785 66.8858 164.785C67.3695 164.785 67.7467 164.939 68.0174 165.246C68.288 165.553 68.4234 165.977 68.4234 166.521C68.4234 167.123 68.2665 167.594 67.9527 167.933C67.639 168.27 67.2019 168.439 66.6414 168.439C66.0882 168.439 65.6547 168.231 65.3409 167.817C65.0272 167.402 64.8703 166.817 64.8703 166.061ZM66.6954 167.951C67.4258 167.951 67.791 167.495 67.791 166.584C67.791 165.715 67.4593 165.281 66.7959 165.281C66.6139 165.281 66.4379 165.318 66.2678 165.393C66.1002 165.466 65.9457 165.563 65.8044 165.685C65.6655 165.806 65.5577 165.932 65.481 166.061C65.481 166.676 65.5804 167.146 65.7792 167.469C65.978 167.79 66.2834 167.951 66.6954 167.951ZM73.2316 166.44C73.2316 167.067 73.07 167.558 72.7466 167.912C72.4233 168.263 71.9766 168.439 71.4066 168.439C71.0545 168.439 70.742 168.358 70.4689 168.196C70.1959 168.035 69.9852 167.803 69.8366 167.501C69.6882 167.199 69.6139 166.845 69.6139 166.44C69.6139 165.813 69.7744 165.324 70.0953 164.975C70.4163 164.624 70.8617 164.448 71.4317 164.448C71.9826 164.448 72.4197 164.628 72.743 164.986C73.0687 165.344 73.2316 165.829 73.2316 166.44ZM70.2318 166.44C70.2318 166.932 70.3324 167.306 70.5336 167.564C70.7348 167.822 71.0306 167.951 71.421 167.951C71.8113 167.951 72.1071 167.823 72.3083 167.567C72.5119 167.31 72.6137 166.934 72.6137 166.44C72.6137 165.951 72.5119 165.579 72.3083 165.326C72.1071 165.071 71.8089 164.944 71.4138 164.944C71.0234 164.944 70.7288 165.069 70.53 165.319C70.3312 165.57 70.2318 165.944 70.2318 166.44ZM76.4807 168.439C76.2244 168.439 75.9897 168.393 75.7765 168.302C75.5658 168.208 75.3886 168.065 75.2448 167.873H75.2017C75.2305 168.098 75.2448 168.311 75.2448 168.512V170.097H74.6485V164.519H75.1335L75.2161 165.045H75.2448C75.3981 164.835 75.5765 164.683 75.7801 164.589C75.9837 164.495 76.2172 164.448 76.4807 164.448C77.0028 164.448 77.4051 164.623 77.6878 164.972C77.9726 165.321 78.115 165.81 78.115 166.44C78.115 167.073 77.9705 167.564 77.6804 167.915C77.3932 168.264 76.9932 168.439 76.4807 168.439ZM76.3944 164.944C75.9921 164.944 75.7011 165.053 75.5215 165.27C75.3418 165.488 75.2496 165.835 75.2448 166.31V166.44C75.2448 166.981 75.3371 167.369 75.5215 167.603C75.7059 167.835 76.0017 167.951 76.4088 167.951C76.7489 167.951 77.0148 167.816 77.2064 167.546C77.4004 167.277 77.4975 166.906 77.4975 166.433C77.4975 165.953 77.4004 165.585 77.2064 165.33C77.0148 165.073 76.7441 164.944 76.3944 164.944ZM83.3814 168.439C82.8112 168.439 82.3693 168.268 82.0555 167.926C81.7444 167.582 81.5883 167.096 81.5883 166.468C81.5883 165.824 81.7465 165.326 82.0629 164.975C82.3813 164.624 82.8338 164.448 83.4209 164.448C83.61 164.448 83.7992 164.468 83.9884 164.508C84.1776 164.548 84.3258 164.595 84.4336 164.649L84.2507 165.144C84.1188 165.092 83.9753 165.05 83.8197 165.018C83.6637 164.982 83.526 164.965 83.4061 164.965C82.6063 164.965 82.2063 165.464 82.2063 166.461C82.2063 166.934 82.3036 167.297 82.4975 167.55C82.694 167.803 82.9836 167.93 83.3667 167.93C83.6952 167.93 84.0315 167.86 84.3763 167.722V168.239C84.113 168.372 83.7814 168.439 83.3814 168.439ZM88.3367 165.018H87.0576V168.369H86.4616V165.018H85.1966V164.519H88.3367V165.018ZM91.9056 168.369L91.7869 167.821H91.7585C91.5619 168.062 91.3654 168.226 91.1694 168.313C90.9749 168.397 90.7321 168.439 90.4399 168.439C90.0494 168.439 89.7431 168.34 89.5202 168.144C89.3 167.947 89.1897 167.667 89.1897 167.304C89.1897 166.527 89.8256 166.119 91.0974 166.082L91.7653 166.061V165.822C91.7653 165.52 91.6986 165.297 91.564 165.154C91.4327 165.009 91.2203 164.936 90.9281 164.936C90.6002 164.936 90.2292 165.035 89.8145 165.232L89.6316 164.785C89.8256 164.683 90.0374 164.602 90.2675 164.543C90.4998 164.485 90.7321 164.455 90.9644 164.455C91.4337 164.455 91.7811 164.557 92.006 164.761C92.2336 164.965 92.3476 165.291 92.3476 165.741V168.369H91.9056ZM90.5582 167.957C90.9297 167.957 91.2203 167.858 91.4316 167.659C91.6444 167.46 91.7511 167.181 91.7511 166.823V166.475L91.1546 166.5C90.6806 166.516 90.338 166.588 90.1272 166.717C89.9191 166.844 89.8145 167.042 89.8145 167.311C89.8145 167.522 89.8792 167.683 90.0084 167.793C90.1404 167.902 90.3238 167.957 90.5582 167.957ZM97.1415 165.485C97.1415 165.735 97.0669 165.926 96.9187 166.057C96.7726 166.186 96.5666 166.272 96.3007 166.317V166.349C96.636 166.393 96.8804 166.489 97.0333 166.637C97.1894 166.784 97.2672 166.988 97.2672 167.248C97.2672 167.606 97.1316 167.882 96.8609 168.077C96.5929 168.271 96.2003 168.369 95.6827 168.369H93.9473V164.519H95.6758C96.6528 164.519 97.1415 164.84 97.1415 165.485ZM96.6707 167.209C96.6707 167.001 96.5892 166.85 96.4263 166.756C96.266 166.66 95.999 166.612 95.6254 166.612H94.5438V167.88H95.6396C96.327 167.88 96.6707 167.657 96.6707 167.209ZM96.5593 165.541C96.5593 165.353 96.4852 165.221 96.3364 165.144C96.1903 165.064 95.968 165.024 95.6685 165.024H94.5438V166.11H95.5534C95.9223 166.11 96.1819 166.065 96.3327 165.976C96.4841 165.888 96.5593 165.742 96.5593 165.541ZM100.8 164.519H101.454L99.7545 166.377L101.594 168.369H100.897L99.1007 166.419V168.369H98.5043V164.519H99.1007V166.391L100.8 164.519ZM103.255 164.519V166.96L103.23 167.599L103.219 167.8L105.349 164.519H106.093V168.369H105.536V166.015L105.547 165.551L105.565 165.095L103.439 168.369H102.695V164.519H103.255Z" fill="white"/>
<path d="M79.8065 152.181C95.1895 152.181 107.66 139.987 107.66 124.946C107.66 109.904 95.1895 97.71 79.8065 97.71C64.4235 97.71 51.9531 109.904 51.9531 124.946C51.9531 139.987 64.4235 152.181 79.8065 152.181Z" stroke="#53BA70" stroke-width="3"/>
<g filter="url(#filter4_f_409_5084)">
<path d="M79.8065 152.181C95.1895 152.181 107.66 139.987 107.66 124.946C107.66 109.904 95.1895 97.71 79.8065 97.71C64.4235 97.71 51.9531 109.904 51.9531 124.946C51.9531 139.987 64.4235 152.181 79.8065 152.181Z" stroke="#53BA70" stroke-width="3"/>
</g>
<g filter="url(#filter5_f_409_5084)">
<path d="M79.8065 152.181C95.1895 152.181 107.66 139.987 107.66 124.946C107.66 109.904 95.1895 97.71 79.8065 97.71C64.4235 97.71 51.9531 109.904 51.9531 124.946C51.9531 139.987 64.4235 152.181 79.8065 152.181Z" stroke="#53BA70" stroke-width="3"/>
</g>
<g filter="url(#filter6_f_409_5084)">
<path d="M79.8065 152.181C95.1895 152.181 107.66 139.987 107.66 124.946C107.66 109.904 95.1895 97.71 79.8065 97.71C64.4235 97.71 51.9531 109.904 51.9531 124.946C51.9531 139.987 64.4235 152.181 79.8065 152.181Z" stroke="#53BA70" stroke-width="3"/>
</g>
<g filter="url(#filter7_f_409_5084)">
<path d="M79.8065 152.181C95.1895 152.181 107.66 139.987 107.66 124.946C107.66 109.904 95.1895 97.71 79.8065 97.71C64.4235 97.71 51.9531 109.904 51.9531 124.946C51.9531 139.987 64.4235 152.181 79.8065 152.181Z" stroke="#53BA70" stroke-width="3"/>
</g>
<path d="M80.0694 142.161C89.9377 142.161 97.9376 134.338 97.9376 124.689C97.9376 115.039 89.9377 107.217 80.0694 107.217C70.201 107.217 62.2012 115.039 62.2012 124.689C62.2012 134.338 70.201 142.161 80.0694 142.161Z" fill="#292929" fill-opacity="0.3"/>
<path d="M70.8662 124.249C70.8662 122.835 71.1017 121.733 71.5725 120.944C72.0434 120.146 72.8675 119.747 74.0447 119.747C75.2134 119.747 76.0333 120.146 76.5042 120.944C76.975 121.733 77.2105 122.835 77.2105 124.249C77.2105 125.688 76.975 126.806 76.5042 127.603C76.0333 128.401 75.2134 128.8 74.0447 128.8C72.8675 128.8 72.0434 128.401 71.5725 127.603C71.1017 126.806 70.8662 125.688 70.8662 124.249ZM76.0753 124.249C76.0753 123.533 76.0249 122.929 75.924 122.436C75.8315 121.934 75.6339 121.531 75.3312 121.227C75.0369 120.923 74.608 120.771 74.0447 120.771C73.4729 120.771 73.0356 120.923 72.7329 121.227C72.4386 121.531 72.241 121.934 72.1401 122.436C72.0476 122.929 72.0014 123.533 72.0014 124.249C72.0014 124.989 72.0476 125.61 72.1401 126.111C72.241 126.613 72.4386 127.016 72.7329 127.32C73.0356 127.624 73.4729 127.776 74.0447 127.776C74.608 127.776 75.0369 127.624 75.3312 127.32C75.6339 127.016 75.8315 126.613 75.924 126.111C76.0249 125.61 76.0753 124.989 76.0753 124.249ZM79.9086 127.899C80.9765 127.061 81.8131 126.374 82.4185 125.84C83.024 125.297 83.5327 124.734 83.9447 124.15C84.3651 123.558 84.5753 122.978 84.5753 122.411C84.5753 121.877 84.4408 121.457 84.1717 121.153C83.9111 120.841 83.4864 120.685 82.8978 120.685C82.3261 120.685 81.8804 120.861 81.5609 121.215C81.2498 121.56 81.0816 122.025 81.0564 122.608H79.9464C79.9801 121.688 80.266 120.976 80.8041 120.475C81.3422 119.973 82.036 119.723 82.8852 119.723C83.7513 119.723 84.4366 119.957 84.9411 120.426C85.454 120.894 85.7105 121.54 85.7105 122.362C85.7105 123.044 85.5003 123.71 85.0799 124.36C84.6678 125.001 84.197 125.568 83.6672 126.062C83.1375 126.547 82.4606 127.114 81.6365 127.764H85.9754V128.701H79.9086V127.899ZM89.1186 128.874C88.9 128.874 88.715 128.8 88.5636 128.652C88.4123 128.504 88.3366 128.323 88.3366 128.109C88.3366 127.895 88.4123 127.714 88.5636 127.566C88.715 127.418 88.9 127.344 89.1186 127.344C89.3288 127.344 89.5054 127.418 89.6483 127.566C89.7997 127.714 89.8754 127.895 89.8754 128.109C89.8754 128.323 89.7997 128.504 89.6483 128.652C89.5054 128.8 89.3288 128.874 89.1186 128.874Z" fill="white"/>
<path d="M147.795 224.864H147.185V220.258H144.487V224.864H143.876V219.728H147.795V224.864ZM152.92 222.935C152.92 223.562 152.758 224.053 152.435 224.407C152.112 224.758 151.665 224.934 151.095 224.934C150.743 224.934 150.43 224.853 150.157 224.691C149.884 224.53 149.673 224.298 149.525 223.996C149.376 223.694 149.302 223.34 149.302 222.935C149.302 222.308 149.462 221.819 149.784 221.47C150.105 221.119 150.55 220.943 151.12 220.943C151.671 220.943 152.108 221.123 152.431 221.481C152.757 221.839 152.92 222.324 152.92 222.935ZM149.92 222.935C149.92 223.427 150.021 223.801 150.222 224.059C150.423 224.317 150.719 224.446 151.109 224.446C151.499 224.446 151.795 224.318 151.997 224.062C152.2 223.805 152.302 223.429 152.302 222.935C152.302 222.446 152.2 222.074 151.997 221.821C151.795 221.566 151.497 221.439 151.102 221.439C150.712 221.439 150.417 221.564 150.218 221.814C150.019 222.065 149.92 222.439 149.92 222.935ZM154.933 224.864H154.337V221.014H157.642V224.864H157.039V221.519H154.933V224.864ZM162.673 222.935C162.673 223.562 162.511 224.053 162.188 224.407C161.865 224.758 161.418 224.934 160.848 224.934C160.496 224.934 160.183 224.853 159.91 224.691C159.637 224.53 159.427 224.298 159.278 223.996C159.13 223.694 159.055 223.34 159.055 222.935C159.055 222.308 159.216 221.819 159.536 221.47C159.858 221.119 160.303 220.943 160.873 220.943C161.424 220.943 161.861 221.123 162.184 221.481C162.51 221.839 162.673 222.324 162.673 222.935ZM159.673 222.935C159.673 223.427 159.773 223.801 159.975 224.059C160.176 224.317 160.472 224.446 160.862 224.446C161.253 224.446 161.548 224.318 161.749 224.062C161.953 223.805 162.055 223.429 162.055 222.935C162.055 222.446 161.953 222.074 161.749 221.821C161.548 221.566 161.25 221.439 160.855 221.439C160.465 221.439 160.17 221.564 159.971 221.814C159.772 222.065 159.673 222.439 159.673 222.935ZM167.025 224.864H166.421V221.513H165.24C165.175 222.346 165.085 223.007 164.97 223.497C164.855 223.986 164.705 224.345 164.521 224.572C164.339 224.799 164.106 224.913 163.824 224.913C163.694 224.913 163.591 224.899 163.515 224.871V224.439C163.568 224.453 163.628 224.46 163.694 224.46C163.97 224.46 164.189 224.175 164.352 223.606C164.515 223.037 164.638 222.173 164.722 221.014H167.025V224.864ZM169.257 221.014V222.626H171.463V221.014H172.059V224.864H171.463V223.128H169.257V224.864H168.661V221.014H169.257ZM175.355 224.934C174.773 224.934 174.313 224.76 173.976 224.414C173.64 224.068 173.473 223.586 173.473 222.97C173.473 222.35 173.628 221.856 173.94 221.492C174.254 221.126 174.674 220.943 175.201 220.943C175.694 220.943 176.084 221.103 176.372 221.421C176.659 221.737 176.803 222.155 176.803 222.675V223.044H174.091C174.103 223.496 174.219 223.839 174.439 224.073C174.662 224.308 174.975 224.425 175.377 224.425C175.801 224.425 176.22 224.338 176.634 224.165V224.684C176.423 224.774 176.223 224.837 176.034 224.874C175.847 224.914 175.621 224.934 175.355 224.934ZM175.194 221.431C174.877 221.431 174.625 221.532 174.435 221.734C174.249 221.935 174.138 222.214 174.105 222.57H176.163C176.163 222.202 176.08 221.921 175.912 221.727C175.744 221.53 175.505 221.431 175.194 221.431ZM178.787 221.014V222.626H180.994V221.014H181.589V224.864H180.994V223.128H178.787V224.864H178.191V221.014H178.787ZM183.783 221.014V223.455L183.757 224.094L183.747 224.295L185.877 221.014H186.62V224.864H186.064V222.51L186.074 222.047L186.092 221.59L183.966 224.864H183.222V221.014H183.783ZM189.917 224.934C189.334 224.934 188.874 224.76 188.537 224.414C188.202 224.068 188.034 223.586 188.034 222.97C188.034 222.35 188.19 221.856 188.501 221.492C188.815 221.126 189.235 220.943 189.762 220.943C190.256 220.943 190.646 221.103 190.933 221.421C191.22 221.737 191.364 222.155 191.364 222.675V223.044H188.652C188.664 223.496 188.78 223.839 189.001 224.073C189.223 224.308 189.536 224.425 189.938 224.425C190.362 224.425 190.781 224.338 191.195 224.165V224.684C190.984 224.774 190.785 224.837 190.596 224.874C190.408 224.914 190.183 224.934 189.917 224.934ZM189.755 221.431C189.438 221.431 189.186 221.532 188.997 221.734C188.81 221.935 188.7 222.214 188.666 222.57H190.725C190.725 222.202 190.641 221.921 190.473 221.727C190.305 221.53 190.066 221.431 189.755 221.431ZM150.64 230.777H151.294L149.594 232.636L151.434 234.627H150.737L148.941 232.678V234.627H148.345V230.777H148.941V232.649L150.64 230.777ZM155.933 232.699C155.933 233.326 155.771 233.817 155.448 234.171C155.125 234.522 154.678 234.698 154.108 234.698C153.756 234.698 153.443 234.617 153.171 234.455C152.897 234.294 152.687 234.062 152.538 233.76C152.39 233.458 152.316 233.104 152.316 232.699C152.316 232.071 152.476 231.583 152.797 231.234C153.118 230.883 153.563 230.707 154.133 230.707C154.684 230.707 155.121 230.886 155.445 231.244C155.77 231.603 155.933 232.088 155.933 232.699ZM152.934 232.699C152.934 233.191 153.034 233.565 153.235 233.823C153.437 234.081 153.732 234.21 154.122 234.21C154.513 234.21 154.809 234.082 155.01 233.826C155.213 233.569 155.315 233.193 155.315 232.699C155.315 232.21 155.213 231.838 155.01 231.585C154.809 231.33 154.511 231.202 154.116 231.202C153.725 231.202 153.43 231.328 153.232 231.578C153.033 231.829 152.934 232.202 152.934 232.699ZM160.285 234.125H162.031V230.777H162.635V234.627H157.35V230.777H157.947V234.125H159.689V230.777H160.285V234.125ZM165.934 234.698C165.352 234.698 164.892 234.524 164.555 234.178C164.219 233.831 164.052 233.35 164.052 232.734C164.052 232.113 164.207 231.62 164.519 231.255C164.832 230.89 165.253 230.707 165.78 230.707C166.273 230.707 166.663 230.866 166.951 231.185C167.238 231.501 167.382 231.919 167.382 232.439V232.808H164.669C164.681 233.26 164.798 233.603 165.018 233.837C165.241 234.071 165.553 234.188 165.956 234.188C166.379 234.188 166.799 234.102 167.213 233.928V234.448C167.002 234.537 166.802 234.601 166.613 234.638C166.426 234.678 166.2 234.698 165.934 234.698ZM165.772 231.195C165.457 231.195 165.204 231.296 165.015 231.497C164.828 231.699 164.718 231.977 164.684 232.333H166.743C166.743 231.966 166.658 231.685 166.491 231.491C166.323 231.294 166.084 231.195 165.772 231.195ZM171.705 234.627H171.101V231.276H169.919C169.855 232.11 169.765 232.771 169.65 233.261C169.535 233.75 169.385 234.109 169.201 234.336C169.019 234.563 168.787 234.677 168.504 234.677C168.375 234.677 168.272 234.662 168.195 234.635V234.202C168.248 234.216 168.308 234.223 168.375 234.223C168.65 234.223 168.869 233.939 169.032 233.37C169.195 232.801 169.319 231.937 169.402 230.777H171.705V234.627ZM173.938 232.368H175.152C176.158 232.368 176.66 232.731 176.66 233.454C176.66 233.833 176.529 234.124 176.265 234.325C176.005 234.527 175.621 234.627 175.116 234.627H173.341V230.777H173.938V232.368ZM173.938 232.871V234.139H175.087C175.403 234.139 175.645 234.085 175.813 233.977C175.98 233.87 176.065 233.707 176.065 233.489C176.065 233.276 175.987 233.12 175.831 233.022C175.678 232.921 175.424 232.871 175.069 232.871H173.938ZM180.359 230.777H181.012L179.313 232.636L181.153 234.627H180.456L178.66 232.678V234.627H178.063V230.777H178.66V232.649L180.359 230.777ZM184.675 234.627L184.556 234.08H184.528C184.331 234.321 184.135 234.484 183.939 234.571C183.745 234.656 183.501 234.698 183.209 234.698C182.819 234.698 182.512 234.599 182.289 234.402C182.069 234.206 181.959 233.926 181.959 233.563C181.959 232.786 182.595 232.378 183.867 232.341L184.535 232.32V232.081C184.535 231.778 184.468 231.556 184.334 231.413C184.202 231.268 183.99 231.195 183.698 231.195C183.369 231.195 182.998 231.294 182.584 231.491L182.401 231.044C182.595 230.941 182.807 230.861 183.037 230.802C183.269 230.743 183.501 230.714 183.734 230.714C184.203 230.714 184.55 230.816 184.775 231.019C185.003 231.223 185.117 231.55 185.117 232V234.627H184.675ZM183.328 234.216C183.699 234.216 183.99 234.117 184.201 233.918C184.414 233.719 184.52 233.44 184.52 233.082V232.734L183.924 232.758C183.45 232.775 183.107 232.847 182.896 232.976C182.688 233.103 182.584 233.301 182.584 233.57C182.584 233.781 182.649 233.941 182.778 234.051C182.91 234.161 183.093 234.216 183.328 234.216Z" fill="white"/>
<path d="M167.591 208.676C182.974 208.676 195.444 196.483 195.444 181.441C195.444 166.399 182.974 154.205 167.591 154.205C152.208 154.205 139.737 166.399 139.737 181.441C139.737 196.483 152.208 208.676 167.591 208.676Z" stroke="#53BA70" stroke-width="3"/>
<g filter="url(#filter8_f_409_5084)">
<path d="M167.591 208.676C182.974 208.676 195.444 196.483 195.444 181.441C195.444 166.399 182.974 154.205 167.591 154.205C152.208 154.205 139.737 166.399 139.737 181.441C139.737 196.483 152.208 208.676 167.591 208.676Z" stroke="#53BA70" stroke-width="3"/>
</g>
<g filter="url(#filter9_f_409_5084)">
<path d="M167.591 208.676C182.974 208.676 195.444 196.483 195.444 181.441C195.444 166.399 182.974 154.205 167.591 154.205C152.208 154.205 139.737 166.399 139.737 181.441C139.737 196.483 152.208 208.676 167.591 208.676Z" stroke="#53BA70" stroke-width="3"/>
</g>
<g filter="url(#filter10_f_409_5084)">
<path d="M167.591 208.676C182.974 208.676 195.444 196.483 195.444 181.441C195.444 166.399 182.974 154.205 167.591 154.205C152.208 154.205 139.737 166.399 139.737 181.441C139.737 196.483 152.208 208.676 167.591 208.676Z" stroke="#53BA70" stroke-width="3"/>
</g>
<g filter="url(#filter11_f_409_5084)">
<path d="M167.591 208.676C182.974 208.676 195.444 196.483 195.444 181.441C195.444 166.399 182.974 154.205 167.591 154.205C152.208 154.205 139.737 166.399 139.737 181.441C139.737 196.483 152.208 208.676 167.591 208.676Z" stroke="#53BA70" stroke-width="3"/>
</g>
<path d="M167.855 198.656C177.723 198.656 185.723 190.833 185.723 181.184C185.723 171.534 177.723 163.712 167.855 163.712C157.986 163.712 149.986 171.534 149.986 181.184C149.986 190.833 157.986 198.656 167.855 198.656Z" fill="#292929" fill-opacity="0.3"/>
<path d="M158.651 180.744C158.651 179.33 158.887 178.228 159.358 177.439C159.829 176.641 160.653 176.242 161.83 176.242C162.999 176.242 163.818 176.641 164.289 177.439C164.76 178.228 164.996 179.33 164.996 180.744C164.996 182.183 164.76 183.301 164.289 184.099C163.818 184.896 162.999 185.295 161.83 185.295C160.653 185.295 159.829 184.896 159.358 184.099C158.887 183.301 158.651 182.183 158.651 180.744ZM163.86 180.744C163.86 180.029 163.81 179.424 163.709 178.931C163.617 178.43 163.419 178.027 163.116 177.722C162.822 177.418 162.393 177.266 161.83 177.266C161.258 177.266 160.821 177.418 160.518 177.722C160.224 178.027 160.026 178.43 159.925 178.931C159.833 179.424 159.787 180.029 159.787 180.744C159.787 181.484 159.833 182.105 159.925 182.606C160.026 183.108 160.224 183.511 160.518 183.815C160.821 184.119 161.258 184.271 161.83 184.271C162.393 184.271 162.822 184.119 163.116 183.815C163.419 183.511 163.617 183.108 163.709 182.606C163.81 182.105 163.86 181.484 163.86 180.744ZM167.807 178.623C167.866 177.866 168.165 177.274 168.703 176.847C169.241 176.419 169.939 176.205 170.796 176.205C171.368 176.205 171.86 176.308 172.272 176.514C172.693 176.711 173.008 176.982 173.218 177.328C173.437 177.673 173.546 178.064 173.546 178.499C173.546 179.009 173.395 179.449 173.092 179.819C172.798 180.189 172.411 180.427 171.932 180.534V180.596C172.478 180.728 172.911 180.987 173.231 181.373C173.55 181.759 173.71 182.265 173.71 182.89C173.71 183.359 173.601 183.782 173.382 184.16C173.163 184.53 172.836 184.822 172.398 185.036C171.961 185.25 171.436 185.357 170.822 185.357C169.93 185.357 169.199 185.131 168.627 184.678C168.055 184.218 167.736 183.568 167.668 182.73H168.778C168.837 183.223 169.043 183.626 169.396 183.938C169.75 184.251 170.22 184.407 170.809 184.407C171.398 184.407 171.843 184.259 172.146 183.963C172.457 183.659 172.613 183.268 172.613 182.791C172.613 182.175 172.403 181.731 171.982 181.459C171.562 181.188 170.927 181.052 170.078 181.052H169.787V180.115H170.09C170.864 180.107 171.448 179.983 171.843 179.745C172.239 179.498 172.436 179.12 172.436 178.61C172.436 178.175 172.289 177.825 171.995 177.562C171.709 177.299 171.297 177.167 170.759 177.167C170.237 177.167 169.817 177.299 169.497 177.562C169.178 177.825 168.989 178.179 168.93 178.623H167.807ZM177.076 185.369C176.857 185.369 176.672 185.295 176.521 185.147C176.37 184.999 176.294 184.818 176.294 184.604C176.294 184.391 176.37 184.21 176.521 184.062C176.672 183.914 176.857 183.84 177.076 183.84C177.286 183.84 177.463 183.914 177.606 184.062C177.757 184.21 177.833 184.391 177.833 184.604C177.833 184.818 177.757 184.999 177.606 185.147C177.463 185.295 177.286 185.369 177.076 185.369Z" fill="white"/>
<path d="M55.7115 284.506C55.1345 284.506 54.6783 284.694 54.343 285.071C54.0098 285.446 53.8437 285.96 53.8437 286.614C53.8437 287.286 54.004 287.806 54.3251 288.173C54.6483 288.539 55.1082 288.721 55.7047 288.721C56.071 288.721 56.4888 288.657 56.9581 288.528V289.051C56.5944 289.185 56.1451 289.252 55.6111 289.252C54.8375 289.252 54.24 289.022 53.8185 288.563C53.3991 288.104 53.1895 287.452 53.1895 286.606C53.1895 286.077 53.2903 285.614 53.4916 285.215C53.695 284.817 53.9872 284.51 54.3682 284.295C54.7513 284.08 55.2017 283.972 55.7189 283.972C56.2696 283.972 56.751 284.07 57.163 284.267L56.9045 284.78C56.5066 284.597 56.1093 284.506 55.7115 284.506ZM57.7574 285.331H58.3965L59.2589 287.527C59.4481 288.028 59.5653 288.39 59.611 288.613H59.6399C59.6709 288.493 59.7355 288.289 59.8338 288.001C59.9342 287.711 60.26 286.821 60.8108 285.331H61.4504L59.7581 289.715C59.5905 290.149 59.3945 290.455 59.169 290.636C58.9462 290.819 58.6724 290.91 58.3465 290.91C58.1642 290.91 57.985 290.89 57.8073 290.85V290.383C57.9392 290.411 58.0864 290.425 58.2493 290.425C58.6592 290.425 58.9514 290.2 59.1259 289.75L59.345 289.202L57.7574 285.331ZM64.5016 288.619L64.613 288.293L64.7675 287.878L65.8349 285.338H66.5927V289.181H66.0646V286.002L65.9926 286.206L65.7845 286.744L64.7675 289.181H64.2683L63.2519 286.736C63.1247 286.423 63.0375 286.178 62.9897 286.002V289.181H62.4578V285.338H63.1872L64.2178 287.78C64.3208 288.038 64.4154 288.317 64.5016 288.619ZM70.2799 288.619L70.3913 288.293L70.5458 287.878L71.6132 285.338H72.371V289.181H71.8428V286.002L71.7708 286.206L71.5627 286.744L70.5458 289.181H70.0465L69.0302 286.736C68.903 286.423 68.8157 286.178 68.7674 286.002V289.181H68.2361V285.338H68.965L69.9961 287.78C70.0991 288.038 70.1937 288.317 70.2799 288.619ZM76.4355 289.181L76.3172 288.634H76.2883C76.0918 288.875 75.8952 289.039 75.6992 289.125C75.5053 289.21 75.262 289.252 74.9698 289.252C74.5793 289.252 74.2729 289.153 74.0501 288.956C73.8299 288.76 73.7195 288.48 73.7195 288.117C73.7195 287.34 74.3554 286.932 75.6272 286.895L76.2957 286.874V286.635C76.2957 286.332 76.2284 286.11 76.0944 285.967C75.9625 285.822 75.7507 285.749 75.4585 285.749C75.1301 285.749 74.759 285.848 74.3449 286.045L74.1615 285.598C74.3554 285.495 74.5672 285.415 74.7974 285.356C75.0297 285.297 75.262 285.268 75.4942 285.268C75.9636 285.268 76.3109 285.37 76.5364 285.573C76.7634 285.777 76.8775 286.104 76.8775 286.554V289.181H76.4355ZM75.0885 288.77C75.4596 288.77 75.7507 288.671 75.9615 288.472C76.1743 288.273 76.281 287.994 76.281 287.636V287.288L75.6845 287.312C75.2105 287.329 74.8678 287.401 74.6571 287.53C74.449 287.657 74.3449 287.855 74.3449 288.124C74.3449 288.335 74.4095 288.495 74.5388 288.605C74.6702 288.715 74.8536 288.77 75.0885 288.77ZM82.3304 289.252C81.7602 289.252 81.3182 289.081 81.0045 288.739C80.6934 288.395 80.5373 287.909 80.5373 287.281C80.5373 286.637 80.6955 286.139 81.0119 285.788C81.3303 285.437 81.7828 285.261 82.3698 285.261C82.559 285.261 82.7482 285.281 82.9374 285.321C83.1266 285.361 83.2748 285.407 83.3826 285.461L83.1997 285.957C83.0678 285.905 82.9243 285.863 82.7687 285.83C82.6126 285.795 82.475 285.777 82.3551 285.777C81.5553 285.777 81.1553 286.276 81.1553 287.274C81.1553 287.747 81.2526 288.11 81.4465 288.363C81.643 288.616 81.9326 288.743 82.3157 288.743C82.6442 288.743 82.9805 288.673 83.3253 288.535V289.051C83.062 289.185 82.7304 289.252 82.3304 289.252ZM87.2857 285.83H86.0066V289.181H85.4106V285.83H84.1456V285.331H87.2857V285.83ZM90.8546 289.181L90.7358 288.634H90.7075C90.5109 288.875 90.3144 289.039 90.1178 289.125C89.9239 289.21 89.6811 289.252 89.3889 289.252C88.9984 289.252 88.692 289.153 88.4692 288.956C88.2485 288.76 88.1387 288.48 88.1387 288.117C88.1387 287.34 88.7746 286.932 90.0464 286.895L90.7143 286.874V286.635C90.7143 286.332 90.6476 286.11 90.513 285.967C90.3817 285.822 90.1693 285.749 89.8771 285.749C89.5492 285.749 89.1782 285.848 88.7635 286.045L88.5806 285.598C88.7746 285.495 88.9863 285.415 89.2165 285.356C89.4488 285.297 89.6811 285.268 89.9134 285.268C90.3827 285.268 90.7301 285.37 90.955 285.573C91.1826 285.777 91.2966 286.104 91.2966 286.554V289.181H90.8546ZM89.5072 288.77C89.8787 288.77 90.1693 288.671 90.3801 288.472C90.5934 288.273 90.7001 287.994 90.7001 287.636V287.288L90.1036 287.312C89.6296 287.329 89.287 287.401 89.0762 287.53C88.8681 287.657 88.7635 287.855 88.7635 288.124C88.7635 288.335 88.8282 288.495 88.9574 288.605C89.0893 288.715 89.2728 288.77 89.5072 288.77ZM96.0905 286.298C96.0905 286.548 96.0159 286.739 95.8677 286.87C95.7216 286.999 95.5156 287.085 95.2497 287.13V287.161C95.585 287.206 95.8294 287.302 95.9823 287.45C96.1384 287.597 96.2162 287.801 96.2162 288.061C96.2162 288.419 96.0806 288.695 95.8099 288.89C95.5419 289.084 95.1493 289.181 94.6317 289.181H92.8963V285.331H94.6243C95.6018 285.331 96.0905 285.653 96.0905 286.298ZM95.6197 288.022C95.6197 287.814 95.5382 287.663 95.3753 287.569C95.215 287.473 94.948 287.425 94.5744 287.425H93.4928V288.693H94.5886C95.276 288.693 95.6197 288.47 95.6197 288.022ZM95.5083 286.354C95.5083 286.166 95.4342 286.034 95.2854 285.957C95.1393 285.877 94.9165 285.837 94.6175 285.837H93.4928V286.922H94.5024C94.8713 286.922 95.1309 286.878 95.2817 286.789C95.4331 286.7 95.5083 286.555 95.5083 286.354ZM99.7488 285.331H100.403L98.7035 287.19L100.543 289.181H99.846L98.0498 287.232V289.181H97.4533V285.331H98.0498V287.203L99.7488 285.331ZM102.204 285.331V287.773L102.179 288.412L102.168 288.613L104.298 285.331H105.042V289.181H104.485V286.828L104.496 286.364L104.514 285.907L102.388 289.181H101.644V285.331H102.204Z" fill="white"/>
<path d="M79.8065 272.994C95.1895 272.994 107.66 260.8 107.66 245.758C107.66 230.717 95.1895 218.523 79.8065 218.523C64.4235 218.523 51.9531 230.717 51.9531 245.758C51.9531 260.8 64.4235 272.994 79.8065 272.994Z" stroke="#53BA70" stroke-width="3"/>
<g filter="url(#filter12_f_409_5084)">
<path d="M79.8065 272.994C95.1895 272.994 107.66 260.8 107.66 245.758C107.66 230.717 95.1895 218.523 79.8065 218.523C64.4235 218.523 51.9531 230.717 51.9531 245.758C51.9531 260.8 64.4235 272.994 79.8065 272.994Z" stroke="#53BA70" stroke-width="3"/>
</g>
<g filter="url(#filter13_f_409_5084)">
<path d="M79.8065 272.994C95.1895 272.994 107.66 260.8 107.66 245.758C107.66 230.717 95.1895 218.523 79.8065 218.523C64.4235 218.523 51.9531 230.717 51.9531 245.758C51.9531 260.8 64.4235 272.994 79.8065 272.994Z" stroke="#53BA70" stroke-width="3"/>
</g>
<g filter="url(#filter14_f_409_5084)">
<path d="M79.8065 272.994C95.1895 272.994 107.66 260.8 107.66 245.758C107.66 230.717 95.1895 218.523 79.8065 218.523C64.4235 218.523 51.9531 230.717 51.9531 245.758C51.9531 260.8 64.4235 272.994 79.8065 272.994Z" stroke="#53BA70" stroke-width="3"/>
</g>
<g filter="url(#filter15_f_409_5084)">
<path d="M79.8065 272.994C95.1895 272.994 107.66 260.8 107.66 245.758C107.66 230.717 95.1895 218.523 79.8065 218.523C64.4235 218.523 51.9531 230.717 51.9531 245.758C51.9531 260.8 64.4235 272.994 79.8065 272.994Z" stroke="#53BA70" stroke-width="3"/>
</g>
<path d="M80.0684 262.973C89.9367 262.973 97.9366 255.151 97.9366 245.501C97.9366 235.852 89.9367 228.03 80.0684 228.03C70.2001 228.03 62.2002 235.852 62.2002 245.501C62.2002 255.151 70.2001 262.973 80.0684 262.973Z" fill="#292929" fill-opacity="0.3"/>
<path d="M70.8662 245.062C70.8662 243.647 71.1016 242.546 71.5725 241.756C72.0434 240.959 72.8675 240.56 74.0447 240.56C75.2134 240.56 76.0333 240.959 76.5042 241.756C76.975 242.546 77.2105 243.647 77.2105 245.062C77.2105 246.5 76.975 247.619 76.5042 248.416C76.0333 249.214 75.2134 249.612 74.0447 249.612C72.8675 249.612 72.0434 249.214 71.5725 248.416C71.1016 247.619 70.8662 246.5 70.8662 245.062ZM76.0753 245.062C76.0753 244.346 76.0249 243.742 75.924 243.249C75.8315 242.747 75.6339 242.344 75.3312 242.04C75.0369 241.736 74.608 241.584 74.0447 241.584C73.4729 241.584 73.0356 241.736 72.7329 242.04C72.4386 242.344 72.241 242.747 72.1401 243.249C72.0476 243.742 72.0014 244.346 72.0014 245.062C72.0014 245.802 72.0476 246.422 72.1401 246.924C72.241 247.425 72.4386 247.828 72.7329 248.132C73.0356 248.437 73.4729 248.589 74.0447 248.589C74.608 248.589 75.0369 248.437 75.3312 248.132C75.6339 247.828 75.8315 247.425 75.924 246.924C76.0249 246.422 76.0753 245.802 76.0753 245.062ZM79.7698 247.627V246.776L84.197 240.782H85.5717V246.652H86.833V247.627H85.5717V249.612H84.4366V247.627H79.7698ZM84.4871 241.954L81.0942 246.652H84.4871V241.954ZM89.796 249.686C89.5774 249.686 89.3924 249.612 89.2411 249.464C89.0897 249.316 89.014 249.136 89.014 248.922C89.014 248.708 89.0897 248.527 89.2411 248.379C89.3924 248.231 89.5774 248.157 89.796 248.157C90.0062 248.157 90.1828 248.231 90.3258 248.379C90.4771 248.527 90.5528 248.708 90.5528 248.922C90.5528 249.136 90.4771 249.316 90.3258 249.464C90.1828 249.612 90.0062 249.686 89.796 249.686Z" fill="white"/>
<path d="M145.553 353.499H144.813L142.384 350.896V353.499H141.773V348.363H142.384V350.85L144.752 348.363H145.452L143.128 350.857L145.553 353.499ZM149.955 351.57C149.955 352.197 149.794 352.688 149.47 353.042C149.147 353.393 148.7 353.569 148.13 353.569C147.778 353.569 147.466 353.488 147.192 353.326C146.919 353.165 146.709 352.933 146.56 352.631C146.412 352.329 146.337 351.975 146.337 351.57C146.337 350.943 146.498 350.454 146.819 350.105C147.14 349.754 147.585 349.578 148.155 349.578C148.706 349.578 149.143 349.758 149.466 350.116C149.792 350.474 149.955 350.959 149.955 351.57ZM146.955 351.57C146.955 352.062 147.056 352.436 147.257 352.694C147.458 352.952 147.754 353.081 148.144 353.081C148.535 353.081 148.831 352.953 149.032 352.697C149.236 352.44 149.337 352.064 149.337 351.57C149.337 351.081 149.236 350.709 149.032 350.456C148.831 350.201 148.532 350.074 148.137 350.074C147.747 350.074 147.452 350.199 147.254 350.449C147.055 350.7 146.955 351.074 146.955 351.57ZM151.968 353.569C151.568 353.569 151.227 353.502 150.945 353.369V352.852C151.088 352.906 151.244 352.954 151.411 352.996C151.579 353.038 151.772 353.06 151.99 353.06C152.407 353.06 152.728 352.951 152.953 352.733C153.18 352.515 153.306 352.189 153.33 351.756H151.336V351.261H153.323C153.284 350.858 153.163 350.563 152.96 350.376C152.759 350.188 152.465 350.095 152.08 350.095C151.833 350.095 151.529 350.158 151.167 350.284L150.998 349.793C151.13 349.732 151.294 349.682 151.491 349.641C151.687 349.599 151.881 349.578 152.072 349.578C152.686 349.578 153.151 349.75 153.47 350.095C153.789 350.436 153.948 350.931 153.948 351.577C153.948 352.207 153.774 352.696 153.427 353.045C153.082 353.394 152.596 353.569 151.968 353.569ZM159.579 351.57C159.579 352.153 159.409 352.618 159.069 352.965C158.731 353.309 158.258 353.506 157.649 353.555V355.227H157.06V353.555C156.466 353.51 155.997 353.311 155.652 352.957C155.307 352.604 155.135 352.141 155.135 351.57C155.135 350.987 155.306 350.523 155.649 350.179C155.993 349.835 156.471 349.639 157.082 349.592V348.032H157.649V349.592C158.251 349.646 158.722 349.849 159.065 350.2C159.407 350.552 159.579 351.008 159.579 351.57ZM155.76 351.57C155.76 352.02 155.865 352.372 156.076 352.628C156.287 352.882 156.622 353.031 157.082 353.074V350.081C156.639 350.12 156.307 350.262 156.087 350.506C155.869 350.747 155.76 351.102 155.76 351.57ZM158.961 351.57C158.961 350.673 158.524 350.179 157.649 350.087V353.074C158.104 353.029 158.436 352.879 158.645 352.624C158.855 352.369 158.961 352.018 158.961 351.57ZM165.206 351.57C165.206 352.153 165.036 352.618 164.696 352.965C164.358 353.309 163.885 353.506 163.277 353.555V355.227H162.688V353.555C162.094 353.51 161.624 353.311 161.279 352.957C160.934 352.604 160.762 352.141 160.762 351.57C160.762 350.987 160.933 350.523 161.276 350.179C161.621 349.835 162.099 349.639 162.709 349.592V348.032H163.277V349.592C163.878 349.646 164.35 349.849 164.693 350.2C165.035 350.552 165.206 351.008 165.206 351.57ZM161.387 351.57C161.387 352.02 161.493 352.372 161.703 352.628C161.914 352.882 162.249 353.031 162.709 353.074V350.081C162.266 350.12 161.935 350.262 161.714 350.506C161.496 350.747 161.387 351.102 161.387 351.57ZM164.588 351.57C164.588 350.673 164.151 350.179 163.277 350.087V353.074C163.732 353.029 164.063 352.879 164.272 352.624C164.483 352.369 164.588 352.018 164.588 351.57ZM167.176 349.649V352.09L167.151 352.729L167.141 352.93L169.27 349.649H170.014V353.499H169.458V351.145L169.468 350.682L169.486 350.225L167.36 353.499H166.616V349.649H167.176ZM175.487 354.83H174.891V353.499H171.647V349.649H172.243V352.996H174.334V349.649H174.931V352.996H175.487V354.83ZM177.181 349.649V352.09L177.156 352.729L177.145 352.93L179.275 349.649H180.019V353.499H179.462V351.145L179.473 350.682L179.491 350.225L177.364 353.499H176.62V349.649H177.181ZM183.314 353.569C182.733 353.569 182.273 353.395 181.935 353.049C181.6 352.703 181.432 352.221 181.432 351.605C181.432 350.985 181.588 350.491 181.899 350.127C182.213 349.761 182.633 349.578 183.16 349.578C183.653 349.578 184.044 349.738 184.331 350.056C184.619 350.372 184.762 350.79 184.762 351.31V351.679H182.05C182.062 352.131 182.178 352.474 182.398 352.708C182.621 352.943 182.934 353.06 183.336 353.06C183.76 353.06 184.179 352.973 184.594 352.8V353.319C184.383 353.409 184.183 353.472 183.993 353.509C183.807 353.549 183.58 353.569 183.314 353.569ZM183.153 350.066C182.837 350.066 182.584 350.167 182.395 350.369C182.208 350.57 182.098 350.849 182.064 351.205H184.123C184.123 350.837 184.039 350.556 183.871 350.362C183.704 350.165 183.464 350.066 183.153 350.066ZM186.747 349.649V351.261H188.953V349.649H189.549V353.499H188.953V351.763H186.747V353.499H186.151V349.649H186.747ZM193.836 350.148H192.558V353.499H191.961V350.148H190.697V349.649H193.836V350.148Z" fill="white"/>
<path d="M167.591 337.311C182.974 337.311 195.444 325.118 195.444 310.076C195.444 295.034 182.974 282.84 167.591 282.84C152.208 282.84 139.737 295.034 139.737 310.076C139.737 325.118 152.208 337.311 167.591 337.311Z" stroke="#53BA70" stroke-width="3"/>
<g filter="url(#filter16_f_409_5084)">
<path d="M167.591 337.311C182.974 337.311 195.444 325.118 195.444 310.076C195.444 295.034 182.974 282.84 167.591 282.84C152.208 282.84 139.737 295.034 139.737 310.076C139.737 325.118 152.208 337.311 167.591 337.311Z" stroke="#53BA70" stroke-width="3"/>
</g>
<g filter="url(#filter17_f_409_5084)">
<path d="M167.591 337.311C182.974 337.311 195.444 325.118 195.444 310.076C195.444 295.034 182.974 282.84 167.591 282.84C152.208 282.84 139.737 295.034 139.737 310.076C139.737 325.118 152.208 337.311 167.591 337.311Z" stroke="#53BA70" stroke-width="3"/>
</g>
<g filter="url(#filter18_f_409_5084)">
<path d="M167.591 337.311C182.974 337.311 195.444 325.118 195.444 310.076C195.444 295.034 182.974 282.84 167.591 282.84C152.208 282.84 139.737 295.034 139.737 310.076C139.737 325.118 152.208 337.311 167.591 337.311Z" stroke="#53BA70" stroke-width="3"/>
</g>
<g filter="url(#filter19_f_409_5084)">
<path d="M167.591 337.311C182.974 337.311 195.444 325.118 195.444 310.076C195.444 295.034 182.974 282.84 167.591 282.84C152.208 282.84 139.737 295.034 139.737 310.076C139.737 325.118 152.208 337.311 167.591 337.311Z" stroke="#53BA70" stroke-width="3"/>
</g>
<path d="M167.855 327.291C177.723 327.291 185.723 319.468 185.723 309.819C185.723 300.169 177.723 292.347 167.855 292.347C157.986 292.347 149.986 300.169 149.986 309.819C149.986 319.468 157.986 327.291 167.855 327.291Z" fill="#292929" fill-opacity="0.3"/>
<path d="M158.65 309.379C158.65 307.965 158.886 306.863 159.357 306.074C159.828 305.276 160.652 304.877 161.829 304.877C162.998 304.877 163.817 305.276 164.288 306.074C164.759 306.863 164.995 307.965 164.995 309.379C164.995 310.818 164.759 311.936 164.288 312.733C163.817 313.531 162.998 313.93 161.829 313.93C160.652 313.93 159.828 313.531 159.357 312.733C158.886 311.936 158.65 310.818 158.65 309.379ZM163.86 309.379C163.86 308.663 163.809 308.059 163.708 307.566C163.616 307.064 163.418 306.661 163.115 306.357C162.821 306.053 162.392 305.901 161.829 305.901C161.257 305.901 160.82 306.053 160.517 306.357C160.223 306.661 160.025 307.064 159.924 307.566C159.832 308.059 159.786 308.663 159.786 309.379C159.786 310.119 159.832 310.74 159.924 311.241C160.025 311.743 160.223 312.146 160.517 312.45C160.82 312.754 161.257 312.906 161.829 312.906C162.392 312.906 162.821 312.754 163.115 312.45C163.418 312.146 163.616 311.743 163.708 311.241C163.809 310.74 163.86 310.119 163.86 309.379ZM173.646 305.987H169.219V308.799C169.412 308.536 169.698 308.322 170.077 308.158C170.455 307.985 170.863 307.899 171.3 307.899C171.998 307.899 172.566 308.043 173.003 308.33C173.44 308.61 173.751 308.976 173.936 309.428C174.13 309.872 174.226 310.345 174.226 310.846C174.226 311.438 174.113 311.969 173.886 312.437C173.659 312.906 173.31 313.276 172.839 313.547C172.376 313.819 171.8 313.954 171.111 313.954C170.228 313.954 169.513 313.732 168.967 313.288C168.42 312.844 168.088 312.252 167.97 311.512H169.093C169.202 311.981 169.433 312.347 169.786 312.61C170.14 312.873 170.585 313.005 171.123 313.005C171.788 313.005 172.288 312.812 172.624 312.425C172.961 312.03 173.129 311.512 173.129 310.871C173.129 310.23 172.961 309.736 172.624 309.391C172.288 309.038 171.792 308.861 171.136 308.861C170.69 308.861 170.299 308.968 169.963 309.181C169.635 309.387 169.396 309.671 169.244 310.032H168.159V305.001H173.646V305.987ZM177.568 314.004C177.349 314.004 177.165 313.93 177.013 313.782C176.862 313.634 176.786 313.453 176.786 313.239C176.786 313.025 176.862 312.844 177.013 312.696C177.165 312.548 177.349 312.474 177.568 312.474C177.778 312.474 177.955 312.548 178.098 312.696C178.249 312.844 178.325 313.025 178.325 313.239C178.325 313.453 178.249 313.634 178.098 313.782C177.955 313.93 177.778 314.004 177.568 314.004Z" fill="white"/>
<path d="M64.677 406.354C64.677 406.874 64.4952 407.275 64.131 407.556C63.7694 407.834 63.2507 407.974 62.5754 407.974H61.9573V409.994H61.3467V404.858H62.7083C64.0206 404.858 64.677 405.357 64.677 406.354ZM61.9573 407.461H62.507C63.0483 407.461 63.4399 407.375 63.6816 407.204C63.9239 407.034 64.0448 406.759 64.0448 406.383C64.0448 406.043 63.9307 405.79 63.7032 405.624C63.4756 405.458 63.1214 405.374 62.64 405.374H61.9573V407.461ZM67.7214 410.064C67.1391 410.064 66.6793 409.89 66.3419 409.544C66.0066 409.198 65.839 408.716 65.839 408.1C65.839 407.48 65.9945 406.986 66.3056 406.622C66.6194 406.256 67.0398 406.073 67.5669 406.073C68.0604 406.073 68.4503 406.233 68.7378 406.551C69.0253 406.867 69.1693 407.285 69.1693 407.805V408.174H66.4565C66.4685 408.626 66.5847 408.969 66.8054 409.203C67.0277 409.438 67.3404 409.555 67.743 409.555C68.1665 409.555 68.5859 409.468 69.0001 409.295V409.814C68.7893 409.904 68.5896 409.967 68.4004 410.004C68.2133 410.044 67.9874 410.064 67.7214 410.064ZM67.5596 406.561C67.2437 406.561 66.9909 406.662 66.8018 406.864C66.6147 407.065 66.5048 407.344 66.4712 407.7H68.5297C68.5297 407.332 68.4456 407.051 68.278 406.857C68.1103 406.66 67.8712 406.561 67.5596 406.561ZM71.3082 407.742C72.0529 407.742 72.4255 407.54 72.4255 407.137C72.4255 406.758 72.1233 406.569 71.52 406.569C71.3355 406.569 71.1679 406.585 71.0171 406.618C70.8662 406.65 70.6686 406.716 70.4242 406.814L70.2125 406.34C70.6192 406.162 71.0639 406.073 71.5452 406.073C71.9977 406.073 72.3546 406.165 72.6158 406.347C72.8769 406.528 73.0073 406.775 73.0073 407.089C73.0073 407.519 72.7619 407.801 72.271 407.935V407.963C72.5727 408.05 72.7929 408.174 72.9321 408.335C73.0709 408.495 73.1402 408.695 73.1402 408.936C73.1402 409.292 72.9931 409.57 72.6983 409.769C72.4061 409.965 72.0014 410.064 71.4843 410.064C70.9167 410.064 70.4784 409.981 70.1694 409.814V409.28C70.6077 409.482 71.0507 409.583 71.4984 409.583C71.8432 409.583 72.1034 409.525 72.2778 409.41C72.4555 409.293 72.5437 409.126 72.5437 408.908C72.5437 408.461 72.1717 408.237 71.4265 408.237H70.8804V407.742H71.3082ZM73.8565 406.144H74.4961L75.3585 408.339C75.5477 408.84 75.6649 409.202 75.7101 409.425H75.739C75.77 409.305 75.8347 409.102 75.9329 408.813C76.0339 408.523 76.3592 407.633 76.9104 406.144H77.5495L75.8578 410.528C75.6901 410.961 75.4936 411.268 75.2687 411.448C75.0458 411.631 74.7715 411.722 74.4457 411.722C74.2638 411.722 74.0841 411.702 73.907 411.662V411.195C74.0384 411.223 74.186 411.237 74.349 411.237C74.7584 411.237 75.0506 411.012 75.2256 410.562L75.4447 410.015L73.8565 406.144ZM81.492 409.994H80.8888V406.643H79.7068C79.6422 407.476 79.5523 408.137 79.4372 408.627C79.3221 409.116 79.1723 409.475 78.9884 409.702C78.806 409.929 78.5738 410.043 78.291 410.043C78.1617 410.043 78.0587 410.029 77.9825 410.001V409.569C78.0351 409.583 78.095 409.59 78.1617 409.59C78.4371 409.59 78.6562 409.305 78.8192 408.736C78.9821 408.167 79.1056 407.303 79.1892 406.144H81.492V409.994ZM83.7245 407.735H84.939C85.9449 407.735 86.4479 408.097 86.4479 408.82C86.4479 409.2 86.316 409.49 86.0527 409.691C85.7915 409.893 85.4084 409.994 84.9028 409.994H83.1281V406.144H83.7245V407.735ZM83.7245 408.237V409.505H84.8744C85.1903 409.505 85.432 409.451 85.5997 409.344C85.7673 409.236 85.8514 409.073 85.8514 408.855C85.8514 408.642 85.7736 408.486 85.618 408.388C85.4646 408.288 85.2107 408.237 84.856 408.237H83.7245ZM90.505 406.643H89.2264V409.994H88.6299V406.643H87.3655V406.144H90.505V406.643ZM94.0739 409.994L93.9552 409.446H93.9268C93.7302 409.687 93.5337 409.851 93.3377 409.938C93.1437 410.022 92.9004 410.064 92.6082 410.064C92.2177 410.064 91.9114 409.965 91.6885 409.769C91.4683 409.572 91.3579 409.292 91.3579 408.929C91.3579 408.152 91.9938 407.744 93.2656 407.707L93.9336 407.686V407.447C93.9336 407.145 93.8669 406.922 93.7329 406.779C93.601 406.634 93.3892 406.561 93.097 406.561C92.7685 406.561 92.3975 406.66 91.9833 406.857L91.7999 406.41C91.9938 406.308 92.2057 406.227 92.4358 406.168C92.6681 406.11 92.9004 406.08 93.1327 406.08C93.602 406.08 93.9494 406.182 94.1743 406.386C94.4019 406.59 94.5159 406.917 94.5159 407.366V409.994H94.0739ZM92.727 409.583C93.098 409.583 93.3891 409.483 93.5999 409.284C93.8127 409.085 93.9194 408.806 93.9194 408.448V408.1L93.3229 408.125C92.8489 408.141 92.5062 408.214 92.2955 408.343C92.0874 408.469 91.9833 408.667 91.9833 408.936C91.9833 409.147 92.048 409.308 92.1773 409.418C92.3087 409.528 92.4921 409.583 92.727 409.583ZM98.7707 406.643H97.492V409.994H96.8955V406.643H95.6311V406.144H98.7707V406.643Z" fill="white"/>
<path d="M79.8065 393.807C95.1895 393.807 107.66 381.613 107.66 366.571C107.66 351.529 95.1895 339.335 79.8065 339.335C64.4235 339.335 51.9531 351.529 51.9531 366.571C51.9531 381.613 64.4235 393.807 79.8065 393.807Z" stroke="#53BA70" stroke-width="3"/>
<g filter="url(#filter20_f_409_5084)">
<path d="M79.8065 393.807C95.1895 393.807 107.66 381.613 107.66 366.571C107.66 351.529 95.1895 339.335 79.8065 339.335C64.4235 339.335 51.9531 351.529 51.9531 366.571C51.9531 381.613 64.4235 393.807 79.8065 393.807Z" stroke="#53BA70" stroke-width="3"/>
</g>
<g filter="url(#filter21_f_409_5084)">
<path d="M79.8065 393.807C95.1895 393.807 107.66 381.613 107.66 366.571C107.66 351.529 95.1895 339.335 79.8065 339.335C64.4235 339.335 51.9531 351.529 51.9531 366.571C51.9531 381.613 64.4235 393.807 79.8065 393.807Z" stroke="#53BA70" stroke-width="3"/>
</g>
<g filter="url(#filter22_f_409_5084)">
<path d="M79.8065 393.807C95.1895 393.807 107.66 381.613 107.66 366.571C107.66 351.529 95.1895 339.335 79.8065 339.335C64.4235 339.335 51.9531 351.529 51.9531 366.571C51.9531 381.613 64.4235 393.807 79.8065 393.807Z" stroke="#53BA70" stroke-width="3"/>
</g>
<g filter="url(#filter23_f_409_5084)">
<path d="M79.8065 393.807C95.1895 393.807 107.66 381.613 107.66 366.571C107.66 351.529 95.1895 339.335 79.8065 339.335C64.4235 339.335 51.9531 351.529 51.9531 366.571C51.9531 381.613 64.4235 393.807 79.8065 393.807Z" stroke="#53BA70" stroke-width="3"/>
</g>
<path d="M80.0694 383.786C89.9377 383.786 97.9376 375.963 97.9376 366.314C97.9376 356.664 89.9377 348.842 80.0694 348.842C70.201 348.842 62.2012 356.664 62.2012 366.314C62.2012 375.963 70.201 383.786 80.0694 383.786Z" fill="#292929" fill-opacity="0.3"/>
<path d="M70.8662 365.874C70.8662 364.46 71.1016 363.358 71.5725 362.569C72.0434 361.771 72.8675 361.372 74.0447 361.372C75.2135 361.372 76.0333 361.771 76.5042 362.569C76.975 363.358 77.2105 364.46 77.2105 365.874C77.2105 367.313 76.975 368.431 76.5042 369.229C76.0333 370.026 75.2135 370.425 74.0447 370.425C72.8675 370.425 72.0434 370.026 71.5725 369.229C71.1016 368.431 70.8662 367.313 70.8662 365.874ZM76.0753 365.874C76.0753 365.159 76.0249 364.554 75.924 364.061C75.8315 363.559 75.6339 363.157 75.3312 362.852C75.0369 362.548 74.608 362.396 74.0447 362.396C73.4729 362.396 73.0356 362.548 72.7329 362.852C72.4386 363.157 72.241 363.559 72.1401 364.061C72.0476 364.554 72.0014 365.159 72.0014 365.874C72.0014 366.614 72.0476 367.235 72.1401 367.736C72.241 368.238 72.4386 368.641 72.7329 368.945C73.0356 369.249 73.4729 369.401 74.0447 369.401C74.608 369.401 75.0369 369.249 75.3312 368.945C75.6339 368.641 75.8315 368.238 75.924 367.736C76.0249 367.235 76.0753 366.614 76.0753 365.874ZM85.1303 363.629C84.9453 362.717 84.3693 362.26 83.4023 362.26C82.654 362.26 82.0948 362.544 81.7248 363.111C81.3549 363.67 81.1741 364.595 81.1825 365.886C81.3759 365.459 81.6954 365.126 82.1411 364.887C82.5951 364.641 83.0996 364.517 83.6546 364.517C84.5207 364.517 85.2102 364.78 85.7231 365.307C86.2444 365.833 86.5051 366.56 86.5051 367.49C86.5051 368.049 86.3916 368.55 86.1646 368.994C85.9459 369.438 85.6096 369.792 85.1555 370.055C84.7099 370.318 84.1675 370.45 83.5285 370.45C82.6624 370.45 81.9855 370.26 81.4978 369.882C81.0101 369.504 80.6696 368.982 80.4762 368.316C80.2828 367.65 80.1861 366.828 80.1861 365.849C80.1861 362.832 81.2624 361.323 83.415 361.323C84.239 361.323 84.8865 361.541 85.3573 361.977C85.8282 362.412 86.1057 362.963 86.1898 363.629H85.1303ZM83.415 365.467C83.0534 365.467 82.7128 365.541 82.3933 365.689C82.0738 365.829 81.8131 366.047 81.6113 366.343C81.4179 366.63 81.3212 366.984 81.3212 367.403C81.3212 368.028 81.5062 368.538 81.8762 368.933C82.2462 369.319 82.7759 369.512 83.4654 369.512C84.054 369.512 84.5207 369.335 84.8654 368.982C85.2186 368.62 85.3952 368.135 85.3952 367.527C85.3952 366.885 85.227 366.384 84.8907 366.022C84.5543 365.652 84.0624 365.467 83.415 365.467ZM89.8701 370.499C89.6515 370.499 89.4665 370.425 89.3152 370.277C89.1638 370.129 89.0881 369.948 89.0881 369.734C89.0881 369.52 89.1638 369.34 89.3152 369.192C89.4665 369.044 89.6515 368.97 89.8701 368.97C90.0803 368.97 90.2569 369.044 90.3998 369.192C90.5512 369.34 90.6269 369.52 90.6269 369.734C90.6269 369.948 90.5512 370.129 90.3998 370.277C90.2569 370.425 90.0803 370.499 89.8701 370.499Z" fill="white"/>
<path d="M128.882 469.096H128.273V464.491H125.577V469.096H124.962V463.961H128.882V469.096ZM134.006 467.168C134.006 467.795 133.849 468.286 133.523 468.64C133.197 468.991 132.75 469.167 132.183 469.167C131.831 469.167 131.521 469.086 131.247 468.924C130.974 468.763 130.764 468.531 130.611 468.229C130.464 467.927 130.391 467.573 130.391 467.168C130.391 466.54 130.548 466.052 130.874 465.703C131.195 465.352 131.636 465.176 132.209 465.176C132.761 465.176 133.197 465.355 133.518 465.714C133.843 466.072 134.006 466.557 134.006 467.168ZM131.006 467.168C131.006 467.66 131.111 468.034 131.31 468.292C131.51 468.55 131.804 468.679 132.199 468.679C132.587 468.679 132.882 468.551 133.087 468.295C133.286 468.038 133.392 467.662 133.392 467.168C133.392 466.679 133.286 466.307 133.087 466.054C132.882 465.799 132.587 465.671 132.188 465.671C131.799 465.671 131.505 465.797 131.305 466.047C131.105 466.298 131.006 466.671 131.006 467.168ZM138.358 469.096H137.759V465.745H136.576C136.508 466.579 136.419 467.24 136.303 467.73C136.187 468.219 136.04 468.578 135.856 468.805C135.672 469.032 135.441 469.146 135.157 469.146C135.031 469.146 134.926 469.131 134.852 469.104V468.671C134.905 468.685 134.963 468.693 135.031 468.693C135.304 468.693 135.525 468.408 135.688 467.839C135.851 467.27 135.972 466.406 136.056 465.246H138.358V469.096ZM139.372 465.246H140.008L140.87 467.442C141.059 467.943 141.18 468.305 141.222 468.528H141.254C141.285 468.408 141.348 468.204 141.448 467.916C141.548 467.626 141.874 466.736 142.425 465.246H143.061L141.374 469.63C141.206 470.064 141.007 470.37 140.781 470.551C140.56 470.734 140.287 470.825 139.961 470.825C139.777 470.825 139.598 470.805 139.419 470.765V470.298C139.551 470.326 139.698 470.34 139.861 470.34C140.271 470.34 140.565 470.115 140.739 469.665L140.959 469.117L139.372 465.246ZM144.596 465.246V466.651C144.596 467.101 144.859 467.326 145.384 467.326C145.6 467.326 145.81 467.293 146.01 467.227C146.204 467.162 146.43 467.051 146.682 466.894V465.246H147.281V469.096H146.682V467.354C146.43 467.523 146.199 467.642 145.983 467.713C145.768 467.78 145.526 467.814 145.258 467.814C144.864 467.814 144.554 467.714 144.333 467.512C144.112 467.311 143.997 467.038 143.997 466.694V465.246H144.596ZM150.577 469.167C149.998 469.167 149.536 468.993 149.2 468.647C148.863 468.3 148.695 467.819 148.695 467.203C148.695 466.583 148.853 466.089 149.163 465.724C149.478 465.359 149.899 465.176 150.424 465.176C150.918 465.176 151.307 465.335 151.596 465.654C151.885 465.97 152.027 466.388 152.027 466.908V467.277H149.315C149.326 467.729 149.441 468.072 149.662 468.306C149.883 468.54 150.198 468.658 150.603 468.658C151.023 468.658 151.444 468.571 151.859 468.398V468.917C151.649 469.006 151.449 469.07 151.26 469.107C151.071 469.147 150.845 469.167 150.577 469.167ZM150.419 465.664C150.104 465.664 149.846 465.765 149.657 465.966C149.473 466.168 149.363 466.446 149.331 466.802H151.386C151.386 466.435 151.302 466.154 151.134 465.96C150.965 465.763 150.729 465.664 150.419 465.664ZM154.014 465.246V466.859H156.216V465.246H156.815V469.096H156.216V467.361H154.014V469.096H153.414V465.246H154.014ZM159.006 465.246V467.688L158.98 468.327L158.969 468.528L161.103 465.246H161.844V469.096H161.287V466.743L161.297 466.279L161.319 465.822L159.19 469.096H158.444V465.246H159.006ZM165.139 469.167C164.556 469.167 164.099 468.993 163.762 468.647C163.426 468.3 163.258 467.819 163.258 467.203C163.258 466.583 163.415 466.089 163.725 465.724C164.041 465.359 164.461 465.176 164.987 465.176C165.481 465.176 165.87 465.335 166.159 465.654C166.442 465.97 166.59 466.388 166.59 466.908V467.277H163.878C163.888 467.729 164.004 468.072 164.225 468.306C164.445 468.54 164.761 468.658 165.16 468.658C165.586 468.658 166.006 468.571 166.421 468.398V468.917C166.206 469.006 166.006 469.07 165.817 469.107C165.633 469.147 165.407 469.167 165.139 469.167ZM164.976 465.664C164.661 465.664 164.409 465.765 164.219 465.966C164.036 466.168 163.925 466.446 163.888 466.802H165.948C165.948 466.435 165.864 466.154 165.696 465.96C165.528 465.763 165.292 465.664 164.976 465.664ZM173.448 466.213C173.448 466.463 173.374 466.654 173.227 466.785C173.08 466.914 172.875 467 172.607 467.045V467.076C172.943 467.121 173.19 467.217 173.343 467.365C173.495 467.512 173.574 467.716 173.574 467.976C173.574 468.334 173.437 468.61 173.169 468.805C172.901 468.999 172.507 469.096 171.992 469.096H170.253V465.246H171.982C172.959 465.246 173.448 465.568 173.448 466.213ZM172.98 467.937C172.98 467.729 172.896 467.578 172.733 467.484C172.576 467.388 172.307 467.34 171.934 467.34H170.852V468.608H171.945C172.633 468.608 172.98 468.385 172.98 467.937ZM172.865 466.269C172.865 466.081 172.791 465.949 172.644 465.872C172.497 465.792 172.276 465.752 171.976 465.752H170.852V466.837H171.861C172.229 466.837 172.491 466.793 172.639 466.704C172.791 466.615 172.865 466.47 172.865 466.269ZM175.408 466.837H176.48C176.985 466.837 177.353 466.929 177.594 467.112C177.836 467.292 177.957 467.562 177.957 467.923C177.957 468.31 177.826 468.602 177.573 468.801C177.316 468.998 176.943 469.096 176.449 469.096H174.814V465.246H175.408V466.837ZM179.213 469.096H178.614V465.246H179.213V469.096ZM175.408 467.34V468.608H176.417C177.048 468.608 177.368 468.391 177.368 467.958C177.368 467.743 177.295 467.586 177.148 467.487C177.001 467.389 176.754 467.34 176.401 467.34H175.408ZM181.41 465.246V467.688L181.383 468.327L181.373 468.528L183.501 465.246H184.248V469.096H183.691V466.743L183.701 466.279L183.717 465.822L181.594 469.096H180.847V465.246H181.41ZM188.252 465.745H186.476V469.096H185.882V465.246H188.252V465.745ZM191.232 469.167C190.98 469.167 190.743 469.121 190.528 469.03C190.318 468.936 190.144 468.793 189.997 468.601H189.955C189.981 468.826 189.997 469.039 189.997 469.24V470.825H189.403V465.246H189.887L189.971 465.773H189.997C190.149 465.562 190.328 465.41 190.533 465.317C190.738 465.223 190.969 465.176 191.232 465.176C191.758 465.176 192.157 465.351 192.441 465.7C192.725 466.049 192.866 466.538 192.866 467.168C192.866 467.8 192.725 468.292 192.436 468.643C192.146 468.992 191.747 469.167 191.232 469.167ZM191.148 465.671C190.743 465.671 190.454 465.78 190.276 465.998C190.097 466.216 190.002 466.562 189.997 467.038V467.168C189.997 467.709 190.092 468.096 190.276 468.331C190.46 468.562 190.754 468.679 191.164 468.679C191.5 468.679 191.768 468.543 191.957 468.274C192.152 468.005 192.252 467.634 192.252 467.161C192.252 466.681 192.152 466.313 191.957 466.058C191.768 465.8 191.5 465.671 191.148 465.671ZM194.879 466.837H195.951C196.451 466.837 196.824 466.929 197.06 467.112C197.302 467.292 197.423 467.562 197.423 467.923C197.423 468.31 197.297 468.602 197.039 468.801C196.787 468.998 196.414 469.096 195.915 469.096H194.28V465.246H194.879V466.837ZM198.684 469.096H198.085V465.246H198.684V469.096ZM194.879 467.34V468.608H195.888C196.519 468.608 196.834 468.391 196.834 467.958C196.834 467.743 196.761 467.586 196.619 467.487C196.472 467.389 196.219 467.34 195.867 467.34H194.879ZM203.256 468.594H205.001V465.246H205.605V469.096H200.319V465.246H200.918V468.594H202.657V465.246H203.256V468.594ZM209.663 469.096L209.542 468.549H209.515C209.316 468.79 209.121 468.954 208.927 469.04C208.732 469.125 208.485 469.167 208.196 469.167C207.802 469.167 207.497 469.068 207.277 468.871C207.056 468.675 206.946 468.395 206.946 468.032C206.946 467.255 207.581 466.847 208.853 466.81L209.521 466.789V466.55C209.521 466.247 209.452 466.025 209.321 465.882C209.19 465.737 208.974 465.664 208.685 465.664C208.354 465.664 207.986 465.763 207.571 465.96L207.387 465.513C207.581 465.41 207.792 465.33 208.023 465.271C208.254 465.213 208.485 465.183 208.722 465.183C209.19 465.183 209.536 465.285 209.762 465.488C209.988 465.692 210.104 466.019 210.104 466.469V469.096H209.663ZM208.312 468.685C208.685 468.685 208.974 468.586 209.184 468.387C209.4 468.188 209.505 467.909 209.505 467.551V467.203L208.911 467.227C208.438 467.244 208.091 467.316 207.881 467.445C207.676 467.572 207.571 467.77 207.571 468.039C207.571 468.25 207.634 468.41 207.765 468.52C207.897 468.63 208.081 468.685 208.312 468.685Z" fill="white"/>
<path d="M167.598 452.909C182.981 452.909 195.452 440.715 195.452 425.673C195.452 410.632 182.981 398.438 167.598 398.438C152.215 398.438 139.745 410.632 139.745 425.673C139.745 440.715 152.215 452.909 167.598 452.909Z" stroke="#53BA70" stroke-width="3"/>
<g filter="url(#filter24_f_409_5084)">
<path d="M167.599 452.909C182.982 452.909 195.453 440.715 195.453 425.673C195.453 410.632 182.982 398.438 167.599 398.438C152.216 398.438 139.746 410.632 139.746 425.673C139.746 440.715 152.216 452.909 167.599 452.909Z" stroke="#53BA70" stroke-width="3"/>
</g>
<g filter="url(#filter25_f_409_5084)">
<path d="M167.599 452.909C182.982 452.909 195.453 440.715 195.453 425.673C195.453 410.632 182.982 398.438 167.599 398.438C152.216 398.438 139.746 410.632 139.746 425.673C139.746 440.715 152.216 452.909 167.599 452.909Z" stroke="#53BA70" stroke-width="3"/>
</g>
<g filter="url(#filter26_f_409_5084)">
<path d="M167.599 452.909C182.982 452.909 195.453 440.715 195.453 425.673C195.453 410.632 182.982 398.438 167.599 398.438C152.216 398.438 139.746 410.632 139.746 425.673C139.746 440.715 152.216 452.909 167.599 452.909Z" stroke="#53BA70" stroke-width="3"/>
</g>
<g filter="url(#filter27_f_409_5084)">
<path d="M167.599 452.909C182.982 452.909 195.453 440.715 195.453 425.673C195.453 410.632 182.982 398.438 167.599 398.438C152.216 398.438 139.746 410.632 139.746 425.673C139.746 440.715 152.216 452.909 167.599 452.909Z" stroke="#53BA70" stroke-width="3"/>
</g>
<path d="M167.861 442.888C177.73 442.888 185.73 435.066 185.73 425.417C185.73 415.767 177.73 407.945 167.861 407.945C157.993 407.945 149.993 415.767 149.993 425.417C149.993 435.066 157.993 442.888 167.861 442.888Z" fill="#292929" fill-opacity="0.3"/>
<path d="M158.659 424.977C158.659 423.562 158.896 422.461 159.363 421.671C159.836 420.874 160.661 420.475 161.839 420.475C163.005 420.475 163.825 420.874 164.298 421.671C164.766 422.461 165.002 423.562 165.002 424.977C165.002 426.416 164.766 427.534 164.298 428.331C163.825 429.129 163.005 429.528 161.839 429.528C160.661 429.528 159.836 429.129 159.363 428.331C158.896 427.534 158.659 426.416 158.659 424.977ZM163.867 424.977C163.867 424.261 163.815 423.657 163.715 423.164C163.625 422.662 163.426 422.259 163.121 421.955C162.827 421.651 162.401 421.499 161.839 421.499C161.266 421.499 160.83 421.651 160.525 421.955C160.231 422.259 160.031 422.662 159.931 423.164C159.842 423.657 159.794 424.261 159.794 424.977C159.794 425.717 159.842 426.337 159.931 426.839C160.031 427.341 160.231 427.743 160.525 428.048C160.83 428.352 161.266 428.504 161.839 428.504C162.401 428.504 162.827 428.352 163.121 428.048C163.426 427.743 163.625 427.341 163.715 426.839C163.815 426.337 163.867 425.717 163.867 424.977ZM173.453 421.486L169.948 429.528H168.786L172.344 421.597H167.472V420.635H173.453V421.486ZM176.543 429.602C176.322 429.602 176.138 429.528 175.986 429.38C175.834 429.232 175.76 429.051 175.76 428.837C175.76 428.623 175.834 428.442 175.986 428.294C176.138 428.146 176.322 428.072 176.543 428.072C176.753 428.072 176.927 428.146 177.069 428.294C177.221 428.442 177.3 428.623 177.3 428.837C177.3 429.051 177.221 429.232 177.069 429.38C176.927 429.528 176.753 429.602 176.543 429.602Z" fill="white"/>
<path d="M50.9205 525.994H50.3109V521.389H47.6149V525.994H47V520.859H50.9205V525.994ZM56.0444 524.066C56.0444 524.693 55.8868 525.184 55.561 525.538C55.2352 525.889 54.7884 526.065 54.2209 526.065C53.8687 526.065 53.5587 525.984 53.2854 525.822C53.0121 525.661 52.8019 525.429 52.6495 525.127C52.5024 524.825 52.4288 524.471 52.4288 524.066C52.4288 523.438 52.5864 522.95 52.9123 522.601C53.2329 522.25 53.6743 522.074 54.2472 522.074C54.799 522.074 55.2352 522.253 55.5557 522.612C55.8816 522.97 56.0444 523.455 56.0444 524.066ZM53.0437 524.066C53.0437 524.558 53.1487 524.932 53.3484 525.19C53.5482 525.448 53.8425 525.576 54.2366 525.576C54.6255 525.576 54.9198 525.449 55.1248 525.193C55.3245 524.936 55.4296 524.56 55.4296 524.066C55.4296 523.576 55.3245 523.205 55.1248 522.952C54.9198 522.697 54.6255 522.569 54.2261 522.569C53.8372 522.569 53.5429 522.695 53.3432 522.945C53.1435 523.196 53.0437 523.569 53.0437 524.066ZM60.6587 523.11C60.6587 523.361 60.5799 523.552 60.4327 523.683C60.2856 523.812 60.0806 523.898 59.8178 523.943V523.975C60.1489 524.019 60.3959 524.115 60.5483 524.263C60.706 524.41 60.7848 524.614 60.7848 524.874C60.7848 525.232 60.6481 525.508 60.3749 525.703C60.1068 525.897 59.7179 525.994 59.1977 525.994H57.4634V522.144H59.1924C60.1699 522.144 60.6587 522.466 60.6587 523.11ZM60.1857 524.835C60.1857 524.627 60.1069 524.476 59.9439 524.382C59.781 524.286 59.513 524.238 59.1399 524.238H58.0573V525.506H59.1556C59.8441 525.506 60.1857 525.282 60.1857 524.835ZM60.0753 523.167C60.0753 522.979 60.0017 522.847 59.8493 522.77C59.7074 522.69 59.4815 522.65 59.1819 522.65H58.0573V523.736H59.0663C59.4394 523.736 59.6969 523.691 59.8493 523.602C60.0017 523.513 60.0753 523.368 60.0753 523.167ZM64.6738 522.643H63.3967V525.994H62.7976V522.643H61.5363V522.144H64.6738V522.643ZM69.2197 524.066C69.2197 524.693 69.0567 525.184 68.7362 525.538C68.4103 525.889 67.9637 526.065 67.3961 526.065C67.044 526.065 66.7286 525.984 66.4553 525.822C66.1873 525.661 65.9718 525.429 65.8247 525.127C65.6775 524.825 65.604 524.471 65.604 524.066C65.604 523.438 65.7617 522.95 66.0822 522.601C66.4028 522.25 66.8495 522.074 67.4223 522.074C67.9689 522.074 68.4103 522.253 68.7309 522.612C69.0567 522.97 69.2197 523.455 69.2197 524.066ZM66.2188 524.066C66.2188 524.558 66.3187 524.932 66.5237 525.19C66.7234 525.448 67.0176 525.576 67.4118 525.576C67.8007 525.576 68.095 525.449 68.2947 525.193C68.4997 524.936 68.6048 524.56 68.6048 524.066C68.6048 523.576 68.4997 523.205 68.2947 522.952C68.095 522.697 67.7954 522.569 67.4013 522.569C67.0124 522.569 66.7181 522.695 66.5184 522.945C66.3187 523.196 66.2188 523.569 66.2188 524.066ZM72.4674 526.065C72.2152 526.065 71.9787 526.019 71.7632 525.928C71.553 525.834 71.3796 525.691 71.2324 525.499H71.1904C71.222 525.724 71.2324 525.937 71.2324 526.138V527.723H70.6386V522.144H71.1221L71.2062 522.671H71.2324C71.3849 522.46 71.5635 522.308 71.7685 522.215C71.9735 522.121 72.2047 522.074 72.4674 522.074C72.993 522.074 73.3924 522.249 73.6762 522.597C73.96 522.946 74.1019 523.436 74.1019 524.066C74.1019 524.698 73.96 525.19 73.6709 525.541C73.3819 525.89 72.9825 526.065 72.4674 526.065ZM72.3834 522.569C71.9787 522.569 71.6897 522.678 71.511 522.896C71.3323 523.114 71.2377 523.46 71.2324 523.936V524.066C71.2324 524.607 71.3271 524.994 71.511 525.229C71.6949 525.46 71.9892 525.576 72.3991 525.576C72.7355 525.576 73.0035 525.442 73.1927 525.172C73.3871 524.903 73.487 524.532 73.487 524.059C73.487 523.579 73.3871 523.211 73.1927 522.956C73.0035 522.698 72.7355 522.569 72.3834 522.569ZM76.1147 522.144V523.757H78.3219V522.144H78.9158V525.994H78.3219V524.259H76.1147V525.994H75.5156V522.144H76.1147ZM82.9677 525.994L82.852 525.446H82.8205C82.6261 525.688 82.4316 525.852 82.2319 525.938C82.0375 526.023 81.7957 526.065 81.5067 526.065C81.1125 526.065 80.8077 525.966 80.587 525.77C80.3663 525.573 80.2559 525.293 80.2559 524.93C80.2559 524.153 80.8918 523.745 82.1636 523.708L82.8311 523.686V523.448C82.8311 523.146 82.7627 522.923 82.6261 522.78C82.4947 522.635 82.2844 522.562 81.9901 522.562C81.6643 522.562 81.2912 522.661 80.8813 522.857L80.6973 522.411C80.8918 522.308 81.102 522.227 81.3332 522.169C81.5645 522.11 81.7957 522.081 82.027 522.081C82.5 522.081 82.8468 522.183 83.0728 522.387C83.2988 522.59 83.4091 522.917 83.4091 523.367V525.994H82.9677ZM81.6223 525.583C81.9954 525.583 82.2845 525.484 82.4947 525.285C82.7102 525.086 82.8153 524.807 82.8153 524.449V524.101L82.2214 524.126C81.7432 524.142 81.4016 524.215 81.1914 524.343C80.9812 524.47 80.8813 524.668 80.8813 524.937C80.8813 525.148 80.9443 525.308 81.0705 525.418C81.2071 525.528 81.3858 525.583 81.6223 525.583ZM85.2117 525.994H84.5127L85.6427 524.368C85.3378 524.302 85.1066 524.176 84.9437 523.989C84.7807 523.799 84.7019 523.561 84.7019 523.275C84.7019 522.924 84.8228 522.648 85.0646 522.446C85.3063 522.245 85.6479 522.144 86.0788 522.144H87.8341V525.994H87.2351V524.456H86.2418L85.2117 525.994ZM85.2853 523.283C85.2853 523.727 85.6164 523.95 86.2785 523.95H87.2351V522.65H86.1524C85.5743 522.65 85.2853 522.861 85.2853 523.283ZM93.3207 526.065C92.7532 526.065 92.3064 525.894 91.9964 525.552C91.681 525.208 91.5286 524.722 91.5286 524.094C91.5286 523.45 91.6863 522.952 92.0016 522.601C92.3222 522.25 92.7741 522.074 93.3575 522.074C93.5467 522.074 93.7412 522.094 93.9304 522.134C94.1196 522.174 94.2667 522.22 94.3718 522.274L94.1879 522.77C94.0565 522.718 93.9146 522.676 93.7569 522.643C93.6045 522.608 93.4679 522.59 93.347 522.59C92.5482 522.59 92.1435 523.089 92.1435 524.087C92.1435 524.56 92.2434 524.923 92.4378 525.176C92.6322 525.429 92.9213 525.555 93.3049 525.555C93.636 525.555 93.9724 525.486 94.314 525.348V525.864C94.0512 525.998 93.7201 526.065 93.3207 526.065ZM98.2765 522.643H96.9995V525.994H96.4004V522.643H95.1338V522.144H98.2765V522.643ZM101.845 525.994L101.724 525.446H101.698C101.503 525.688 101.304 525.852 101.109 525.938C100.915 526.023 100.673 526.065 100.379 526.065C99.9897 526.065 99.6797 525.966 99.459 525.77C99.2382 525.573 99.1279 525.293 99.1279 524.93C99.1279 524.153 99.7638 523.745 101.036 523.708L101.703 523.686V523.448C101.703 523.146 101.64 522.923 101.503 522.78C101.372 522.635 101.162 522.562 100.867 522.562C100.542 522.562 100.168 522.661 99.7533 522.857L99.5694 522.411C99.7638 522.308 99.9793 522.227 100.205 522.169C100.436 522.11 100.673 522.081 100.904 522.081C101.372 522.081 101.719 522.183 101.945 522.387C102.171 522.59 102.286 522.917 102.286 523.367V525.994H101.845ZM100.5 525.583C100.867 525.583 101.162 525.484 101.372 525.285C101.582 525.086 101.692 524.807 101.692 524.449V524.101L101.093 524.126C100.62 524.142 100.279 524.215 100.069 524.343C99.8584 524.47 99.7533 524.668 99.7533 524.937C99.7533 525.148 99.8163 525.308 99.9477 525.418C100.079 525.528 100.263 525.583 100.5 525.583ZM107.079 523.11C107.079 523.361 107.006 523.552 106.859 523.683C106.711 523.812 106.506 523.898 106.238 523.943V523.975C106.575 524.019 106.822 524.115 106.974 524.263C107.127 524.41 107.205 524.614 107.205 524.874C107.205 525.232 107.069 525.508 106.801 525.703C106.533 525.897 106.139 525.994 105.624 525.994H103.889V522.144H105.613C106.591 522.144 107.079 522.466 107.079 523.11ZM106.612 524.835C106.612 524.627 106.527 524.476 106.364 524.382C106.207 524.286 105.939 524.238 105.566 524.238H104.483V525.506H105.581C106.265 525.506 106.612 525.282 106.612 524.835ZM106.501 523.167C106.501 522.979 106.422 522.847 106.275 522.77C106.128 522.69 105.907 522.65 105.608 522.65H104.483V523.736H105.492C105.86 523.736 106.123 523.691 106.27 523.602C106.422 523.513 106.501 523.368 106.501 523.167ZM110.737 522.144H111.394L109.696 524.003L111.536 525.994H110.837L109.04 524.045V525.994H108.446V522.144H109.04V524.017L110.737 522.144ZM115.057 525.994L114.936 525.446H114.91C114.71 525.688 114.516 525.852 114.321 525.938C114.127 526.023 113.88 526.065 113.591 526.065C113.202 526.065 112.892 525.966 112.671 525.77C112.45 525.573 112.34 525.293 112.34 524.93C112.34 524.153 112.976 523.745 114.248 523.708L114.915 523.686V523.448C114.915 523.146 114.847 522.923 114.715 522.78C114.584 522.635 114.368 522.562 114.079 522.562C113.748 522.562 113.38 522.661 112.965 522.857L112.781 522.411C112.976 522.308 113.186 522.227 113.417 522.169C113.648 522.11 113.88 522.081 114.116 522.081C114.584 522.081 114.931 522.183 115.157 522.387C115.383 522.59 115.498 522.917 115.498 523.367V525.994H115.057ZM113.706 525.583C114.079 525.583 114.368 525.484 114.579 525.285C114.794 525.086 114.899 524.807 114.899 524.449V524.101L114.305 524.126C113.832 524.142 113.486 524.215 113.275 524.343C113.07 524.47 112.965 524.668 112.965 524.937C112.965 525.148 113.028 525.308 113.16 525.418C113.291 525.528 113.475 525.583 113.706 525.583Z" fill="white"/>
<path d="M81.2274 510C96.6104 510 109.081 497.806 109.081 482.764C109.081 467.723 96.6104 455.529 81.2274 455.529C65.8444 455.529 53.374 467.723 53.374 482.764C53.374 497.806 65.8444 510 81.2274 510Z" stroke="#53BA70" stroke-width="3"/>
<g filter="url(#filter28_f_409_5084)">
<path d="M81.2284 510C96.6114 510 109.082 497.806 109.082 482.764C109.082 467.723 96.6114 455.529 81.2284 455.529C65.8454 455.529 53.375 467.723 53.375 482.764C53.375 497.806 65.8454 510 81.2284 510Z" stroke="#53BA70" stroke-width="3"/>
</g>
<g filter="url(#filter29_f_409_5084)">
<path d="M81.2284 510C96.6114 510 109.082 497.806 109.082 482.764C109.082 467.723 96.6114 455.529 81.2284 455.529C65.8454 455.529 53.375 467.723 53.375 482.764C53.375 497.806 65.8454 510 81.2284 510Z" stroke="#53BA70" stroke-width="3"/>
</g>
<g filter="url(#filter30_f_409_5084)">
<path d="M81.2284 510C96.6114 510 109.082 497.806 109.082 482.764C109.082 467.723 96.6114 455.529 81.2284 455.529C65.8454 455.529 53.375 467.723 53.375 482.764C53.375 497.806 65.8454 510 81.2284 510Z" stroke="#53BA70" stroke-width="3"/>
</g>
<g filter="url(#filter31_f_409_5084)">
<path d="M81.2284 510C96.6114 510 109.082 497.806 109.082 482.764C109.082 467.723 96.6114 455.529 81.2284 455.529C65.8454 455.529 53.375 467.723 53.375 482.764C53.375 497.806 65.8454 510 81.2284 510Z" stroke="#53BA70" stroke-width="3"/>
</g>
<path d="M81.4912 499.979C91.3596 499.979 99.3594 492.157 99.3594 482.508C99.3594 472.858 91.3596 465.036 81.4912 465.036C71.6229 465.036 63.623 472.858 63.623 482.508C63.623 492.157 71.6229 499.979 81.4912 499.979Z" fill="#292929" fill-opacity="0.3"/>
<path d="M72.2891 482.068C72.2891 480.654 72.5255 479.552 72.9933 478.762C73.4662 477.965 74.2914 477.566 75.4686 477.566C76.6353 477.566 77.4551 477.965 77.9281 478.762C78.3958 479.552 78.6323 480.654 78.6323 482.068C78.6323 483.507 78.3958 484.625 77.9281 485.422C77.4551 486.22 76.6353 486.619 75.4686 486.619C74.2914 486.619 73.4662 486.22 72.9933 485.422C72.5255 484.625 72.2891 483.507 72.2891 482.068ZM77.4971 482.068C77.4971 481.352 77.4446 480.748 77.3447 480.255C77.2554 479.753 77.0557 479.35 76.7509 479.046C76.4566 478.742 76.0309 478.59 75.4686 478.59C74.8957 478.59 74.4596 478.742 74.1547 479.046C73.8604 479.35 73.6607 479.753 73.5609 480.255C73.4715 480.748 73.4242 481.352 73.4242 482.068C73.4242 482.808 73.4715 483.429 73.5609 483.93C73.6607 484.432 73.8604 484.834 74.1547 485.139C74.4596 485.443 74.8957 485.595 75.4686 485.595C76.0309 485.595 76.4566 485.443 76.7509 485.139C77.0557 484.834 77.2554 484.432 77.3447 483.93C77.4446 483.429 77.4971 482.808 77.4971 482.068ZM83.1361 481.981C82.6632 481.801 82.3006 481.537 82.0483 481.192C81.7961 480.847 81.6699 480.427 81.6699 479.934C81.6699 479.49 81.7855 479.091 82.0115 478.738C82.2375 478.376 82.5738 478.092 83.0205 477.887C83.4725 477.673 84.0191 477.566 84.6602 477.566C85.3014 477.566 85.8427 477.673 86.2894 477.887C86.7413 478.092 87.0829 478.376 87.3089 478.738C87.5454 479.091 87.661 479.49 87.661 479.934C87.661 480.411 87.5296 480.83 87.2721 481.192C87.0093 481.546 86.652 481.809 86.2 481.981C86.7203 482.138 87.1302 482.413 87.4351 482.808C87.7451 483.194 87.9027 483.663 87.9027 484.214C87.9027 484.748 87.7661 485.217 87.4981 485.62C87.2301 486.014 86.8464 486.323 86.3524 486.545C85.8637 486.758 85.3014 486.865 84.6602 486.865C84.0191 486.865 83.4567 486.758 82.968 486.545C82.4898 486.323 82.1166 486.014 81.8486 485.62C81.5806 485.217 81.4439 484.748 81.4439 484.214C81.4439 483.663 81.5963 483.19 81.8959 482.795C82.2007 482.401 82.6106 482.129 83.1361 481.981ZM86.5521 480.07C86.5521 479.568 86.384 479.182 86.0476 478.91C85.7113 478.639 85.2488 478.503 84.6602 478.503C84.0821 478.503 83.6197 478.639 83.2833 478.91C82.947 479.182 82.7787 479.572 82.7787 480.082C82.7787 480.543 82.9522 480.913 83.299 481.192C83.6511 481.472 84.1031 481.611 84.6602 481.611C85.2225 481.611 85.6797 481.472 86.0213 481.192C86.3734 480.904 86.5521 480.53 86.5521 480.07ZM84.6602 482.475C84.0401 482.475 83.5303 482.619 83.1361 482.906C82.7367 483.186 82.5423 483.609 82.5423 484.177C82.5423 484.703 82.7315 485.126 83.1098 485.447C83.4935 485.768 84.0138 485.928 84.6602 485.928C85.3066 485.928 85.8216 485.768 86.2 485.447C86.5784 485.126 86.7676 484.703 86.7676 484.177C86.7676 483.626 86.5732 483.207 86.1843 482.919C85.8006 482.623 85.2909 482.475 84.6602 482.475ZM91.2399 486.693C91.0245 486.693 90.8405 486.619 90.6881 486.471C90.5357 486.323 90.4621 486.142 90.4621 485.928C90.4621 485.714 90.5357 485.533 90.6881 485.385C90.8405 485.237 91.0245 485.163 91.2399 485.163C91.4502 485.163 91.6288 485.237 91.7707 485.385C91.9231 485.533 91.9967 485.714 91.9967 485.928C91.9967 486.142 91.9231 486.323 91.7707 486.471C91.6288 486.619 91.4502 486.693 91.2399 486.693Z" fill="white"/>
<defs>
<filter id="filter0_f_409_5084" x="88.2373" y="0.170288" width="158.707" height="157.471" filterUnits="userSpaceOnUse" color-interpolation-filters="sRGB">
<feFlood flood-opacity="0" result="BackgroundImageFix"/>
<feBlend mode="normal" in="SourceGraphic" in2="BackgroundImageFix" result="shape"/>
<feGaussianBlur stdDeviation="25" result="effect1_foregroundBlur_409_5084"/>
</filter>
<filter id="filter1_f_409_5084" x="113.237" y="25.1703" width="108.707" height="107.471" filterUnits="userSpaceOnUse" color-interpolation-filters="sRGB">
<feFlood flood-opacity="0" result="BackgroundImageFix"/>
<feBlend mode="normal" in="SourceGraphic" in2="BackgroundImageFix" result="shape"/>
<feGaussianBlur stdDeviation="12.5" result="effect1_foregroundBlur_409_5084"/>
</filter>
<filter id="filter2_f_409_5084" x="123.237" y="35.1703" width="88.707" height="87.4713" filterUnits="userSpaceOnUse" color-interpolation-filters="sRGB">
<feFlood flood-opacity="0" result="BackgroundImageFix"/>
<feBlend mode="normal" in="SourceGraphic" in2="BackgroundImageFix" result="shape"/>
<feGaussianBlur stdDeviation="7.5" result="effect1_foregroundBlur_409_5084"/>
</filter>
<filter id="filter3_f_409_5084" x="128.237" y="40.1703" width="78.707" height="77.4713" filterUnits="userSpaceOnUse" color-interpolation-filters="sRGB">
<feFlood flood-opacity="0" result="BackgroundImageFix"/>
<feBlend mode="normal" in="SourceGraphic" in2="BackgroundImageFix" result="shape"/>
<feGaussianBlur stdDeviation="5" result="effect1_foregroundBlur_409_5084"/>
</filter>
<filter id="filter4_f_409_5084" x="0.453125" y="46.21" width="158.707" height="157.471" filterUnits="userSpaceOnUse" color-interpolation-filters="sRGB">
<feFlood flood-opacity="0" result="BackgroundImageFix"/>
<feBlend mode="normal" in="SourceGraphic" in2="BackgroundImageFix" result="shape"/>
<feGaussianBlur stdDeviation="25" result="effect1_foregroundBlur_409_5084"/>
</filter>
<filter id="filter5_f_409_5084" x="25.4531" y="71.21" width="108.707" height="107.471" filterUnits="userSpaceOnUse" color-interpolation-filters="sRGB">
<feFlood flood-opacity="0" result="BackgroundImageFix"/>
<feBlend mode="normal" in="SourceGraphic" in2="BackgroundImageFix" result="shape"/>
<feGaussianBlur stdDeviation="12.5" result="effect1_foregroundBlur_409_5084"/>
</filter>
<filter id="filter6_f_409_5084" x="35.4531" y="81.21" width="88.707" height="87.4713" filterUnits="userSpaceOnUse" color-interpolation-filters="sRGB">
<feFlood flood-opacity="0" result="BackgroundImageFix"/>
<feBlend mode="normal" in="SourceGraphic" in2="BackgroundImageFix" result="shape"/>
<feGaussianBlur stdDeviation="7.5" result="effect1_foregroundBlur_409_5084"/>
</filter>
<filter id="filter7_f_409_5084" x="40.4531" y="86.21" width="78.707" height="77.4713" filterUnits="userSpaceOnUse" color-interpolation-filters="sRGB">
<feFlood flood-opacity="0" result="BackgroundImageFix"/>
<feBlend mode="normal" in="SourceGraphic" in2="BackgroundImageFix" result="shape"/>
<feGaussianBlur stdDeviation="5" result="effect1_foregroundBlur_409_5084"/>
</filter>
<filter id="filter8_f_409_5084" x="88.2373" y="102.705" width="158.707" height="157.471" filterUnits="userSpaceOnUse" color-interpolation-filters="sRGB">
<feFlood flood-opacity="0" result="BackgroundImageFix"/>
<feBlend mode="normal" in="SourceGraphic" in2="BackgroundImageFix" result="shape"/>
<feGaussianBlur stdDeviation="25" result="effect1_foregroundBlur_409_5084"/>
</filter>
<filter id="filter9_f_409_5084" x="113.237" y="127.705" width="108.707" height="107.471" filterUnits="userSpaceOnUse" color-interpolation-filters="sRGB">
<feFlood flood-opacity="0" result="BackgroundImageFix"/>
<feBlend mode="normal" in="SourceGraphic" in2="BackgroundImageFix" result="shape"/>
<feGaussianBlur stdDeviation="12.5" result="effect1_foregroundBlur_409_5084"/>
</filter>
<filter id="filter10_f_409_5084" x="123.237" y="137.705" width="88.707" height="87.4713" filterUnits="userSpaceOnUse" color-interpolation-filters="sRGB">
<feFlood flood-opacity="0" result="BackgroundImageFix"/>
<feBlend mode="normal" in="SourceGraphic" in2="BackgroundImageFix" result="shape"/>
<feGaussianBlur stdDeviation="7.5" result="effect1_foregroundBlur_409_5084"/>
</filter>
<filter id="filter11_f_409_5084" x="128.237" y="142.705" width="78.707" height="77.4713" filterUnits="userSpaceOnUse" color-interpolation-filters="sRGB">
<feFlood flood-opacity="0" result="BackgroundImageFix"/>
<feBlend mode="normal" in="SourceGraphic" in2="BackgroundImageFix" result="shape"/>
<feGaussianBlur stdDeviation="5" result="effect1_foregroundBlur_409_5084"/>
</filter>
<filter id="filter12_f_409_5084" x="0.453125" y="167.023" width="158.707" height="157.471" filterUnits="userSpaceOnUse" color-interpolation-filters="sRGB">
<feFlood flood-opacity="0" result="BackgroundImageFix"/>
<feBlend mode="normal" in="SourceGraphic" in2="BackgroundImageFix" result="shape"/>
<feGaussianBlur stdDeviation="25" result="effect1_foregroundBlur_409_5084"/>
</filter>
<filter id="filter13_f_409_5084" x="25.4531" y="192.023" width="108.707" height="107.471" filterUnits="userSpaceOnUse" color-interpolation-filters="sRGB">
<feFlood flood-opacity="0" result="BackgroundImageFix"/>
<feBlend mode="normal" in="SourceGraphic" in2="BackgroundImageFix" result="shape"/>
<feGaussianBlur stdDeviation="12.5" result="effect1_foregroundBlur_409_5084"/>
</filter>
<filter id="filter14_f_409_5084" x="35.4531" y="202.023" width="88.707" height="87.4712" filterUnits="userSpaceOnUse" color-interpolation-filters="sRGB">
<feFlood flood-opacity="0" result="BackgroundImageFix"/>
<feBlend mode="normal" in="SourceGraphic" in2="BackgroundImageFix" result="shape"/>
<feGaussianBlur stdDeviation="7.5" result="effect1_foregroundBlur_409_5084"/>
</filter>
<filter id="filter15_f_409_5084" x="40.4531" y="207.023" width="78.707" height="77.4712" filterUnits="userSpaceOnUse" color-interpolation-filters="sRGB">
<feFlood flood-opacity="0" result="BackgroundImageFix"/>
<feBlend mode="normal" in="SourceGraphic" in2="BackgroundImageFix" result="shape"/>
<feGaussianBlur stdDeviation="5" result="effect1_foregroundBlur_409_5084"/>
</filter>
<filter id="filter16_f_409_5084" x="88.2373" y="231.34" width="158.707" height="157.471" filterUnits="userSpaceOnUse" color-interpolation-filters="sRGB">
<feFlood flood-opacity="0" result="BackgroundImageFix"/>
<feBlend mode="normal" in="SourceGraphic" in2="BackgroundImageFix" result="shape"/>
<feGaussianBlur stdDeviation="25" result="effect1_foregroundBlur_409_5084"/>
</filter>
<filter id="filter17_f_409_5084" x="113.237" y="256.34" width="108.707" height="107.471" filterUnits="userSpaceOnUse" color-interpolation-filters="sRGB">
<feFlood flood-opacity="0" result="BackgroundImageFix"/>
<feBlend mode="normal" in="SourceGraphic" in2="BackgroundImageFix" result="shape"/>
<feGaussianBlur stdDeviation="12.5" result="effect1_foregroundBlur_409_5084"/>
</filter>
<filter id="filter18_f_409_5084" x="123.237" y="266.34" width="88.707" height="87.4712" filterUnits="userSpaceOnUse" color-interpolation-filters="sRGB">
<feFlood flood-opacity="0" result="BackgroundImageFix"/>
<feBlend mode="normal" in="SourceGraphic" in2="BackgroundImageFix" result="shape"/>
<feGaussianBlur stdDeviation="7.5" result="effect1_foregroundBlur_409_5084"/>
</filter>
<filter id="filter19_f_409_5084" x="128.237" y="271.34" width="78.707" height="77.4712" filterUnits="userSpaceOnUse" color-interpolation-filters="sRGB">
<feFlood flood-opacity="0" result="BackgroundImageFix"/>
<feBlend mode="normal" in="SourceGraphic" in2="BackgroundImageFix" result="shape"/>
<feGaussianBlur stdDeviation="5" result="effect1_foregroundBlur_409_5084"/>
</filter>
<filter id="filter20_f_409_5084" x="0.453125" y="287.835" width="158.707" height="157.471" filterUnits="userSpaceOnUse" color-interpolation-filters="sRGB">
<feFlood flood-opacity="0" result="BackgroundImageFix"/>
<feBlend mode="normal" in="SourceGraphic" in2="BackgroundImageFix" result="shape"/>
<feGaussianBlur stdDeviation="25" result="effect1_foregroundBlur_409_5084"/>
</filter>
<filter id="filter21_f_409_5084" x="25.4531" y="312.835" width="108.707" height="107.471" filterUnits="userSpaceOnUse" color-interpolation-filters="sRGB">
<feFlood flood-opacity="0" result="BackgroundImageFix"/>
<feBlend mode="normal" in="SourceGraphic" in2="BackgroundImageFix" result="shape"/>
<feGaussianBlur stdDeviation="12.5" result="effect1_foregroundBlur_409_5084"/>
</filter>
<filter id="filter22_f_409_5084" x="35.4531" y="322.835" width="88.707" height="87.4712" filterUnits="userSpaceOnUse" color-interpolation-filters="sRGB">
<feFlood flood-opacity="0" result="BackgroundImageFix"/>
<feBlend mode="normal" in="SourceGraphic" in2="BackgroundImageFix" result="shape"/>
<feGaussianBlur stdDeviation="7.5" result="effect1_foregroundBlur_409_5084"/>
</filter>
<filter id="filter23_f_409_5084" x="40.4531" y="327.835" width="78.707" height="77.4712" filterUnits="userSpaceOnUse" color-interpolation-filters="sRGB">
<feFlood flood-opacity="0" result="BackgroundImageFix"/>
<feBlend mode="normal" in="SourceGraphic" in2="BackgroundImageFix" result="shape"/>
<feGaussianBlur stdDeviation="5" result="effect1_foregroundBlur_409_5084"/>
</filter>
<filter id="filter24_f_409_5084" x="88.2461" y="346.938" width="158.707" height="157.471" filterUnits="userSpaceOnUse" color-interpolation-filters="sRGB">
<feFlood flood-opacity="0" result="BackgroundImageFix"/>
<feBlend mode="normal" in="SourceGraphic" in2="BackgroundImageFix" result="shape"/>
<feGaussianBlur stdDeviation="25" result="effect1_foregroundBlur_409_5084"/>
</filter>
<filter id="filter25_f_409_5084" x="113.246" y="371.938" width="108.707" height="107.471" filterUnits="userSpaceOnUse" color-interpolation-filters="sRGB">
<feFlood flood-opacity="0" result="BackgroundImageFix"/>
<feBlend mode="normal" in="SourceGraphic" in2="BackgroundImageFix" result="shape"/>
<feGaussianBlur stdDeviation="12.5" result="effect1_foregroundBlur_409_5084"/>
</filter>
<filter id="filter26_f_409_5084" x="123.246" y="381.938" width="88.707" height="87.4712" filterUnits="userSpaceOnUse" color-interpolation-filters="sRGB">
<feFlood flood-opacity="0" result="BackgroundImageFix"/>
<feBlend mode="normal" in="SourceGraphic" in2="BackgroundImageFix" result="shape"/>
<feGaussianBlur stdDeviation="7.5" result="effect1_foregroundBlur_409_5084"/>
</filter>
<filter id="filter27_f_409_5084" x="128.246" y="386.938" width="78.707" height="77.4712" filterUnits="userSpaceOnUse" color-interpolation-filters="sRGB">
<feFlood flood-opacity="0" result="BackgroundImageFix"/>
<feBlend mode="normal" in="SourceGraphic" in2="BackgroundImageFix" result="shape"/>
<feGaussianBlur stdDeviation="5" result="effect1_foregroundBlur_409_5084"/>
</filter>
<filter id="filter28_f_409_5084" x="1.875" y="404.029" width="158.707" height="157.471" filterUnits="userSpaceOnUse" color-interpolation-filters="sRGB">
<feFlood flood-opacity="0" result="BackgroundImageFix"/>
<feBlend mode="normal" in="SourceGraphic" in2="BackgroundImageFix" result="shape"/>
<feGaussianBlur stdDeviation="25" result="effect1_foregroundBlur_409_5084"/>
</filter>
<filter id="filter29_f_409_5084" x="26.875" y="429.029" width="108.707" height="107.471" filterUnits="userSpaceOnUse" color-interpolation-filters="sRGB">
<feFlood flood-opacity="0" result="BackgroundImageFix"/>
<feBlend mode="normal" in="SourceGraphic" in2="BackgroundImageFix" result="shape"/>
<feGaussianBlur stdDeviation="12.5" result="effect1_foregroundBlur_409_5084"/>
</filter>
<filter id="filter30_f_409_5084" x="36.875" y="439.029" width="88.707" height="87.4712" filterUnits="userSpaceOnUse" color-interpolation-filters="sRGB">
<feFlood flood-opacity="0" result="BackgroundImageFix"/>
<feBlend mode="normal" in="SourceGraphic" in2="BackgroundImageFix" result="shape"/>
<feGaussianBlur stdDeviation="7.5" result="effect1_foregroundBlur_409_5084"/>
</filter>
<filter id="filter31_f_409_5084" x="41.875" y="444.029" width="78.707" height="77.4712" filterUnits="userSpaceOnUse" color-interpolation-filters="sRGB">
<feFlood flood-opacity="0" result="BackgroundImageFix"/>
<feBlend mode="normal" in="SourceGraphic" in2="BackgroundImageFix" result="shape"/>
<feGaussianBlur stdDeviation="5" result="effect1_foregroundBlur_409_5084"/>
</filter>
</defs>
</svg>
